<svg id="SvgjsSvg1294" width="1211" height="453" xmlns="http://www.w3.org/2000/svg" version="1.1" xmlns:xlink="http://www.w3.org/1999/xlink" xmlns:svgjs="http://svgjs.com/svgjs"><defs id="SvgjsDefs1295"><marker id="SvgjsMarker1356" markerWidth="14" markerHeight="10" refX="10" refY="5" viewBox="0 0 14 10" orient="auto" markerUnits="userSpaceOnUse" stroke-dasharray="0,0"><path id="SvgjsPath1357" d="M0,0 L14,5 L0,10 L0,0" fill="#f44336" stroke="#f44336" stroke-width="1"></path></marker><marker id="SvgjsMarker1376" markerWidth="14" markerHeight="10" refX="10" refY="5" viewBox="0 0 14 10" orient="auto" markerUnits="userSpaceOnUse" stroke-dasharray="0,0"><path id="SvgjsPath1377" d="M0,0 L14,5 L0,10 L0,0" fill="#323232" stroke="#323232" stroke-width="1"></path></marker><marker id="SvgjsMarker1392" markerWidth="14" markerHeight="10" refX="10" refY="5" viewBox="0 0 14 10" orient="auto" markerUnits="userSpaceOnUse" stroke-dasharray="0,0"><path id="SvgjsPath1393" d="M0,0 L14,5 L0,10 L0,0" fill="#323232" stroke="#323232" stroke-width="1"></path></marker><marker id="SvgjsMarker1402" markerWidth="14" markerHeight="10" refX="10" refY="5" viewBox="0 0 14 10" orient="auto" markerUnits="userSpaceOnUse" stroke-dasharray="0,0"><path id="SvgjsPath1403" d="M0,0 L14,5 L0,10 L0,0" fill="#323232" stroke="#323232" stroke-width="1"></path></marker><marker id="SvgjsMarker1406" markerWidth="14" markerHeight="10" refX="10" refY="5" viewBox="0 0 14 10" orient="auto" markerUnits="userSpaceOnUse" stroke-dasharray="0,0"><path id="SvgjsPath1407" d="M0,0 L14,5 L0,10 L0,0" fill="#323232" stroke="#323232" stroke-width="1"></path></marker><marker id="SvgjsMarker1416" markerWidth="14" markerHeight="10" refX="10" refY="5" viewBox="0 0 14 10" orient="auto" markerUnits="userSpaceOnUse" stroke-dasharray="0,0"><path id="SvgjsPath1417" d="M0,0 L14,5 L0,10 L0,0" fill="#323232" stroke="#323232" stroke-width="1"></path></marker><marker id="SvgjsMarker1420" markerWidth="14" markerHeight="10" refX="10" refY="5" viewBox="0 0 14 10" orient="auto" markerUnits="userSpaceOnUse" stroke-dasharray="0,0"><path id="SvgjsPath1421" d="M0,0 L14,5 L0,10 L0,0" fill="#323232" stroke="#323232" stroke-width="1"></path></marker></defs><g id="SvgjsG1296" transform="translate(25,25)"><path id="SvgjsPath1297" d="M 0 0L 1161 0L 1161 403L 0 403Z" stroke="none" fill-opacity="1" fill="#ffffff"></path><g id="SvgjsG1298"><text id="SvgjsText1299" font-family="微软雅黑" text-anchor="middle" font-size="26px" width="1141px" fill="#323232" font-weight="700" align="top" lineHeight="125%" anchor="middle" family="微软雅黑" size="26px" weight="700" font-style="" opacity="1" y="-6.25" transform="rotate(0)"><tspan id="SvgjsTspan1300" dy="32" x="580.5"><tspan id="SvgjsTspan1301" style="text-decoration:;"> </tspan></tspan><tspan id="SvgjsTspan1302" dy="32" x="580.5"><tspan id="SvgjsTspan1303" style="text-decoration:;"> </tspan></tspan></text></g></g><g id="SvgjsG1304" transform="translate(121,312)"><path id="SvgjsPath1305" d="M 0 0L 950 0L 950 100L 0 100Z" stroke="none" fill-opacity="1" fill="#f5f5f5"></path><g id="SvgjsG1306"><text id="SvgjsText1307" font-family="微软雅黑" text-anchor="end" font-size="16px" width="930px" fill="#323232" font-weight="700" align="middle" lineHeight="125%" anchor="end" family="微软雅黑" size="16px" weight="700" font-style="" opacity="1" y="36" transform="rotate(0)"><tspan id="SvgjsTspan1308" dy="20" x="940"><tspan id="SvgjsTspan1309" style="text-decoration:;">Feature MustReply</tspan></tspan></text></g></g><g id="SvgjsG1310" transform="translate(157,40)"><path id="SvgjsPath1311" d="M 0 0L 300 0L 300 100L 0 100Z" stroke="none" fill-opacity="1" fill="#f5f5f5"></path><g id="SvgjsG1312"><text id="SvgjsText1313" font-family="微软雅黑" text-anchor="start" font-size="16px" width="280px" fill="#323232" font-weight="700" align="middle" lineHeight="125%" anchor="start" family="微软雅黑" size="16px" weight="700" font-style="" opacity="1" y="36" transform="rotate(0)"><tspan id="SvgjsTspan1314" dy="20" x="10"><tspan id="SvgjsTspan1315" style="text-decoration:;">Feature Something</tspan></tspan></text></g></g><g id="SvgjsG1316" transform="translate(637,40)"><path id="SvgjsPath1317" d="M 0 0L 510 0L 510 100L 0 100Z" stroke="none" fill-opacity="1" fill="#f5f5f5"></path><g id="SvgjsG1318"><text id="SvgjsText1319" font-family="微软雅黑" text-anchor="start" font-size="16px" width="490px" fill="#323232" font-weight="700" align="middle" lineHeight="125%" anchor="start" family="微软雅黑" size="16px" weight="700" font-style="" opacity="1" y="36" transform="rotate(0)"><tspan id="SvgjsTspan1320" dy="20" x="10"><tspan id="SvgjsTspan1321" style="text-decoration:;">Feature Thread</tspan></tspan></text></g></g><g id="SvgjsG1322" transform="translate(242,192)"><path id="SvgjsPath1323" d="M 0 4Q 0 0 4 0L 126 0Q 130 0 130 4L 130 56Q 130 60 126 60L 4 60Q 0 60 0 56Z" stroke="rgba(50,50,50,1)" stroke-width="2" fill-opacity="1" fill="#fff176"></path><g id="SvgjsG1324"><text id="SvgjsText1325" font-family="微软雅黑" text-anchor="middle" font-size="15px" width="110px" fill="#323232" font-weight="700" align="middle" lineHeight="125%" anchor="middle" family="微软雅黑" size="15px" weight="700" font-style="" opacity="1" y="8.125" transform="rotate(0)"><tspan id="SvgjsTspan1326" dy="18" x="65"><tspan id="SvgjsTspan1327" style="text-decoration:;">Core V1</tspan></tspan><tspan id="SvgjsTspan1328" dy="18" x="65"><tspan id="SvgjsTspan1329" style="text-decoration:;">(2022-07-21)</tspan></tspan></text></g></g><g id="SvgjsG1330" transform="translate(695,192)"><path id="SvgjsPath1331" d="M 0 4Q 0 0 4 0L 126 0Q 130 0 130 4L 130 56Q 130 60 126 60L 4 60Q 0 60 0 56Z" stroke="rgba(50,50,50,1)" stroke-width="2" fill-opacity="1" fill="#fff176"></path><g id="SvgjsG1332"><text id="SvgjsText1333" font-family="微软雅黑" text-anchor="middle" font-size="15px" width="110px" fill="#323232" font-weight="700" align="middle" lineHeight="125%" anchor="middle" family="微软雅黑" size="15px" weight="700" font-style="" opacity="1" y="8.125" transform="rotate(0)"><tspan id="SvgjsTspan1334" dy="18" x="65"><tspan id="SvgjsTspan1335" style="text-decoration:;">Core V2</tspan></tspan><tspan id="SvgjsTspan1336" dy="18" x="65"><tspan id="SvgjsTspan1337" style="text-decoration:;">(2022-08-19)</tspan></tspan></text></g></g><g id="SvgjsG1338" transform="translate(893,192)"><path id="SvgjsPath1339" d="M 0 4Q 0 0 4 0L 126 0Q 130 0 130 4L 130 56Q 130 60 126 60L 4 60Q 0 60 0 56Z" stroke="rgba(50,50,50,1)" stroke-width="2" fill-opacity="1" fill="#fff176"></path><g id="SvgjsG1340"><text id="SvgjsText1341" font-family="微软雅黑" text-anchor="middle" font-size="15px" width="110px" fill="#323232" font-weight="700" align="middle" lineHeight="125%" anchor="middle" family="微软雅黑" size="15px" weight="700" font-style="" opacity="1" y="8.125" transform="rotate(0)"><tspan id="SvgjsTspan1342" dy="18" x="65"><tspan id="SvgjsTspan1343" style="text-decoration:;">Core V3</tspan></tspan><tspan id="SvgjsTspan1344" dy="18" x="65"><tspan id="SvgjsTspan1345" style="text-decoration:;">(2022-09-20)</tspan></tspan></text></g></g><g id="SvgjsG1346" transform="translate(392.5,192)"><path id="SvgjsPath1347" d="M 0 4Q 0 0 4 0L 126 0Q 130 0 130 4L 130 56Q 130 60 126 60L 4 60Q 0 60 0 56Z" stroke="rgba(50,50,50,1)" stroke-width="2" fill-opacity="1" fill="#fff176"></path><g id="SvgjsG1348"><text id="SvgjsText1349" font-family="微软雅黑" text-anchor="middle" font-size="15px" width="110px" fill="#323232" font-weight="700" align="middle" lineHeight="125%" anchor="middle" family="微软雅黑" size="15px" weight="700" font-style="" opacity="1" y="8.125" transform="rotate(0)"><tspan id="SvgjsTspan1350" dy="18" x="65"><tspan id="SvgjsTspan1351" style="text-decoration:;">Core V1 Patch</tspan></tspan><tspan id="SvgjsTspan1352" dy="18" x="65"><tspan id="SvgjsTspan1353" style="text-decoration:;">(2022-07-23)</tspan></tspan></text></g></g><g id="SvgjsG1354"><path id="SvgjsPath1355" d="M55 222L598 222L598 222L1141 222" stroke="#f44336" stroke-width="2" fill="none" marker-end="url(#SvgjsMarker1356)"></path><rect id="SvgjsRect1358" width="72" height="23" x="46.14999999999998" y="210.5" fill="#ffffff"></rect><text id="SvgjsText1359" font-family="微软雅黑" text-anchor="middle" font-size="18px" width="72px" fill="#f44336" font-weight="700" align="top" lineHeight="23px" anchor="middle" family="微软雅黑" size="18px" weight="700" font-style="" opacity="1" y="206.25" transform="rotate(0)"><tspan id="SvgjsTspan1360" dy="22" x="82.14999999999998"><tspan id="SvgjsTspan1361" style="text-decoration:;">Timeline</tspan></tspan></text></g><g id="SvgjsG1362" transform="translate(799,65)"><path id="SvgjsPath1363" d="M 16.666666666666668 0L 103.33333333333333 0C 125.55555555555556 0 125.55555555555556 50 103.33333333333333 50L 16.666666666666668 50C -5.555555555555556 50 -5.555555555555556 0 16.666666666666668 0Z" stroke="rgba(50,50,50,1)" stroke-width="2" fill-opacity="1" fill="#ffffff"></path><g id="SvgjsG1364"><text id="SvgjsText1365" font-family="微软雅黑" text-anchor="middle" font-size="15px" width="100px" fill="#323232" font-weight="700" align="middle" lineHeight="125%" anchor="middle" family="微软雅黑" size="15px" weight="700" font-style="" opacity="1" y="12.625" transform="rotate(0)"><tspan id="SvgjsTspan1366" dy="18" x="60"><tspan id="SvgjsTspan1367" style="text-decoration:;">Thread V1</tspan></tspan></text></g></g><g id="SvgjsG1368" transform="translate(1013,65)"><path id="SvgjsPath1369" d="M 16.666666666666668 0L 103.33333333333333 0C 125.55555555555556 0 125.55555555555556 50 103.33333333333333 50L 16.666666666666668 50C -5.555555555555556 50 -5.555555555555556 0 16.666666666666668 0Z" stroke="rgba(50,50,50,1)" stroke-width="2" fill-opacity="1" fill="#ffffff"></path><g id="SvgjsG1370"><text id="SvgjsText1371" font-family="微软雅黑" text-anchor="middle" font-size="15px" width="100px" fill="#323232" font-weight="700" align="middle" lineHeight="125%" anchor="middle" family="微软雅黑" size="15px" weight="700" font-style="" opacity="1" y="12.625" transform="rotate(0)"><tspan id="SvgjsTspan1372" dy="18" x="60"><tspan id="SvgjsTspan1373" style="text-decoration:;">Thread V2</tspan></tspan></text></g></g><g id="SvgjsG1374"><path id="SvgjsPath1375" d="M859 116L859 168L859 168L859 221" stroke="#323232" stroke-width="2" fill="none" marker-end="url(#SvgjsMarker1376)"></path></g><g id="SvgjsG1378" transform="translate(140,343)"><path id="SvgjsPath1379" d="M 16.666666666666668 0L 103.33333333333333 0C 125.55555555555556 0 125.55555555555556 50 103.33333333333333 50L 16.666666666666668 50C -5.555555555555556 50 -5.555555555555556 0 16.666666666666668 0Z" stroke="rgba(50,50,50,1)" stroke-width="2" fill-opacity="1" fill="#ffffff"></path><g id="SvgjsG1380"><text id="SvgjsText1381" font-family="微软雅黑" text-anchor="middle" font-size="15px" width="100px" fill="#323232" font-weight="700" align="middle" lineHeight="125%" anchor="middle" family="微软雅黑" size="15px" weight="700" font-style="" opacity="1" y="12.625" transform="rotate(0)"><tspan id="SvgjsTspan1382" dy="18" x="60"><tspan id="SvgjsTspan1383" style="text-decoration:;">MustReply V1</tspan></tspan></text></g></g><g id="SvgjsG1384" transform="translate(779,343)"><path id="SvgjsPath1385" d="M 16.666666666666668 0L 103.33333333333333 0C 125.55555555555556 0 125.55555555555556 50 103.33333333333333 50L 16.666666666666668 50C -5.555555555555556 50 -5.555555555555556 0 16.666666666666668 0Z" stroke="rgba(50,50,50,1)" stroke-width="2" fill-opacity="1" fill="#ffffff"></path><g id="SvgjsG1386"><text id="SvgjsText1387" font-family="微软雅黑" text-anchor="middle" font-size="15px" width="100px" fill="#323232" font-weight="700" align="middle" lineHeight="125%" anchor="middle" family="微软雅黑" size="15px" weight="700" font-style="" opacity="1" y="12.625" transform="rotate(0)"><tspan id="SvgjsTspan1388" dy="18" x="60"><tspan id="SvgjsTspan1389" style="text-decoration:;">MustReply V3</tspan></tspan></text></g></g><g id="SvgjsG1390"><path id="SvgjsPath1391" d="M200 341L200 283.5L200 283.5L200 225" stroke="#323232" stroke-width="2" fill="none" marker-end="url(#SvgjsMarker1392)"></path></g><g id="SvgjsG1394" transform="translate(322,65)"><path id="SvgjsPath1395" d="M 16.666666666666668 0L 103.33333333333333 0C 125.55555555555556 0 125.55555555555556 50 103.33333333333333 50L 16.666666666666668 50C -5.555555555555556 50 -5.555555555555556 0 16.666666666666668 0Z" stroke="rgba(50,50,50,1)" stroke-width="2" fill-opacity="1" fill="#ffffff"></path><g id="SvgjsG1396"><text id="SvgjsText1397" font-family="微软雅黑" text-anchor="middle" font-size="15px" width="100px" fill="#323232" font-weight="700" align="middle" lineHeight="125%" anchor="middle" family="微软雅黑" size="15px" weight="700" font-style="" opacity="1" y="12.625" transform="rotate(0)"><tspan id="SvgjsTspan1398" dy="18" x="60"><tspan id="SvgjsTspan1399" style="text-decoration:;">BugFix</tspan></tspan></text></g></g><g id="SvgjsG1400"><path id="SvgjsPath1401" d="M382 116L382 167L382 167L382 219" stroke="#323232" stroke-width="2" fill="none" marker-end="url(#SvgjsMarker1402)"></path></g><g id="SvgjsG1404"><path id="SvgjsPath1405" d="M1073 116L1073 167.5L1073 167.5L1073 220" stroke="#323232" stroke-width="2" fill="none" marker-end="url(#SvgjsMarker1406)"></path></g><g id="SvgjsG1408" transform="translate(558,343)"><path id="SvgjsPath1409" d="M 16.666666666666668 0L 103.33333333333333 0C 125.55555555555556 0 125.55555555555556 50 103.33333333333333 50L 16.666666666666668 50C -5.555555555555556 50 -5.555555555555556 0 16.666666666666668 0Z" stroke="rgba(50,50,50,1)" stroke-width="2" fill-opacity="1" fill="#ffffff"></path><g id="SvgjsG1410"><text id="SvgjsText1411" font-family="微软雅黑" text-anchor="middle" font-size="15px" width="100px" fill="#323232" font-weight="700" align="middle" lineHeight="125%" anchor="middle" family="微软雅黑" size="15px" weight="700" font-style="" opacity="1" y="12.625" transform="rotate(0)"><tspan id="SvgjsTspan1412" dy="18" x="60"><tspan id="SvgjsTspan1413" style="text-decoration:;">MustReply V2</tspan></tspan></text></g></g><g id="SvgjsG1414"><path id="SvgjsPath1415" d="M618 342L618 284L618 284L618 225" stroke="#323232" stroke-width="2" fill="none" marker-end="url(#SvgjsMarker1416)"></path></g><g id="SvgjsG1418"><path id="SvgjsPath1419" d="M839 342L839 284L839 284L839 225" stroke="#323232" stroke-width="2" fill="none" marker-end="url(#SvgjsMarker1420)"></path></g><g id="SvgjsG1422" transform="translate(351,212)"><path id="SvgjsPath1423" d="M 0 10C 0 -3.3333333333333335 20 -3.3333333333333335 20 10C 20 23.333333333333332 0 23.333333333333332 0 10Z" stroke="rgba(244,67,54,1)" stroke-width="2" fill-opacity="1" fill="#f44336"></path><g id="SvgjsG1424"><text id="SvgjsText1425" font-family="微软雅黑" text-anchor="middle" font-size="13px" width="0px" fill="#323232" font-weight="400" align="middle" lineHeight="125%" anchor="middle" family="微软雅黑" size="13px" weight="400" font-style="" opacity="1" y="-0.625" transform="rotate(0)"></text></g></g><g id="SvgjsG1426" transform="translate(804.5,212)"><path id="SvgjsPath1427" d="M 0 10C 0 -3.3333333333333335 20 -3.3333333333333335 20 10C 20 23.333333333333332 0 23.333333333333332 0 10Z" stroke="rgba(244,67,54,1)" stroke-width="2" fill-opacity="1" fill="#f44336"></path><g id="SvgjsG1428"><text id="SvgjsText1429" font-family="微软雅黑" text-anchor="middle" font-size="13px" width="0px" fill="#323232" font-weight="400" align="middle" lineHeight="125%" anchor="middle" family="微软雅黑" size="13px" weight="400" font-style="" opacity="1" y="-0.625" transform="rotate(0)"></text></g></g><g id="SvgjsG1430" transform="translate(1004,212)"><path id="SvgjsPath1431" d="M 0 10C 0 -3.3333333333333335 20 -3.3333333333333335 20 10C 20 23.333333333333332 0 23.333333333333332 0 10Z" stroke="rgba(244,67,54,1)" stroke-width="2" fill-opacity="1" fill="#f44336"></path><g id="SvgjsG1432"><text id="SvgjsText1433" font-family="微软雅黑" text-anchor="middle" font-size="13px" width="0px" fill="#323232" font-weight="400" align="middle" lineHeight="125%" anchor="middle" family="微软雅黑" size="13px" weight="400" font-style="" opacity="1" y="-0.625" transform="rotate(0)"></text></g></g><g id="SvgjsG1434" transform="translate(501,212)"><path id="SvgjsPath1435" d="M 0 10C 0 -3.3333333333333335 20 -3.3333333333333335 20 10C 20 23.333333333333332 0 23.333333333333332 0 10Z" stroke="rgba(244,67,54,1)" stroke-width="2" fill-opacity="1" fill="#f44336"></path><g id="SvgjsG1436"><text id="SvgjsText1437" font-family="微软雅黑" text-anchor="middle" font-size="13px" width="0px" fill="#323232" font-weight="400" align="middle" lineHeight="125%" anchor="middle" family="微软雅黑" size="13px" weight="400" font-style="" opacity="1" y="-0.625" transform="rotate(0)"></text></g></g></svg>