<svg id="SvgjsSvg1006" width="1688" height="893" xmlns="http://www.w3.org/2000/svg" version="1.1" xmlns:xlink="http://www.w3.org/1999/xlink" xmlns:svgjs="http://svgjs.com/svgjs"><defs id="SvgjsDefs1007"><marker id="SvgjsMarker1058" markerWidth="14" markerHeight="10" refX="10" refY="5" viewBox="0 0 14 10" orient="auto" markerUnits="userSpaceOnUse" stroke-dasharray="0,0"><path id="SvgjsPath1059" d="M0,0 L14,5 L0,10 L0,0" fill="#323232" stroke="#323232" stroke-width="1"></path></marker><marker id="SvgjsMarker1084" markerWidth="14" markerHeight="10" refX="10" refY="5" viewBox="0 0 14 10" orient="auto" markerUnits="userSpaceOnUse" stroke-dasharray="0,0"><path id="SvgjsPath1085" d="M0,0 L14,5 L0,10 L0,0" fill="#323232" stroke="#323232" stroke-width="1"></path></marker><pattern id="SvgjsPattern1096" x="0" y="0" width="128" height="128" patternUnits="userSpaceOnUse"><image id="SvgjsImage1097" xlink:href="https://cdn1.processon.com/5c9f458de4b0ec8ff35ebb63?e=1553945501&amp;token=trhI0BY8QfVrIGn9nENop6JAc6l5nZuxhjQ62UfM:NJ8jr74vpnciyDl6ChQv9aF8md8=" width="128" height="128" preserveAspectRatio="none" crossOrigin="anonymous" x="0" y="0"></image></pattern><pattern id="SvgjsPattern1100" x="0" y="0" width="128" height="128" patternUnits="userSpaceOnUse"><image id="SvgjsImage1101" xlink:href="https://cdn1.processon.com/5c9f458de4b0ec8ff35ebb65?e=1553945501&amp;token=trhI0BY8QfVrIGn9nENop6JAc6l5nZuxhjQ62UfM:qvJQPuhTajFphUm2EecV3GQ8JWk=" width="128" height="128" preserveAspectRatio="none" crossOrigin="anonymous" x="0" y="0"></image></pattern><marker id="SvgjsMarker1104" markerWidth="14" markerHeight="10" refX="10" refY="5" viewBox="0 0 14 10" orient="auto" markerUnits="userSpaceOnUse" stroke-dasharray="0,0"><path id="SvgjsPath1105" d="M0,0 L14,5 L0,10 L0,0" fill="#323232" stroke="#323232" stroke-width="1"></path></marker><pattern id="SvgjsPattern1132" x="0" y="0" width="128" height="128" patternUnits="userSpaceOnUse"><image id="SvgjsImage1133" xlink:href="https://cdn1.processon.com/5c9f458de4b0ec8ff35ebb61?e=1553945501&amp;token=trhI0BY8QfVrIGn9nENop6JAc6l5nZuxhjQ62UfM:To7y6I5_hwq2jFsARlVOGXiP2pg=" width="128" height="128" preserveAspectRatio="none" crossOrigin="anonymous" x="0" y="0"></image></pattern><pattern id="SvgjsPattern1136" x="0" y="0" width="128" height="128" patternUnits="userSpaceOnUse"><image id="SvgjsImage1137" xlink:href="https://cdn1.processon.com/5c9f458de4b0ec8ff35ebb64?e=1553945501&amp;token=trhI0BY8QfVrIGn9nENop6JAc6l5nZuxhjQ62UfM:B_boS0GF_B79bBYkNWBVAmLKMxs=" width="128" height="128" preserveAspectRatio="none" crossOrigin="anonymous" x="0" y="0"></image></pattern><marker id="SvgjsMarker1140" markerWidth="14" markerHeight="10" refX="10" refY="5" viewBox="0 0 14 10" orient="auto" markerUnits="userSpaceOnUse" stroke-dasharray="0,0"><path id="SvgjsPath1141" d="M0,0 L14,5 L0,10 L0,0" fill="#323232" stroke="#323232" stroke-width="1"></path></marker><marker id="SvgjsMarker1144" markerWidth="14" markerHeight="10" refX="10" refY="5" viewBox="0 0 14 10" orient="auto" markerUnits="userSpaceOnUse" stroke-dasharray="0,0"><path id="SvgjsPath1145" d="M0,0 L14,5 L0,10 L0,0" fill="#323232" stroke="#323232" stroke-width="1"></path></marker><pattern id="SvgjsPattern1149" x="0" y="0" width="167" height="95" patternUnits="userSpaceOnUse"><image id="SvgjsImage1150" xlink:href="https://processon.com/images/designer/ios/keyboard.png" width="167" height="95" preserveAspectRatio="none" crossOrigin="anonymous" x="0" y="0"></image></pattern><marker id="SvgjsMarker1179" markerWidth="14" markerHeight="10" refX="10" refY="5" viewBox="0 0 14 10" orient="auto" markerUnits="userSpaceOnUse" stroke-dasharray="0,0"><path id="SvgjsPath1180" d="M0,0 L14,5 L0,10 L0,0" fill="#323232" stroke="#323232" stroke-width="1"></path></marker><pattern id="SvgjsPattern1183" x="0" y="0" width="128" height="128" patternUnits="userSpaceOnUse"><image id="SvgjsImage1184" xlink:href="https://cdn1.processon.com/5c9f4718e4b0cfb73421bfbb?e=1553945896&amp;token=trhI0BY8QfVrIGn9nENop6JAc6l5nZuxhjQ62UfM:ancJdV7rCKEyrowgrdjY-2zDPM4=" width="128" height="128" preserveAspectRatio="none" crossOrigin="anonymous" x="0" y="0"></image></pattern><pattern id="SvgjsPattern1187" x="0" y="0" width="128" height="128" patternUnits="userSpaceOnUse"><image id="SvgjsImage1188" xlink:href="https://cdn1.processon.com/5c9f4718e4b0cfb73421bfbc?e=1553945896&amp;token=trhI0BY8QfVrIGn9nENop6JAc6l5nZuxhjQ62UfM:5F6G8cL7GeT3HXYSw3_iOeiMTAM=" width="128" height="128" preserveAspectRatio="none" crossOrigin="anonymous" x="0" y="0"></image></pattern><pattern id="SvgjsPattern1205" x="0" y="0" width="180" height="140" patternUnits="userSpaceOnUse"><image id="SvgjsImage1206" xlink:href="https://processon.com/assets/images/designer/ui/close.png" width="20" height="20" preserveAspectRatio="none" crossOrigin="anonymous" x="155" y="8"></image></pattern><pattern id="SvgjsPattern1223" x="0" y="0" width="57" height="55.166666666666686" patternUnits="userSpaceOnUse"><image id="SvgjsImage1224" xlink:href="https://cdn1.processon.com/5c9f48b5e4b06765f07f2ab4?e=1553946309&amp;token=trhI0BY8QfVrIGn9nENop6JAc6l5nZuxhjQ62UfM:F4KAtjDI-vhCvmgpoDeMybdd0Mw=" width="57" height="55.166666666666686" preserveAspectRatio="none" crossOrigin="anonymous" x="0" y="0"></image></pattern><pattern id="SvgjsPattern1243" x="0" y="0" width="140" height="130" patternUnits="userSpaceOnUse"><image id="SvgjsImage1244" xlink:href="https://processon.com/assets/images/designer/network_aws/general/General_users.svg" width="140" height="130" preserveAspectRatio="none" crossOrigin="anonymous" x="0" y="0"></image></pattern><pattern id="SvgjsPattern1249" x="0" y="0" width="195" height="125.83333333333337" patternUnits="userSpaceOnUse"><image id="SvgjsImage1250" xlink:href="https://cdn.processon.com/5c9f5bdce4b035b243bc08ea?e=1553951212&amp;amp;token=trhI0BY8QfVrIGn9nENop6JAc6l5nZuxhjQ62UfM:rVdCZsIYEDnxLA4UCdPrUWn3bbc=" width="195" height="125.83333333333337" preserveAspectRatio="none" crossOrigin="anonymous" x="0" y="0"></image></pattern><pattern id="SvgjsPattern1253" x="0" y="0" width="130" height="130" patternUnits="userSpaceOnUse"><image id="SvgjsImage1254" xlink:href="https://processon.com/assets/images/designer/network_aws/networking/Networking_AmazonVPC_customergateway.svg" width="130" height="130" preserveAspectRatio="none" crossOrigin="anonymous" x="0" y="0"></image></pattern><marker id="SvgjsMarker1259" markerWidth="14" markerHeight="10" refX="10" refY="5" viewBox="0 0 14 10" orient="auto" markerUnits="userSpaceOnUse" stroke-dasharray="0,0"><path id="SvgjsPath1260" d="M0,0 L14,5 L0,10 L0,0" fill="#323232" stroke="#323232" stroke-width="1"></path></marker><marker id="SvgjsMarker1263" markerWidth="14" markerHeight="10" refX="10" refY="5" viewBox="0 0 14 10" orient="auto" markerUnits="userSpaceOnUse" stroke-dasharray="0,0"><path id="SvgjsPath1264" d="M0,0 L14,5 L0,10 L0,0" fill="#323232" stroke="#323232" stroke-width="1"></path></marker></defs><g id="SvgjsG1008" transform="translate(25,25)"><path id="SvgjsPath1009" d="M 0 0L 1638 0L 1638 843L 0 843Z" stroke="none" fill-opacity="1" fill="#ffffff"></path><g id="SvgjsG1010"><text id="SvgjsText1011" font-family="微软雅黑" text-anchor="middle" font-size="28px" width="1618px" fill="#323232" font-weight="700" align="top" lineHeight="125%" anchor="middle" family="微软雅黑" size="28px" weight="700" font-style="" opacity="1" y="-6.5" transform="rotate(0)"><tspan id="SvgjsTspan1012" dy="35" x="819"><tspan id="SvgjsTspan1013" style="text-decoration:;"> </tspan></tspan><tspan id="SvgjsTspan1014" dy="35" x="819"><tspan id="SvgjsTspan1015" style="text-decoration:;"> </tspan></tspan><tspan id="SvgjsTspan1016" dy="35" x="819"><tspan id="SvgjsTspan1017" style="text-decoration:;"> </tspan></tspan></text></g></g><g id="SvgjsG1018" transform="translate(688,97.66666666666663)"><path id="SvgjsPath1019" d="M 0 4Q 0 0 4 0L 296 0Q 300 0 300 4L 300 726Q 300 730 296 730L 4 730Q 0 730 0 726Z" stroke="rgba(50,50,50,1)" stroke-width="4" fill-opacity="1" fill="#ffffff"></path><g id="SvgjsG1020"><text id="SvgjsText1021" font-family="微软雅黑" text-anchor="middle" font-size="16px" width="280px" fill="#323232" font-weight="700" align="bottom" lineHeight="125%" anchor="middle" family="微软雅黑" size="16px" weight="700" font-style="" opacity="1" y="666" transform="rotate(0)"><tspan id="SvgjsTspan1022" dy="20" x="150"><tspan id="SvgjsTspan1023" style="text-decoration:;">IM服务端</tspan></tspan><tspan id="SvgjsTspan1024" dy="20" x="150"><tspan id="SvgjsTspan1025" style="text-decoration:;">(Server)</tspan></tspan><tspan id="SvgjsTspan1026" dy="20" x="150"><tspan id="SvgjsTspan1027" style="text-decoration:;"> </tspan></tspan></text></g></g><g id="SvgjsG1028" transform="translate(733,561.6666666666667)"><path id="SvgjsPath1029" d="M 0 4Q 0 0 4 0L 206 0Q 210 0 210 4L 210 176Q 210 180 206 180L 4 180Q 0 180 0 176Z" stroke="rgba(50,50,50,1)" stroke-width="2" fill-opacity="1" fill="#ffffff"></path><g id="SvgjsG1030"><text id="SvgjsText1031" font-family="微软雅黑" text-anchor="middle" font-size="13px" width="190px" fill="#323232" font-weight="700" align="bottom" lineHeight="125%" anchor="middle" family="微软雅黑" size="13px" weight="700" font-style="" opacity="1" y="144.375" transform="rotate(0)"><tspan id="SvgjsTspan1032" dy="16" x="105"><tspan id="SvgjsTspan1033" style="text-decoration:;">长连接服务：和各客户端连线</tspan></tspan><tspan id="SvgjsTspan1034" dy="16" x="105"><tspan id="SvgjsTspan1035" style="text-decoration:;"> </tspan></tspan></text></g></g><g id="SvgjsG1036" transform="translate(1154.333333333333,98)"><path id="SvgjsPath1037" d="M 0 4Q 0 0 4 0L 296 0Q 300 0 300 4L 300 726Q 300 730 296 730L 4 730Q 0 730 0 726Z" stroke="rgba(50,50,50,1)" stroke-width="4" fill-opacity="1" fill="#ffffff"></path><g id="SvgjsG1038"><text id="SvgjsText1039" font-family="微软雅黑" text-anchor="middle" font-size="16px" width="280px" fill="#323232" font-weight="700" align="bottom" lineHeight="125%" anchor="middle" family="微软雅黑" size="16px" weight="700" font-style="" opacity="1" y="666" transform="rotate(0)"><tspan id="SvgjsTspan1040" dy="20" x="150"><tspan id="SvgjsTspan1041" style="text-decoration:;">IM客户端</tspan></tspan><tspan id="SvgjsTspan1042" dy="20" x="150"><tspan id="SvgjsTspan1043" style="text-decoration:;">(iOS/Android/Windows/Mac)</tspan></tspan><tspan id="SvgjsTspan1044" dy="20" x="150"><tspan id="SvgjsTspan1045" style="text-decoration:;"> </tspan></tspan></text></g></g><g id="SvgjsG1046" transform="translate(218.0000000000001,97.66666666666666)"><path id="SvgjsPath1047" d="M 0 4Q 0 0 4 0L 296 0Q 300 0 300 4L 300 726Q 300 730 296 730L 4 730Q 0 730 0 726Z" stroke="rgba(50,50,50,1)" stroke-width="4" fill-opacity="1" fill="#ffffff"></path><g id="SvgjsG1048"><text id="SvgjsText1049" font-family="微软雅黑" text-anchor="middle" font-size="16px" width="280px" fill="#323232" font-weight="700" align="bottom" lineHeight="125%" anchor="middle" family="微软雅黑" size="16px" weight="700" font-style="" opacity="1" y="666" transform="rotate(0)"><tspan id="SvgjsTspan1050" dy="20" x="150"><tspan id="SvgjsTspan1051" style="text-decoration:;">IM客户端</tspan></tspan><tspan id="SvgjsTspan1052" dy="20" x="150"><tspan id="SvgjsTspan1053" style="text-decoration:;">(iOS/Android/Windows/Mac)</tspan></tspan><tspan id="SvgjsTspan1054" dy="20" x="150"><tspan id="SvgjsTspan1055" style="text-decoration:;"> </tspan></tspan></text></g></g><g id="SvgjsG1056"><path id="SvgjsPath1057" d="M200.33333333333334 220.22222222222223L231.16666666666674 220.22222222222223L231.16666666666674 220.16666666666669L259.4000000000001 220.16666666666669" stroke="#323232" stroke-width="2" fill="none" marker-end="url(#SvgjsMarker1058)"></path></g><g id="SvgjsG1060" transform="translate(263.0000000000001,125.16666666666663)"><path id="SvgjsPath1061" d="M 0 4Q 0 0 4 0L 206 0Q 210 0 210 4L 210 186Q 210 190 206 190L 4 190Q 0 190 0 186Z" stroke="rgba(50,50,50,1)" stroke-width="2" fill-opacity="1" fill="#ffffff"></path><g id="SvgjsG1062"><text id="SvgjsText1063" font-family="微软雅黑" text-anchor="middle" font-size="13px" width="190px" fill="#323232" font-weight="700" align="bottom" lineHeight="125%" anchor="middle" family="微软雅黑" size="13px" weight="700" font-style="" opacity="1" y="154.375" transform="rotate(0)"><tspan id="SvgjsTspan1064" dy="16" x="105"><tspan id="SvgjsTspan1065" style="text-decoration:;">界面模块：输入消息，点击发送</tspan></tspan><tspan id="SvgjsTspan1066" dy="16" x="105"><tspan id="SvgjsTspan1067" style="text-decoration:;"> </tspan></tspan></text></g></g><g id="SvgjsG1068" transform="translate(391.5,135.16666666666669)"><path id="SvgjsPath1069" d="M 0 4Q 0 0 4 0L 56 0Q 60 0 60 4L 60 28Q 60 32 56 32L 4 32Q 0 32 0 28Z" stroke="rgba(50,50,50,1)" stroke-width="1" fill-opacity="1" fill="#ffffff"></path><g id="SvgjsG1070"><text id="SvgjsText1071" font-family="微软雅黑" text-anchor="middle" font-size="16px" width="40px" fill="#227ce7" font-weight="700" align="middle" lineHeight="125%" anchor="middle" family="微软雅黑" size="16px" weight="700" font-style="" opacity="1" y="2" transform="rotate(0)"><tspan id="SvgjsTspan1072" dy="20" x="30"><tspan id="SvgjsTspan1073" style="text-decoration:;">发送</tspan></tspan></text></g></g><g id="SvgjsG1074" transform="translate(263.0000000000001,345.6666666666667)"><path id="SvgjsPath1075" d="M 0 4Q 0 0 4 0L 206 0Q 210 0 210 4L 210 176Q 210 180 206 180L 4 180Q 0 180 0 176Z" stroke="rgba(50,50,50,1)" stroke-width="2" fill-opacity="1" fill="#ffffff"></path><g id="SvgjsG1076"><text id="SvgjsText1077" font-family="微软雅黑" text-anchor="middle" font-size="13px" width="190px" fill="#323232" font-weight="700" align="bottom" lineHeight="125%" anchor="middle" family="微软雅黑" size="13px" weight="700" font-style="" opacity="1" y="144.375" transform="rotate(0)"><tspan id="SvgjsTspan1078" dy="16" x="105"><tspan id="SvgjsTspan1079" style="text-decoration:;">数据模块：消息打包存档</tspan></tspan><tspan id="SvgjsTspan1080" dy="16" x="105"><tspan id="SvgjsTspan1081" style="text-decoration:;"> </tspan></tspan></text></g></g><g id="SvgjsG1082"><path id="SvgjsPath1083" d="M368.00000000000006 316.1666666666667L368.00000000000006 330.4166666666667L368 330.4166666666667L368 342.06666666666666" stroke="#323232" stroke-width="2" fill="none" marker-end="url(#SvgjsMarker1084)"></path></g><g id="SvgjsG1086" transform="translate(263,561.6666666666666)"><path id="SvgjsPath1087" d="M 0 4Q 0 0 4 0L 206 0Q 210 0 210 4L 210 176Q 210 180 206 180L 4 180Q 0 180 0 176Z" stroke="rgba(50,50,50,1)" stroke-width="2" fill-opacity="1" fill="#ffffff"></path><g id="SvgjsG1088"><text id="SvgjsText1089" font-family="微软雅黑" text-anchor="middle" font-size="13px" width="190px" fill="#323232" font-weight="700" align="bottom" lineHeight="125%" anchor="middle" family="微软雅黑" size="13px" weight="700" font-style="" opacity="1" y="144.375" transform="rotate(0)"><tspan id="SvgjsTspan1090" dy="16" x="105"><tspan id="SvgjsTspan1091" style="text-decoration:;">网络模块：投送消息到服务端</tspan></tspan><tspan id="SvgjsTspan1092" dy="16" x="105"><tspan id="SvgjsTspan1093" style="text-decoration:;"> </tspan></tspan></text></g></g><g id="SvgjsG1094" transform="translate(304,572.6666666666666)"><path id="SvgjsPath1095" d="M 0 0L 128 0L 128 128L 0 128Z" stroke="none" fill="url(#SvgjsPattern1096)" opacity="1"></path></g><g id="SvgjsG1098" transform="translate(304.00000000000006,356.1666666666667)"><path id="SvgjsPath1099" d="M 0 0L 128 0L 128 128L 0 128Z" stroke="none" fill="url(#SvgjsPattern1100)" opacity="1"></path></g><g id="SvgjsG1102"><path id="SvgjsPath1103" d="M368 526.6666666666666L368 543.6666666666666L367.99999999999994 543.6666666666666L367.99999999999994 558.0666666666666" stroke="#323232" stroke-width="2" fill="none" marker-end="url(#SvgjsMarker1104)"></path></g><g id="SvgjsG1106" transform="translate(1199.333333333333,126.16666666666663)"><path id="SvgjsPath1107" d="M 0 4Q 0 0 4 0L 206 0Q 210 0 210 4L 210 186Q 210 190 206 190L 4 190Q 0 190 0 186Z" stroke="rgba(50,50,50,1)" stroke-width="2" fill-opacity="1" fill="#ffffff"></path><g id="SvgjsG1108"><text id="SvgjsText1109" font-family="微软雅黑" text-anchor="middle" font-size="13px" width="190px" fill="#323232" font-weight="700" align="bottom" lineHeight="125%" anchor="middle" family="微软雅黑" size="13px" weight="700" font-style="" opacity="1" y="154.375" transform="rotate(0)"><tspan id="SvgjsTspan1110" dy="16" x="105"><tspan id="SvgjsTspan1111" style="text-decoration:;">界面模块：展示消息</tspan></tspan><tspan id="SvgjsTspan1112" dy="16" x="105"><tspan id="SvgjsTspan1113" style="text-decoration:;"> </tspan></tspan></text></g></g><g id="SvgjsG1114" transform="translate(1199.333333333333,345.6666666666667)"><path id="SvgjsPath1115" d="M 0 4Q 0 0 4 0L 206 0Q 210 0 210 4L 210 176Q 210 180 206 180L 4 180Q 0 180 0 176Z" stroke="rgba(50,50,50,1)" stroke-width="2" fill-opacity="1" fill="#ffffff"></path><g id="SvgjsG1116"><text id="SvgjsText1117" font-family="微软雅黑" text-anchor="middle" font-size="13px" width="190px" fill="#323232" font-weight="700" align="bottom" lineHeight="125%" anchor="middle" family="微软雅黑" size="13px" weight="700" font-style="" opacity="1" y="144.375" transform="rotate(0)"><tspan id="SvgjsTspan1118" dy="16" x="105"><tspan id="SvgjsTspan1119" style="text-decoration:;">数据模块：消息拆包取出</tspan></tspan><tspan id="SvgjsTspan1120" dy="16" x="105"><tspan id="SvgjsTspan1121" style="text-decoration:;"> </tspan></tspan></text></g></g><g id="SvgjsG1122" transform="translate(1199.333333333333,561.6666666666666)"><path id="SvgjsPath1123" d="M 0 4Q 0 0 4 0L 206 0Q 210 0 210 4L 210 176Q 210 180 206 180L 4 180Q 0 180 0 176Z" stroke="rgba(50,50,50,1)" stroke-width="2" fill-opacity="1" fill="#ffffff"></path><g id="SvgjsG1124"><text id="SvgjsText1125" font-family="微软雅黑" text-anchor="middle" font-size="13px" width="190px" fill="#323232" font-weight="700" align="bottom" lineHeight="125%" anchor="middle" family="微软雅黑" size="13px" weight="700" font-style="" opacity="1" y="144.375" transform="rotate(0)"><tspan id="SvgjsTspan1126" dy="16" x="105"><tspan id="SvgjsTspan1127" style="text-decoration:;">网络模块：接收服务端消息</tspan></tspan><tspan id="SvgjsTspan1128" dy="16" x="105"><tspan id="SvgjsTspan1129" style="text-decoration:;"> </tspan></tspan></text></g></g><g id="SvgjsG1130" transform="translate(1240.333333333333,572.6666666666666)"><path id="SvgjsPath1131" d="M 0 0L 128 0L 128 128L 0 128Z" stroke="none" fill="url(#SvgjsPattern1132)" opacity="1"></path></g><g id="SvgjsG1134" transform="translate(1240.333333333333,356.1666666666667)"><path id="SvgjsPath1135" d="M 0 0L 128 0L 128 128L 0 128Z" stroke="none" fill="url(#SvgjsPattern1136)" opacity="1"></path></g><g id="SvgjsG1138"><path id="SvgjsPath1139" d="M1304.333333333333 560.6666666666666L1304.333333333333 543.6666666666666L1304.333333333333 543.6666666666666L1304.333333333333 529.2666666666667" stroke="#323232" stroke-width="2" fill="none" marker-end="url(#SvgjsMarker1140)"></path></g><g id="SvgjsG1142"><path id="SvgjsPath1143" d="M1304.333333333333 344.6666666666667L1304.333333333333 330.9166666666667L1304.333333333333 330.9166666666667L1304.333333333333 319.7666666666667" stroke="#323232" stroke-width="2" fill="none" marker-end="url(#SvgjsMarker1144)"></path></g><g id="SvgjsG1146" transform="translate(284.5000000000001,173.66666666666669)"><path id="SvgjsPath1147" d="M 0 0L 167 0L 167 95L 0 95Z" stroke="none" fill-opacity="0.6" fill="#f7f7f7"></path><path id="SvgjsPath1148" d="M 0 0L 167 0L 167 95L 0 95Z" stroke="none" fill="url(#SvgjsPattern1149)" opacity="1"></path></g><g id="SvgjsG1151" transform="translate(1319.333333333333,352.6666666666667)"><path id="SvgjsPath1152" d="M 0 0L 78.83333333333326 0L 78.83333333333326 42L 0 42Z" stroke="rgba(50,50,50,1)" stroke-width="2" fill-opacity="1" fill="#ffffff"></path><path id="SvgjsPath1153" d="M 0 0L 39.41666666666663 21M 78.83333333333326 0L 39.41666666666663 21" stroke="rgba(50,50,50,1)" stroke-width="2" fill-opacity="1" fill="#ffffff"></path><path id="SvgjsPath1154" d="M 0 0L 78.83333333333326 0L 78.83333333333326 42L 0 42Z" stroke="none" fill="none"></path><g id="SvgjsG1155"><text id="SvgjsText1156" font-family="微软雅黑" text-anchor="middle" font-size="14px" width="59px" fill="#323232" font-weight="700" align="middle" lineHeight="125%" anchor="middle" family="微软雅黑" size="14px" weight="700" font-style="" opacity="1" y="0.75" transform="rotate(0)"><tspan id="SvgjsTspan1157" dy="17" x="39.5"><tspan id="SvgjsTspan1158" style="text-decoration:;"> </tspan></tspan><tspan id="SvgjsTspan1159" dy="17" x="39.5"><tspan id="SvgjsTspan1160" style="text-decoration:;">Hello!</tspan></tspan></text></g></g><g id="SvgjsG1161" transform="translate(284.5000000000001,135.5)"><path id="SvgjsPath1162" d="M 0 4Q 0 0 4 0L 96 0Q 100 0 100 4L 100 28Q 100 32 96 32L 4 32Q 0 32 0 28Z" stroke="none" fill-opacity="1" fill="#d7d8da"></path><g id="SvgjsG1163"><text id="SvgjsText1164" font-family="微软雅黑" text-anchor="start" font-size="14px" width="80px" fill="#505050" font-weight="700" align="middle" lineHeight="125%" anchor="start" family="微软雅黑" size="14px" weight="700" font-style="" opacity="1" y="4.25" transform="rotate(0)"><tspan id="SvgjsTspan1165" dy="17" x="10"><tspan id="SvgjsTspan1166" style="text-decoration:;">Hello!</tspan></tspan></text></g></g><g id="SvgjsG1167" transform="translate(384.5,352.6666666666667)"><path id="SvgjsPath1168" d="M 0 0L 78.83333333333326 0L 78.83333333333326 42L 0 42Z" stroke="rgba(50,50,50,1)" stroke-width="2" fill-opacity="1" fill="#ffffff"></path><path id="SvgjsPath1169" d="M 0 0L 39.41666666666663 21M 78.83333333333326 0L 39.41666666666663 21" stroke="rgba(50,50,50,1)" stroke-width="2" fill-opacity="1" fill="#ffffff"></path><path id="SvgjsPath1170" d="M 0 0L 78.83333333333326 0L 78.83333333333326 42L 0 42Z" stroke="none" fill="none"></path><g id="SvgjsG1171"><text id="SvgjsText1172" font-family="微软雅黑" text-anchor="middle" font-size="14px" width="59px" fill="#323232" font-weight="700" align="middle" lineHeight="125%" anchor="middle" family="微软雅黑" size="14px" weight="700" font-style="" opacity="1" y="0.75" transform="rotate(0)"><tspan id="SvgjsTspan1173" dy="17" x="39.5"><tspan id="SvgjsTspan1174" style="text-decoration:;"> </tspan></tspan><tspan id="SvgjsTspan1175" dy="17" x="39.5"><tspan id="SvgjsTspan1176" style="text-decoration:;">Hello!</tspan></tspan></text></g></g><g id="SvgjsG1177"><path id="SvgjsPath1178" d="M1410.333333333333 221.16666666666669L1451.333333333333 221.16666666666669L1451.333333333333 220.66666666666669L1493.333333333333 220.66666666666669" stroke="#323232" stroke-width="2" fill="none" marker-end="url(#SvgjsMarker1179)"></path></g><g id="SvgjsG1181" transform="translate(1494.333333333331,156.22222222222223)"><path id="SvgjsPath1182" d="M 0 0L 128 0L 128 128L 0 128Z" stroke="none" fill="url(#SvgjsPattern1183)" opacity="1"></path></g><g id="SvgjsG1185" transform="translate(71.33333333333334,156.22222222222223)"><path id="SvgjsPath1186" d="M 0 0L 128 0L 128 128L 0 128Z" stroke="none" fill="url(#SvgjsPattern1187)" opacity="1"></path></g><g id="SvgjsG1189" transform="translate(106.83333333333337,284.22222222222223)"><path id="SvgjsPath1190" d="M 0 0L 56.999999999999964 0L 56.999999999999964 28.444444444444457L 0 28.444444444444457Z" stroke="none" fill="none"></path><g id="SvgjsG1191"><text id="SvgjsText1192" font-family="微软雅黑" text-anchor="middle" font-size="14px" width="57px" fill="#323232" font-weight="700" align="middle" lineHeight="125%" anchor="middle" family="微软雅黑" size="14px" weight="700" font-style="" opacity="1" y="2.4722222222222285" transform="rotate(0)"><tspan id="SvgjsTspan1193" dy="17" x="28.5"><tspan id="SvgjsTspan1194" style="text-decoration:;">李雷</tspan></tspan></text></g></g><g id="SvgjsG1195" transform="translate(1529.833333333331,294.22222222222223)"><path id="SvgjsPath1196" d="M 0 0L 56.999999999999964 0L 56.999999999999964 28.444444444444457L 0 28.444444444444457Z" stroke="none" fill="none"></path><g id="SvgjsG1197"><text id="SvgjsText1198" font-family="微软雅黑" text-anchor="middle" font-size="14px" width="57px" fill="#323232" font-weight="700" align="middle" lineHeight="125%" anchor="middle" family="微软雅黑" size="14px" weight="700" font-style="" opacity="1" y="2.4722222222222285" transform="rotate(0)"><tspan id="SvgjsTspan1199" dy="17" x="28.5"><tspan id="SvgjsTspan1200" style="text-decoration:;">韩梅梅</tspan></tspan></text></g></g><g id="SvgjsG1201" transform="translate(1214.333333333333,138.16666666666669)"><path id="SvgjsPath1202" d="M 0 0L 180 0L 180 140L 0 140Z" stroke="rgba(136,136,136,1)" stroke-width="2" fill-opacity="1" fill="#ffffff"></path><path id="SvgjsPath1203" d="M 0 0L 180 0L 180 35L 0 35Z" stroke="rgba(136,136,136,1)" stroke-width="2" fill-opacity="1" fill="#ebebeb"></path><path id="SvgjsPath1204" d="M 0 0L 180 0L 180 140L 0 140Z" stroke="none" fill="url(#SvgjsPattern1205)" opacity="1"></path><g id="SvgjsG1207"><text id="SvgjsText1208" font-family="微软雅黑" text-anchor="middle" font-size="14px" width="140px" fill="#323232" font-weight="400" align="middle" lineHeight="125%" anchor="middle" family="微软雅黑" size="14px" weight="400" font-style="" opacity="1" y="5.75" transform="rotate(0)"><tspan id="SvgjsTspan1209" dy="17" x="80"><tspan id="SvgjsTspan1210" style="text-decoration:;">李雷</tspan></tspan></text></g><g id="SvgjsG1211"><text id="SvgjsText1212" font-family="微软雅黑" text-anchor="middle" font-size="14px" width="160px" fill="#323232" font-weight="400" align="middle" lineHeight="125%" anchor="middle" family="微软雅黑" size="14px" weight="400" font-style="" opacity="1" y="75.75" transform="rotate(0)"><tspan id="SvgjsTspan1213" dy="17" x="90"><tspan id="SvgjsTspan1214" style="text-decoration:;"> </tspan></tspan></text></g></g><g id="SvgjsG1215" transform="translate(1290.833333333333,192.75000000000006)"><path id="SvgjsPath1216" d="M 0 4Q 0 0 4 0L 76 0Q 80 0 80 4L 80 28Q 80 32 76 32L 4 32Q 0 32 0 28Z" stroke="rgba(50,50,50,1)" stroke-width="2" fill-opacity="1" fill="#ffffff"></path><g id="SvgjsG1217"><text id="SvgjsText1218" font-family="微软雅黑" text-anchor="middle" font-size="14px" width="60px" fill="#323232" font-weight="700" align="middle" lineHeight="125%" anchor="middle" family="微软雅黑" size="14px" weight="700" font-style="" opacity="1" y="4.25" transform="rotate(0)"><tspan id="SvgjsTspan1219" dy="17" x="40"><tspan id="SvgjsTspan1220" style="text-decoration:;">Hello!</tspan></tspan></text></g></g><g id="SvgjsG1221" transform="translate(1219.833333333333,181.16666666666669)"><path id="SvgjsPath1222" d="M 0 0L 57 0L 57 55.166666666666686L 0 55.166666666666686Z" stroke="none" fill="url(#SvgjsPattern1223)" opacity="1"></path></g><g id="SvgjsG1225" transform="translate(733,345.66666666666674)"><path id="SvgjsPath1226" d="M 0 4Q 0 0 4 0L 206 0Q 210 0 210 4L 210 176Q 210 180 206 180L 4 180Q 0 180 0 176Z" stroke="rgba(50,50,50,1)" stroke-width="2" fill-opacity="1" fill="#ffffff"></path><g id="SvgjsG1227"><text id="SvgjsText1228" font-family="微软雅黑" text-anchor="middle" font-size="13px" width="190px" fill="#323232" font-weight="700" align="bottom" lineHeight="125%" anchor="middle" family="微软雅黑" size="13px" weight="700" font-style="" opacity="1" y="144.375" transform="rotate(0)"><tspan id="SvgjsTspan1229" dy="16" x="105"><tspan id="SvgjsTspan1230" style="text-decoration:;">群组服务：用户和群管理</tspan></tspan><tspan id="SvgjsTspan1231" dy="16" x="105"><tspan id="SvgjsTspan1232" style="text-decoration:;"> </tspan></tspan></text></g></g><g id="SvgjsG1233" transform="translate(733,126.16666666666663)"><path id="SvgjsPath1234" d="M 0 4Q 0 0 4 0L 206 0Q 210 0 210 4L 210 176Q 210 180 206 180L 4 180Q 0 180 0 176Z" stroke="rgba(50,50,50,1)" stroke-width="2" fill-opacity="1" fill="#ffffff"></path><g id="SvgjsG1235"><text id="SvgjsText1236" font-family="微软雅黑" text-anchor="middle" font-size="13px" width="190px" fill="#323232" font-weight="700" align="bottom" lineHeight="125%" anchor="middle" family="微软雅黑" size="13px" weight="700" font-style="" opacity="1" y="144.375" transform="rotate(0)"><tspan id="SvgjsTspan1237" dy="16" x="105"><tspan id="SvgjsTspan1238" style="text-decoration:;">消息服务：消息存储</tspan></tspan><tspan id="SvgjsTspan1239" dy="16" x="105"><tspan id="SvgjsTspan1240" style="text-decoration:;"> </tspan></tspan></text></g></g><g id="SvgjsG1241" transform="translate(768,355.16666666666674)"><path id="SvgjsPath1242" d="M 0 0L 140 0L 140 130L 0 130Z" stroke="none" fill="url(#SvgjsPattern1243)" opacity="1"></path><g id="SvgjsG1245"><text id="SvgjsText1246" font-family="微软雅黑" text-anchor="middle" font-size="13px" width="180px" fill="#323232" font-weight="400" align="middle" lineHeight="125%" anchor="middle" family="微软雅黑" size="13px" weight="400" font-style="" opacity="1" y="134.375" transform="rotate(0)"></text></g></g><g id="SvgjsG1247" transform="translate(740.5,136.16666666666663)"><path id="SvgjsPath1248" d="M 0 0L 195 0L 195 125.83333333333337L 0 125.83333333333337Z" stroke="none" fill="url(#SvgjsPattern1249)" opacity="1"></path></g><g id="SvgjsG1251" transform="translate(773,571.6666666666666)"><path id="SvgjsPath1252" d="M 0 0L 130 0L 130 130L 0 130Z" stroke="none" fill="url(#SvgjsPattern1253)" opacity="1"></path><g id="SvgjsG1255"><text id="SvgjsText1256" font-family="微软雅黑" text-anchor="middle" font-size="13px" width="170px" fill="#323232" font-weight="400" align="middle" lineHeight="125%" anchor="middle" family="微软雅黑" size="13px" weight="400" font-style="" opacity="1" y="134.375" transform="rotate(0)"></text></g></g><g id="SvgjsG1257"><path id="SvgjsPath1258" d="M474 651.6666666666666L603 651.6666666666666L603 651.6666666666667L729.4 651.6666666666667" stroke="#323232" stroke-width="2" fill="none" marker-end="url(#SvgjsMarker1259)"></path></g><g id="SvgjsG1261"><path id="SvgjsPath1262" d="M944 651.6666666666667L1071.1666666666665 651.6666666666667L1071.1666666666665 651.6666666666666L1195.7333333333331 651.6666666666666" stroke="#323232" stroke-width="2" fill="none" marker-end="url(#SvgjsMarker1263)"></path></g></svg>