<svg id="SvgjsSvg1006" width="784" height="638" xmlns="http://www.w3.org/2000/svg" version="1.1" xmlns:xlink="http://www.w3.org/1999/xlink" xmlns:svgjs="http://svgjs.com/svgjs"><defs id="SvgjsDefs1007"><marker id="SvgjsMarker1098" markerWidth="14" markerHeight="10" refX="10" refY="5" viewBox="0 0 14 10" orient="auto" markerUnits="userSpaceOnUse" stroke-dasharray="0,0"><path id="SvgjsPath1099" d="M0,0 L14,5 L0,10 L0,0" fill="#323232" stroke="#323232" stroke-width="1"></path></marker><marker id="SvgjsMarker1102" markerWidth="14" markerHeight="10" refX="10" refY="5" viewBox="0 0 14 10" orient="auto" markerUnits="userSpaceOnUse" stroke-dasharray="0,0"><path id="SvgjsPath1103" d="M0,0 L14,5 L0,10 L0,0" fill="#323232" stroke="#323232" stroke-width="1"></path></marker><marker id="SvgjsMarker1106" markerWidth="14" markerHeight="10" refX="10" refY="5" viewBox="0 0 14 10" orient="auto" markerUnits="userSpaceOnUse" stroke-dasharray="0,0"><path id="SvgjsPath1107" d="M0,0 L14,5 L0,10 L0,0" fill="#323232" stroke="#323232" stroke-width="1"></path></marker><marker id="SvgjsMarker1110" markerWidth="14" markerHeight="10" refX="10" refY="5" viewBox="0 0 14 10" orient="auto" markerUnits="userSpaceOnUse" stroke-dasharray="0,0"><path id="SvgjsPath1111" d="M0,0 L14,5 L0,10 L0,0" fill="#323232" stroke="#323232" stroke-width="1"></path></marker><marker id="SvgjsMarker1114" markerWidth="14" markerHeight="10" refX="10" refY="5" viewBox="0 0 14 10" orient="auto" markerUnits="userSpaceOnUse" stroke-dasharray="0,0"><path id="SvgjsPath1115" d="M0,0 L14,5 L0,10 L0,0" fill="#323232" stroke="#323232" stroke-width="1"></path></marker><marker id="SvgjsMarker1118" markerWidth="14" markerHeight="10" refX="10" refY="5" viewBox="0 0 14 10" orient="auto" markerUnits="userSpaceOnUse" stroke-dasharray="0,0"><path id="SvgjsPath1119" d="M0,0 L14,5 L0,10 L0,0" fill="#323232" stroke="#323232" stroke-width="1"></path></marker><marker id="SvgjsMarker1122" markerWidth="14" markerHeight="10" refX="10" refY="5" viewBox="0 0 14 10" orient="auto" markerUnits="userSpaceOnUse" stroke-dasharray="0,0"><path id="SvgjsPath1123" d="M0,0 L14,5 L0,10 L0,0" fill="#323232" stroke="#323232" stroke-width="1"></path></marker><marker id="SvgjsMarker1150" markerWidth="14" markerHeight="10" refX="10" refY="5" viewBox="0 0 14 10" orient="auto" markerUnits="userSpaceOnUse" stroke-dasharray="0,0"><path id="SvgjsPath1151" d="M0,0 L14,5 L0,10 L0,0" fill="#323232" stroke="#323232" stroke-width="1"></path></marker><marker id="SvgjsMarker1158" markerWidth="14" markerHeight="10" refX="10" refY="5" viewBox="0 0 14 10" orient="auto" markerUnits="userSpaceOnUse" stroke-dasharray="0,0"><path id="SvgjsPath1159" d="M0,0 L14,5 L0,10 L0,0" fill="#323232" stroke="#323232" stroke-width="1"></path></marker><marker id="SvgjsMarker1166" markerWidth="14" markerHeight="10" refX="10" refY="5" viewBox="0 0 14 10" orient="auto" markerUnits="userSpaceOnUse" stroke-dasharray="0,0"><path id="SvgjsPath1167" d="M0,0 L14,5 L0,10 L0,0" fill="#323232" stroke="#323232" stroke-width="1"></path></marker><marker id="SvgjsMarker1174" markerWidth="14" markerHeight="10" refX="10" refY="5" viewBox="0 0 14 10" orient="auto" markerUnits="userSpaceOnUse" stroke-dasharray="0,0"><path id="SvgjsPath1175" d="M0,0 L14,5 L0,10 L0,0" fill="#323232" stroke="#323232" stroke-width="1"></path></marker><marker id="SvgjsMarker1182" markerWidth="14" markerHeight="10" refX="10" refY="5" viewBox="0 0 14 10" orient="auto" markerUnits="userSpaceOnUse" stroke-dasharray="0,0"><path id="SvgjsPath1183" d="M0,0 L14,5 L0,10 L0,0" fill="#323232" stroke="#323232" stroke-width="1"></path></marker><marker id="SvgjsMarker1190" markerWidth="14" markerHeight="10" refX="10" refY="5" viewBox="0 0 14 10" orient="auto" markerUnits="userSpaceOnUse" stroke-dasharray="0,0"><path id="SvgjsPath1191" d="M0,0 L14,5 L0,10 L0,0" fill="#323232" stroke="#323232" stroke-width="1"></path></marker><marker id="SvgjsMarker1206" markerWidth="14" markerHeight="10" refX="10" refY="5" viewBox="0 0 14 10" orient="auto" markerUnits="userSpaceOnUse" stroke-dasharray="0,0"><path id="SvgjsPath1207" d="M0,0 L14,5 L0,10 L0,0" fill="#323232" stroke="#323232" stroke-width="1"></path></marker><marker id="SvgjsMarker1214" markerWidth="14" markerHeight="10" refX="10" refY="5" viewBox="0 0 14 10" orient="auto" markerUnits="userSpaceOnUse" stroke-dasharray="0,0"><path id="SvgjsPath1215" d="M0,0 L14,5 L0,10 L0,0" fill="#323232" stroke="#323232" stroke-width="1"></path></marker></defs><g id="SvgjsG1008" transform="translate(25,25)"><path id="SvgjsPath1009" d="M 0 0L 734 0L 734 588L 0 588Z" stroke="none" fill-opacity="1" fill="#ffffff"></path><g id="SvgjsG1010"><text id="SvgjsText1011" font-family="微软雅黑" text-anchor="middle" font-size="26px" width="714px" fill="#323232" font-weight="700" align="top" lineHeight="125%" anchor="middle" family="微软雅黑" size="26px" weight="700" font-style="" opacity="1" y="-6.25" transform="rotate(0)"><tspan id="SvgjsTspan1012" dy="32" x="367"><tspan id="SvgjsTspan1013" style="text-decoration:;"> </tspan></tspan><tspan id="SvgjsTspan1014" dy="32" x="367"><tspan id="SvgjsTspan1015" style="text-decoration:;"> </tspan></tspan></text></g></g><g id="SvgjsG1016" transform="translate(264,405)"><path id="SvgjsPath1017" d="M 0 0L 459.5 0L 459.5 96L 0 96Z" stroke="none" fill-opacity="1" fill="#f5f5f5"></path><g id="SvgjsG1018"><text id="SvgjsText1019" font-family="微软雅黑" text-anchor="start" font-size="20px" width="440px" fill="#323232" font-weight="700" align="middle" lineHeight="125%" anchor="start" family="微软雅黑" size="20px" weight="700" font-style="" opacity="1" y="30" transform="rotate(0)"><tspan id="SvgjsTspan1020" dy="25" x="10"><tspan id="SvgjsTspan1021" style="text-decoration:;">App 2</tspan></tspan></text></g></g><g id="SvgjsG1022" transform="translate(75,142)"><path id="SvgjsPath1023" d="M 0 0L 580 0L 580 100L 0 100Z" stroke="none" fill-opacity="1" fill="#f5f5f5"></path><g id="SvgjsG1024"><text id="SvgjsText1025" font-family="微软雅黑" text-anchor="start" font-size="20px" width="560px" fill="#323232" font-weight="700" align="middle" lineHeight="125%" anchor="start" family="微软雅黑" size="20px" weight="700" font-style="" opacity="1" y="32" transform="rotate(0)"><tspan id="SvgjsTspan1026" dy="25" x="10"><tspan id="SvgjsTspan1027" style="text-decoration:;">App 1</tspan></tspan></text></g></g><g id="SvgjsG1028" transform="translate(293.5,163)"><path id="SvgjsPath1029" d="M 0 35C 0 -11.666666666666666 70 -11.666666666666666 70 35C 70 81.66666666666667 0 81.66666666666667 0 35Z" stroke="rgba(50,50,50,1)" stroke-width="2" fill-opacity="1" fill="#e0e0e0"></path><g id="SvgjsG1030"><text id="SvgjsText1031" font-family="微软雅黑" text-anchor="middle" font-size="14px" width="50px" fill="#323232" font-weight="700" align="middle" lineHeight="125%" anchor="middle" family="微软雅黑" size="14px" weight="700" font-style="" opacity="1" y="14.75" transform="rotate(0)"><tspan id="SvgjsTspan1032" dy="17" x="35"><tspan id="SvgjsTspan1033" style="text-decoration:;">App 1 </tspan></tspan><tspan id="SvgjsTspan1034" dy="17" x="35"><tspan id="SvgjsTspan1035" style="text-decoration:;">V1.6.2</tspan></tspan></text></g></g><g id="SvgjsG1036" transform="translate(575,163)"><path id="SvgjsPath1037" d="M 0 35C 0 -11.666666666666666 70 -11.666666666666666 70 35C 70 81.66666666666667 0 81.66666666666667 0 35Z" stroke="rgba(50,50,50,1)" stroke-width="2" fill-opacity="1" fill="#e57373"></path><g id="SvgjsG1038"><text id="SvgjsText1039" font-family="微软雅黑" text-anchor="middle" font-size="14px" width="50px" fill="#323232" font-weight="700" align="middle" lineHeight="125%" anchor="middle" family="微软雅黑" size="14px" weight="700" font-style="" opacity="1" y="14.75" transform="rotate(0)"><tspan id="SvgjsTspan1040" dy="17" x="35"><tspan id="SvgjsTspan1041" style="text-decoration:;">App 1 </tspan></tspan><tspan id="SvgjsTspan1042" dy="17" x="35"><tspan id="SvgjsTspan1043" style="text-decoration:;">V3.8.0</tspan></tspan></text></g></g><g id="SvgjsG1044" transform="translate(152,163)"><path id="SvgjsPath1045" d="M 0 35C 0 -11.666666666666666 70 -11.666666666666666 70 35C 70 81.66666666666667 0 81.66666666666667 0 35Z" stroke="rgba(50,50,50,1)" stroke-width="2" fill-opacity="1" fill="#e0e0e0"></path><g id="SvgjsG1046"><text id="SvgjsText1047" font-family="微软雅黑" text-anchor="middle" font-size="14px" width="50px" fill="#323232" font-weight="700" align="middle" lineHeight="125%" anchor="middle" family="微软雅黑" size="14px" weight="700" font-style="" opacity="1" y="14.75" transform="rotate(0)"><tspan id="SvgjsTspan1048" dy="17" x="35"><tspan id="SvgjsTspan1049" style="text-decoration:;">App 1 </tspan></tspan><tspan id="SvgjsTspan1050" dy="17" x="35"><tspan id="SvgjsTspan1051" style="text-decoration:;">V1.6.0</tspan></tspan></text></g></g><g id="SvgjsG1052" transform="translate(435,163)"><path id="SvgjsPath1053" d="M 0 35C 0 -11.666666666666666 70 -11.666666666666666 70 35C 70 81.66666666666667 0 81.66666666666667 0 35Z" stroke="rgba(50,50,50,1)" stroke-width="2" fill-opacity="1" fill="#81c784"></path><g id="SvgjsG1054"><text id="SvgjsText1055" font-family="微软雅黑" text-anchor="middle" font-size="14px" width="50px" fill="#323232" font-weight="700" align="middle" lineHeight="125%" anchor="middle" family="微软雅黑" size="14px" weight="700" font-style="" opacity="1" y="14.75" transform="rotate(0)"><tspan id="SvgjsTspan1056" dy="17" x="35"><tspan id="SvgjsTspan1057" style="text-decoration:;">App 1 </tspan></tspan><tspan id="SvgjsTspan1058" dy="17" x="35"><tspan id="SvgjsTspan1059" style="text-decoration:;">V2.1.0</tspan></tspan></text></g></g><g id="SvgjsG1060" transform="translate(625,418)"><path id="SvgjsPath1061" d="M 0 35C 0 -11.666666666666666 70 -11.666666666666666 70 35C 70 81.66666666666667 0 81.66666666666667 0 35Z" stroke="rgba(50,50,50,1)" stroke-width="2" fill-opacity="1" fill="#e57373"></path><g id="SvgjsG1062"><text id="SvgjsText1063" font-family="微软雅黑" text-anchor="middle" font-size="14px" width="50px" fill="#323232" font-weight="700" align="middle" lineHeight="125%" anchor="middle" family="微软雅黑" size="14px" weight="700" font-style="" opacity="1" y="14.75" transform="rotate(0)"><tspan id="SvgjsTspan1064" dy="17" x="35"><tspan id="SvgjsTspan1065" style="text-decoration:;">App 2 </tspan></tspan><tspan id="SvgjsTspan1066" dy="17" x="35"><tspan id="SvgjsTspan1067" style="text-decoration:;">V2.2.4</tspan></tspan></text></g></g><g id="SvgjsG1068" transform="translate(345,418)"><path id="SvgjsPath1069" d="M 0 35C 0 -11.666666666666666 70 -11.666666666666666 70 35C 70 81.66666666666667 0 81.66666666666667 0 35Z" stroke="rgba(50,50,50,1)" stroke-width="2" fill-opacity="1" fill="#e0e0e0"></path><g id="SvgjsG1070"><text id="SvgjsText1071" font-family="微软雅黑" text-anchor="middle" font-size="14px" width="50px" fill="#323232" font-weight="700" align="middle" lineHeight="125%" anchor="middle" family="微软雅黑" size="14px" weight="700" font-style="" opacity="1" y="14.75" transform="rotate(0)"><tspan id="SvgjsTspan1072" dy="17" x="35"><tspan id="SvgjsTspan1073" style="text-decoration:;">App 2 </tspan></tspan><tspan id="SvgjsTspan1074" dy="17" x="35"><tspan id="SvgjsTspan1075" style="text-decoration:;">V2.1.0</tspan></tspan></text></g></g><g id="SvgjsG1076" transform="translate(485,418)"><path id="SvgjsPath1077" d="M 0 35C 0 -11.666666666666666 70 -11.666666666666666 70 35C 70 81.66666666666667 0 81.66666666666667 0 35Z" stroke="rgba(50,50,50,1)" stroke-width="2" fill-opacity="1" fill="#81c784"></path><g id="SvgjsG1078"><text id="SvgjsText1079" font-family="微软雅黑" text-anchor="middle" font-size="14px" width="50px" fill="#323232" font-weight="700" align="middle" lineHeight="125%" anchor="middle" family="微软雅黑" size="14px" weight="700" font-style="" opacity="1" y="14.75" transform="rotate(0)"><tspan id="SvgjsTspan1080" dy="17" x="35"><tspan id="SvgjsTspan1081" style="text-decoration:;">App 2 </tspan></tspan><tspan id="SvgjsTspan1082" dy="17" x="35"><tspan id="SvgjsTspan1083" style="text-decoration:;">V2.2.3</tspan></tspan></text></g></g><g id="SvgjsG1084" transform="translate(395,34)"><path id="SvgjsPath1085" d="M 0 4Q 0 0 4 0L 146 0Q 150 0 150 4L 150 56Q 150 60 146 60L 4 60Q 0 60 0 56Z" stroke="rgba(50,50,50,1)" stroke-width="2" fill-opacity="1" fill="#ffffff"></path><g id="SvgjsG1086"><text id="SvgjsText1087" font-family="微软雅黑" text-anchor="middle" font-size="15px" width="130px" fill="#323232" font-weight="700" align="middle" lineHeight="125%" anchor="middle" family="微软雅黑" size="15px" weight="700" font-style="" opacity="1" y="17.625" transform="rotate(0)"><tspan id="SvgjsTspan1088" dy="18" x="75"><tspan id="SvgjsTspan1089" style="text-decoration:;">App 1 IM Servers</tspan></tspan></text></g></g><g id="SvgjsG1090" transform="translate(443.5,544)"><path id="SvgjsPath1091" d="M 0 4Q 0 0 4 0L 146 0Q 150 0 150 4L 150 56Q 150 60 146 60L 4 60Q 0 60 0 56Z" stroke="rgba(50,50,50,1)" stroke-width="2" fill-opacity="1" fill="#ffffff"></path><g id="SvgjsG1092"><text id="SvgjsText1093" font-family="微软雅黑" text-anchor="middle" font-size="15px" width="130px" fill="#323232" font-weight="700" align="middle" lineHeight="125%" anchor="middle" family="微软雅黑" size="15px" weight="700" font-style="" opacity="1" y="17.625" transform="rotate(0)"><tspan id="SvgjsTspan1094" dy="18" x="75"><tspan id="SvgjsTspan1095" style="text-decoration:;">App 2 IM Servers</tspan></tspan></text></g></g><g id="SvgjsG1096"><path id="SvgjsPath1097" d="M380.92708532022465 488.3748503821847L515.1624928471914 542.6505386241352" stroke-dasharray="8,5" stroke="#323232" stroke-width="2" fill="none" marker-end="url(#SvgjsMarker1098)"></path></g><g id="SvgjsG1100"><path id="SvgjsPath1101" d="M519.97322388958 488.99964145567833L518.5963939975119 540.4012907595578" stroke-dasharray="8,5" stroke="#323232" stroke-width="2" fill="none" marker-end="url(#SvgjsMarker1102)"></path></g><g id="SvgjsG1104"><path id="SvgjsPath1105" d="M659.0701699641397 488.3679892721426L521.8473881290971 542.6752386202867" stroke-dasharray="8,5" stroke="#323232" stroke-width="2" fill="none" marker-end="url(#SvgjsMarker1106)"></path></g><g id="SvgjsG1108"><path id="SvgjsPath1109" d="M187.97153961126864 162.76312285096276L466.50245739943296 94.85275773653402" stroke-dasharray="8,5" stroke="#323232" stroke-width="2" fill="none" marker-end="url(#SvgjsMarker1110)"></path></g><g id="SvgjsG1112"><path id="SvgjsPath1113" d="M329.3988294859631 162.5617015227459L466.76421385053277 95.57787451811477" stroke-dasharray="8,5" stroke="#323232" stroke-width="2" fill="none" marker-end="url(#SvgjsMarker1114)"></path></g><g id="SvgjsG1116"><path id="SvgjsPath1117" d="M470 162L470 97.6" stroke-dasharray="8,5" stroke="#323232" stroke-width="2" fill="none" marker-end="url(#SvgjsMarker1118)"></path></g><g id="SvgjsG1120"><path id="SvgjsPath1121" d="M609.103024708789 162.5579193207603L473.2291110483594 95.59149044526286" stroke-dasharray="8,5" stroke="#323232" stroke-width="2" fill="none" marker-end="url(#SvgjsMarker1122)"></path></g><g id="SvgjsG1124" transform="translate(121,304)"><path id="SvgjsPath1125" d="M 0 4Q 0 0 4 0L 126 0Q 130 0 130 4L 130 56Q 130 60 126 60L 4 60Q 0 60 0 56Z" stroke="rgba(50,50,50,1)" stroke-width="2" fill-opacity="1" fill="#fff176"></path><g id="SvgjsG1126"><text id="SvgjsText1127" font-family="微软雅黑" text-anchor="middle" font-size="15px" width="110px" fill="#323232" font-weight="700" align="middle" lineHeight="125%" anchor="middle" family="微软雅黑" size="15px" weight="700" font-style="" opacity="1" y="8.125" transform="rotate(0)"><tspan id="SvgjsTspan1128" dy="18" x="65"><tspan id="SvgjsTspan1129" style="text-decoration:;">Core V1</tspan></tspan><tspan id="SvgjsTspan1130" dy="18" x="65"><tspan id="SvgjsTspan1131" style="text-decoration:;">(2022-07-21)</tspan></tspan></text></g></g><g id="SvgjsG1132" transform="translate(404,304)"><path id="SvgjsPath1133" d="M 0 4Q 0 0 4 0L 126 0Q 130 0 130 4L 130 56Q 130 60 126 60L 4 60Q 0 60 0 56Z" stroke="rgba(50,50,50,1)" stroke-width="2" fill-opacity="1" fill="#fff176"></path><g id="SvgjsG1134"><text id="SvgjsText1135" font-family="微软雅黑" text-anchor="middle" font-size="15px" width="110px" fill="#323232" font-weight="700" align="middle" lineHeight="125%" anchor="middle" family="微软雅黑" size="15px" weight="700" font-style="" opacity="1" y="8.125" transform="rotate(0)"><tspan id="SvgjsTspan1136" dy="18" x="65"><tspan id="SvgjsTspan1137" style="text-decoration:;">Core V2</tspan></tspan><tspan id="SvgjsTspan1138" dy="18" x="65"><tspan id="SvgjsTspan1139" style="text-decoration:;">(2022-08-19)</tspan></tspan></text></g></g><g id="SvgjsG1140" transform="translate(544,304)"><path id="SvgjsPath1141" d="M 0 4Q 0 0 4 0L 126 0Q 130 0 130 4L 130 56Q 130 60 126 60L 4 60Q 0 60 0 56Z" stroke="rgba(50,50,50,1)" stroke-width="2" fill-opacity="1" fill="#fff176"></path><g id="SvgjsG1142"><text id="SvgjsText1143" font-family="微软雅黑" text-anchor="middle" font-size="15px" width="110px" fill="#323232" font-weight="700" align="middle" lineHeight="125%" anchor="middle" family="微软雅黑" size="15px" weight="700" font-style="" opacity="1" y="8.125" transform="rotate(0)"><tspan id="SvgjsTspan1144" dy="18" x="65"><tspan id="SvgjsTspan1145" style="text-decoration:;">Core V3</tspan></tspan><tspan id="SvgjsTspan1146" dy="18" x="65"><tspan id="SvgjsTspan1147" style="text-decoration:;">(2022-09-20)</tspan></tspan></text></g></g><g id="SvgjsG1148"><path id="SvgjsPath1149" d="M186 303L186 236.60000000000002" stroke="#323232" stroke-width="2" fill="none" marker-end="url(#SvgjsMarker1150)"></path><rect id="SvgjsRect1152" width="26" height="16" x="173" y="261.8" fill="#ffffff"></rect><text id="SvgjsText1153" font-family="微软雅黑" text-anchor="middle" font-size="13px" width="26px" fill="#323232" font-weight="400" align="top" lineHeight="16px" anchor="middle" family="微软雅黑" size="13px" weight="400" font-style="" opacity="1" y="259.175" transform="rotate(0)"><tspan id="SvgjsTspan1154" dy="16" x="186"><tspan id="SvgjsTspan1155" style="text-decoration:;">集成</tspan></tspan></text></g><g id="SvgjsG1156"><path id="SvgjsPath1157" d="M328.1970783932918 364.7169949188144L377.4905177841495 415.41881829226804" stroke="#323232" stroke-width="2" fill="none" marker-end="url(#SvgjsMarker1158)"></path><rect id="SvgjsRect1160" width="26" height="16" x="339.84379808872063" y="382.0679066055412" fill="#ffffff"></rect><text id="SvgjsText1161" font-family="微软雅黑" text-anchor="middle" font-size="13px" width="26px" fill="#323232" font-weight="400" align="top" lineHeight="16px" anchor="middle" family="微软雅黑" size="13px" weight="400" font-style="" opacity="1" y="379.4429066055412" transform="rotate(0)"><tspan id="SvgjsTspan1162" dy="16" x="352.84379808872063"><tspan id="SvgjsTspan1163" style="text-decoration:;">集成</tspan></tspan></text></g><g id="SvgjsG1164"><path id="SvgjsPath1165" d="M469.6866235329637 364.72701315254983L517.5281552813307 415.38275265082063" stroke="#323232" stroke-width="2" fill="none" marker-end="url(#SvgjsMarker1166)"></path><rect id="SvgjsRect1168" width="26" height="16" x="480.6073894071472" y="382.05488290168523" fill="#ffffff"></rect><text id="SvgjsText1169" font-family="微软雅黑" text-anchor="middle" font-size="13px" width="26px" fill="#323232" font-weight="400" align="top" lineHeight="16px" anchor="middle" family="微软雅黑" size="13px" weight="400" font-style="" opacity="1" y="379.42988290168523" transform="rotate(0)"><tspan id="SvgjsTspan1170" dy="16" x="493.6073894071472"><tspan id="SvgjsTspan1171" style="text-decoration:;">集成</tspan></tspan></text></g><g id="SvgjsG1172"><path id="SvgjsPath1173" d="M469 303L469 236.60000000000002" stroke="#323232" stroke-width="2" fill="none" marker-end="url(#SvgjsMarker1174)"></path><rect id="SvgjsRect1176" width="26" height="16" x="456" y="261.8" fill="#ffffff"></rect><text id="SvgjsText1177" font-family="微软雅黑" text-anchor="middle" font-size="13px" width="26px" fill="#323232" font-weight="400" align="top" lineHeight="16px" anchor="middle" family="微软雅黑" size="13px" weight="400" font-style="" opacity="1" y="259.175" transform="rotate(0)"><tspan id="SvgjsTspan1178" dy="16" x="469"><tspan id="SvgjsTspan1179" style="text-decoration:;">集成</tspan></tspan></text></g><g id="SvgjsG1180"><path id="SvgjsPath1181" d="M609 303L609 236.60000000000002" stroke="#323232" stroke-width="2" fill="none" marker-end="url(#SvgjsMarker1182)"></path><rect id="SvgjsRect1184" width="26" height="16" x="596" y="261.8" fill="#ffffff"></rect><text id="SvgjsText1185" font-family="微软雅黑" text-anchor="middle" font-size="13px" width="26px" fill="#323232" font-weight="400" align="top" lineHeight="16px" anchor="middle" family="微软雅黑" size="13px" weight="400" font-style="" opacity="1" y="259.175" transform="rotate(0)"><tspan id="SvgjsTspan1186" dy="16" x="609"><tspan id="SvgjsTspan1187" style="text-decoration:;">集成</tspan></tspan></text></g><g id="SvgjsG1188"><path id="SvgjsPath1189" d="M609.6866235329637 364.72701315254983L657.5281552813307 415.38275265082063" stroke="#323232" stroke-width="2" fill="none" marker-end="url(#SvgjsMarker1190)"></path><rect id="SvgjsRect1192" width="26" height="16" x="620.6073894071471" y="382.05488290168523" fill="#ffffff"></rect><text id="SvgjsText1193" font-family="微软雅黑" text-anchor="middle" font-size="13px" width="26px" fill="#323232" font-weight="400" align="top" lineHeight="16px" anchor="middle" family="微软雅黑" size="13px" weight="400" font-style="" opacity="1" y="379.42988290168523" transform="rotate(0)"><tspan id="SvgjsTspan1194" dy="16" x="633.6073894071471"><tspan id="SvgjsTspan1195" style="text-decoration:;">集成</tspan></tspan></text></g><g id="SvgjsG1196" transform="translate(262.5,304)"><path id="SvgjsPath1197" d="M 0 4Q 0 0 4 0L 126 0Q 130 0 130 4L 130 56Q 130 60 126 60L 4 60Q 0 60 0 56Z" stroke="rgba(50,50,50,1)" stroke-width="2" fill-opacity="1" fill="#fff176"></path><g id="SvgjsG1198"><text id="SvgjsText1199" font-family="微软雅黑" text-anchor="middle" font-size="15px" width="110px" fill="#323232" font-weight="700" align="middle" lineHeight="125%" anchor="middle" family="微软雅黑" size="15px" weight="700" font-style="" opacity="1" y="8.125" transform="rotate(0)"><tspan id="SvgjsTspan1200" dy="18" x="65"><tspan id="SvgjsTspan1201" style="text-decoration:;">Core V1 Patch</tspan></tspan><tspan id="SvgjsTspan1202" dy="18" x="65"><tspan id="SvgjsTspan1203" style="text-decoration:;">(2022-07-23)</tspan></tspan></text></g></g><g id="SvgjsG1204"><path id="SvgjsPath1205" d="M327.5 303L327.5 236.60000000000002" stroke="#323232" stroke-width="2" fill="none" marker-end="url(#SvgjsMarker1206)"></path><rect id="SvgjsRect1208" width="26" height="16" x="314.5" y="261.8" fill="#ffffff"></rect><text id="SvgjsText1209" font-family="微软雅黑" text-anchor="middle" font-size="13px" width="26px" fill="#323232" font-weight="400" align="top" lineHeight="16px" anchor="middle" family="微软雅黑" size="13px" weight="400" font-style="" opacity="1" y="259.175" transform="rotate(0)"><tspan id="SvgjsTspan1210" dy="16" x="327.5"><tspan id="SvgjsTspan1211" style="text-decoration:;">集成</tspan></tspan></text></g><g id="SvgjsG1212"><path id="SvgjsPath1213" d="M58 332L395.5 332L395.5 332L733 332" stroke="#323232" stroke-width="2" fill="none" marker-end="url(#SvgjsMarker1214)"></path><rect id="SvgjsRect1216" width="72" height="23" x="38.875" y="320.5" fill="#ffffff"></rect><text id="SvgjsText1217" font-family="微软雅黑" text-anchor="middle" font-size="18px" width="72px" fill="#323232" font-weight="700" align="top" lineHeight="23px" anchor="middle" family="微软雅黑" size="18px" weight="700" font-style="" opacity="1" y="316.25" transform="rotate(0)"><tspan id="SvgjsTspan1218" dy="22" x="74.875"><tspan id="SvgjsTspan1219" style="text-decoration:;">Timeline</tspan></tspan></text></g></svg>