<svg id="SvgjsSvg1006" width="784" height="290" xmlns="http://www.w3.org/2000/svg" version="1.1" xmlns:xlink="http://www.w3.org/1999/xlink" xmlns:svgjs="http://svgjs.com/svgjs"><defs id="SvgjsDefs1007"><marker id="SvgjsMarker1024" markerWidth="14" markerHeight="10" refX="10" refY="5" viewBox="0 0 14 10" orient="auto" markerUnits="userSpaceOnUse" stroke-dasharray="0,0"><path id="SvgjsPath1025" d="M0,0 L14,5 L0,10 L0,0" fill="#323232" stroke="#323232" stroke-width="1"></path></marker><marker id="SvgjsMarker1028" markerWidth="14" markerHeight="10" refX="10" refY="5" viewBox="0 0 14 10" orient="auto" markerUnits="userSpaceOnUse" stroke-dasharray="0,0"><path id="SvgjsPath1029" d="M0,0 L14,5 L0,10 L0,0" fill="#323232" stroke="#323232" stroke-width="1"></path></marker><marker id="SvgjsMarker1032" markerWidth="14" markerHeight="10" refX="10" refY="5" viewBox="0 0 14 10" orient="auto" markerUnits="userSpaceOnUse" stroke-dasharray="0,0"><path id="SvgjsPath1033" d="M0,0 L14,5 L0,10 L0,0" fill="#323232" stroke="#323232" stroke-width="1"></path></marker><marker id="SvgjsMarker1036" markerWidth="14" markerHeight="10" refX="10" refY="5" viewBox="0 0 14 10" orient="auto" markerUnits="userSpaceOnUse" stroke-dasharray="0,0"><path id="SvgjsPath1037" d="M0,0 L14,5 L0,10 L0,0" fill="#323232" stroke="#323232" stroke-width="1"></path></marker><marker id="SvgjsMarker1072" markerWidth="14" markerHeight="10" refX="10" refY="5" viewBox="0 0 14 10" orient="auto" markerUnits="userSpaceOnUse" stroke-dasharray="0,0"><path id="SvgjsPath1073" d="M0,0 L14,5 L0,10 L0,0" fill="#323232" stroke="#323232" stroke-width="1"></path></marker></defs><g id="SvgjsG1008" transform="translate(25,25)"><path id="SvgjsPath1009" d="M 0 0L 734 0L 734 240L 0 240Z" stroke="none" fill-opacity="1" fill="#ffffff"></path><g id="SvgjsG1010"><text id="SvgjsText1011" font-family="微软雅黑" text-anchor="middle" font-size="26px" width="714px" fill="#323232" font-weight="700" align="top" lineHeight="125%" anchor="middle" family="微软雅黑" size="26px" weight="700" font-style="" opacity="1" y="-6.25" transform="rotate(0)"><tspan id="SvgjsTspan1012" dy="32" x="367"><tspan id="SvgjsTspan1013" style="text-decoration:;"> </tspan></tspan><tspan id="SvgjsTspan1014" dy="32" x="367"><tspan id="SvgjsTspan1015" style="text-decoration:;"> </tspan></tspan></text></g></g><g id="SvgjsG1016" transform="translate(394,37)"><path id="SvgjsPath1017" d="M 0 4Q 0 0 4 0L 146 0Q 150 0 150 4L 150 56Q 150 60 146 60L 4 60Q 0 60 0 56Z" stroke="rgba(50,50,50,1)" stroke-width="2" fill-opacity="1" fill="#ffffff"></path><g id="SvgjsG1018"><text id="SvgjsText1019" font-family="微软雅黑" text-anchor="middle" font-size="15px" width="130px" fill="#323232" font-weight="700" align="middle" lineHeight="125%" anchor="middle" family="微软雅黑" size="15px" weight="700" font-style="" opacity="1" y="17.625" transform="rotate(0)"><tspan id="SvgjsTspan1020" dy="18" x="75"><tspan id="SvgjsTspan1021" style="text-decoration:;">IM Servers</tspan></tspan></text></g></g><g id="SvgjsG1022"><path id="SvgjsPath1023" d="M185.9532778000947 186.6979049225052L465.56819991965904 98.08754227898129" stroke-dasharray="8,5" stroke="#323232" stroke-width="2" fill="none" marker-end="url(#SvgjsMarker1024)"></path></g><g id="SvgjsG1026"><path id="SvgjsPath1027" d="M327.34548890303097 186.46600700861202L465.9562399490885 98.92237476899675" stroke-dasharray="8,5" stroke="#323232" stroke-width="2" fill="none" marker-end="url(#SvgjsMarker1028)"></path></g><g id="SvgjsG1030"><path id="SvgjsPath1031" d="M469 186L469 100.6" stroke-dasharray="8,5" stroke="#323232" stroke-width="2" fill="none" marker-end="url(#SvgjsMarker1032)"></path></g><g id="SvgjsG1034"><path id="SvgjsPath1035" d="M607.160591899648 186.45649835229005L472.0218691612672 98.95660593175577" stroke-dasharray="8,5" stroke="#323232" stroke-width="2" fill="none" marker-end="url(#SvgjsMarker1036)"></path></g><g id="SvgjsG1038" transform="translate(120,187)"><path id="SvgjsPath1039" d="M 0 4Q 0 0 4 0L 126 0Q 130 0 130 4L 130 56Q 130 60 126 60L 4 60Q 0 60 0 56Z" stroke="rgba(50,50,50,1)" stroke-width="2" fill-opacity="1" fill="#fff176"></path><g id="SvgjsG1040"><text id="SvgjsText1041" font-family="微软雅黑" text-anchor="middle" font-size="15px" width="110px" fill="#323232" font-weight="700" align="middle" lineHeight="125%" anchor="middle" family="微软雅黑" size="15px" weight="700" font-style="" opacity="1" y="8.125" transform="rotate(0)"><tspan id="SvgjsTspan1042" dy="18" x="65"><tspan id="SvgjsTspan1043" style="text-decoration:;">Core V1</tspan></tspan><tspan id="SvgjsTspan1044" dy="18" x="65"><tspan id="SvgjsTspan1045" style="text-decoration:;">(2022-07-21)</tspan></tspan></text></g></g><g id="SvgjsG1046" transform="translate(403,187)"><path id="SvgjsPath1047" d="M 0 4Q 0 0 4 0L 126 0Q 130 0 130 4L 130 56Q 130 60 126 60L 4 60Q 0 60 0 56Z" stroke="rgba(50,50,50,1)" stroke-width="2" fill-opacity="1" fill="#fff176"></path><g id="SvgjsG1048"><text id="SvgjsText1049" font-family="微软雅黑" text-anchor="middle" font-size="15px" width="110px" fill="#323232" font-weight="700" align="middle" lineHeight="125%" anchor="middle" family="微软雅黑" size="15px" weight="700" font-style="" opacity="1" y="8.125" transform="rotate(0)"><tspan id="SvgjsTspan1050" dy="18" x="65"><tspan id="SvgjsTspan1051" style="text-decoration:;">Core V2</tspan></tspan><tspan id="SvgjsTspan1052" dy="18" x="65"><tspan id="SvgjsTspan1053" style="text-decoration:;">(2022-08-19)</tspan></tspan></text></g></g><g id="SvgjsG1054" transform="translate(543,187)"><path id="SvgjsPath1055" d="M 0 4Q 0 0 4 0L 126 0Q 130 0 130 4L 130 56Q 130 60 126 60L 4 60Q 0 60 0 56Z" stroke="rgba(50,50,50,1)" stroke-width="2" fill-opacity="1" fill="#fff176"></path><g id="SvgjsG1056"><text id="SvgjsText1057" font-family="微软雅黑" text-anchor="middle" font-size="15px" width="110px" fill="#323232" font-weight="700" align="middle" lineHeight="125%" anchor="middle" family="微软雅黑" size="15px" weight="700" font-style="" opacity="1" y="8.125" transform="rotate(0)"><tspan id="SvgjsTspan1058" dy="18" x="65"><tspan id="SvgjsTspan1059" style="text-decoration:;">Core V3</tspan></tspan><tspan id="SvgjsTspan1060" dy="18" x="65"><tspan id="SvgjsTspan1061" style="text-decoration:;">(2022-09-20)</tspan></tspan></text></g></g><g id="SvgjsG1062" transform="translate(261.5,187)"><path id="SvgjsPath1063" d="M 0 4Q 0 0 4 0L 126 0Q 130 0 130 4L 130 56Q 130 60 126 60L 4 60Q 0 60 0 56Z" stroke="rgba(50,50,50,1)" stroke-width="2" fill-opacity="1" fill="#fff176"></path><g id="SvgjsG1064"><text id="SvgjsText1065" font-family="微软雅黑" text-anchor="middle" font-size="15px" width="110px" fill="#323232" font-weight="700" align="middle" lineHeight="125%" anchor="middle" family="微软雅黑" size="15px" weight="700" font-style="" opacity="1" y="8.125" transform="rotate(0)"><tspan id="SvgjsTspan1066" dy="18" x="65"><tspan id="SvgjsTspan1067" style="text-decoration:;">Core V1 Patch</tspan></tspan><tspan id="SvgjsTspan1068" dy="18" x="65"><tspan id="SvgjsTspan1069" style="text-decoration:;">(2022-07-23)</tspan></tspan></text></g></g><g id="SvgjsG1070"><path id="SvgjsPath1071" d="M57 215L394.5 215L394.5 215L732 215" stroke="#323232" stroke-width="2" fill="none" marker-end="url(#SvgjsMarker1072)"></path><rect id="SvgjsRect1074" width="72" height="23" x="37.875" y="203.5" fill="#ffffff"></rect><text id="SvgjsText1075" font-family="微软雅黑" text-anchor="middle" font-size="18px" width="72px" fill="#323232" font-weight="700" align="top" lineHeight="23px" anchor="middle" family="微软雅黑" size="18px" weight="700" font-style="" opacity="1" y="199.25" transform="rotate(0)"><tspan id="SvgjsTspan1076" dy="22" x="73.875"><tspan id="SvgjsTspan1077" style="text-decoration:;">Timeline</tspan></tspan></text></g></svg>