<svg id="SvgjsSvg1006" width="784" height="638" xmlns="http://www.w3.org/2000/svg" version="1.1" xmlns:xlink="http://www.w3.org/1999/xlink" xmlns:svgjs="http://svgjs.com/svgjs"><defs id="SvgjsDefs1007"><marker id="SvgjsMarker1042" markerWidth="14" markerHeight="10" refX="10" refY="5" viewBox="0 0 14 10" orient="auto" markerUnits="userSpaceOnUse" stroke-dasharray="0,0"><path id="SvgjsPath1043" d="M0,0 L14,5 L0,10 L0,0" fill="#323232" stroke="#323232" stroke-width="1"></path></marker><marker id="SvgjsMarker1046" markerWidth="14" markerHeight="10" refX="10" refY="5" viewBox="0 0 14 10" orient="auto" markerUnits="userSpaceOnUse" stroke-dasharray="0,0"><path id="SvgjsPath1047" d="M0,0 L14,5 L0,10 L0,0" fill="#323232" stroke="#323232" stroke-width="1"></path></marker><marker id="SvgjsMarker1050" markerWidth="14" markerHeight="10" refX="10" refY="5" viewBox="0 0 14 10" orient="auto" markerUnits="userSpaceOnUse" stroke-dasharray="0,0"><path id="SvgjsPath1051" d="M0,0 L14,5 L0,10 L0,0" fill="#323232" stroke="#323232" stroke-width="1"></path></marker><marker id="SvgjsMarker1054" markerWidth="14" markerHeight="10" refX="10" refY="5" viewBox="0 0 14 10" orient="auto" markerUnits="userSpaceOnUse" stroke-dasharray="0,0"><path id="SvgjsPath1055" d="M0,0 L14,5 L0,10 L0,0" fill="#323232" stroke="#323232" stroke-width="1"></path></marker><marker id="SvgjsMarker1058" markerWidth="14" markerHeight="10" refX="10" refY="5" viewBox="0 0 14 10" orient="auto" markerUnits="userSpaceOnUse" stroke-dasharray="0,0"><path id="SvgjsPath1059" d="M0,0 L14,5 L0,10 L0,0" fill="#323232" stroke="#323232" stroke-width="1"></path></marker><marker id="SvgjsMarker1062" markerWidth="14" markerHeight="10" refX="10" refY="5" viewBox="0 0 14 10" orient="auto" markerUnits="userSpaceOnUse" stroke-dasharray="0,0"><path id="SvgjsPath1063" d="M0,0 L14,5 L0,10 L0,0" fill="#323232" stroke="#323232" stroke-width="1"></path></marker><marker id="SvgjsMarker1066" markerWidth="14" markerHeight="10" refX="10" refY="5" viewBox="0 0 14 10" orient="auto" markerUnits="userSpaceOnUse" stroke-dasharray="0,0"><path id="SvgjsPath1067" d="M0,0 L14,5 L0,10 L0,0" fill="#323232" stroke="#323232" stroke-width="1"></path></marker><marker id="SvgjsMarker1094" markerWidth="14" markerHeight="10" refX="10" refY="5" viewBox="0 0 14 10" orient="auto" markerUnits="userSpaceOnUse" stroke-dasharray="0,0"><path id="SvgjsPath1095" d="M0,0 L14,5 L0,10 L0,0" fill="#323232" stroke="#323232" stroke-width="1"></path></marker><marker id="SvgjsMarker1102" markerWidth="14" markerHeight="10" refX="10" refY="5" viewBox="0 0 14 10" orient="auto" markerUnits="userSpaceOnUse" stroke-dasharray="0,0"><path id="SvgjsPath1103" d="M0,0 L14,5 L0,10 L0,0" fill="#323232" stroke="#323232" stroke-width="1"></path></marker><marker id="SvgjsMarker1110" markerWidth="14" markerHeight="10" refX="10" refY="5" viewBox="0 0 14 10" orient="auto" markerUnits="userSpaceOnUse" stroke-dasharray="0,0"><path id="SvgjsPath1111" d="M0,0 L14,5 L0,10 L0,0" fill="#323232" stroke="#323232" stroke-width="1"></path></marker><marker id="SvgjsMarker1118" markerWidth="14" markerHeight="10" refX="10" refY="5" viewBox="0 0 14 10" orient="auto" markerUnits="userSpaceOnUse" stroke-dasharray="0,0"><path id="SvgjsPath1119" d="M0,0 L14,5 L0,10 L0,0" fill="#323232" stroke="#323232" stroke-width="1"></path></marker><marker id="SvgjsMarker1126" markerWidth="14" markerHeight="10" refX="10" refY="5" viewBox="0 0 14 10" orient="auto" markerUnits="userSpaceOnUse" stroke-dasharray="0,0"><path id="SvgjsPath1127" d="M0,0 L14,5 L0,10 L0,0" fill="#323232" stroke="#323232" stroke-width="1"></path></marker><marker id="SvgjsMarker1134" markerWidth="14" markerHeight="10" refX="10" refY="5" viewBox="0 0 14 10" orient="auto" markerUnits="userSpaceOnUse" stroke-dasharray="0,0"><path id="SvgjsPath1135" d="M0,0 L14,5 L0,10 L0,0" fill="#323232" stroke="#323232" stroke-width="1"></path></marker><marker id="SvgjsMarker1150" markerWidth="14" markerHeight="10" refX="10" refY="5" viewBox="0 0 14 10" orient="auto" markerUnits="userSpaceOnUse" stroke-dasharray="0,0"><path id="SvgjsPath1151" d="M0,0 L14,5 L0,10 L0,0" fill="#323232" stroke="#323232" stroke-width="1"></path></marker><marker id="SvgjsMarker1158" markerWidth="14" markerHeight="10" refX="10" refY="5" viewBox="0 0 14 10" orient="auto" markerUnits="userSpaceOnUse" stroke-dasharray="0,0"><path id="SvgjsPath1159" d="M0,0 L14,5 L0,10 L0,0" fill="#323232" stroke="#323232" stroke-width="1"></path></marker></defs><g id="SvgjsG1008" transform="translate(25,25)"><path id="SvgjsPath1009" d="M 0 0L 734 0L 734 588L 0 588Z" stroke="none" fill-opacity="1" fill="#ffffff"></path><g id="SvgjsG1010"><text id="SvgjsText1011" font-family="微软雅黑" text-anchor="middle" font-size="26px" width="714px" fill="#323232" font-weight="700" align="top" lineHeight="125%" anchor="middle" family="微软雅黑" size="26px" weight="700" font-style="" opacity="1" y="-6.25" transform="rotate(0)"><tspan id="SvgjsTspan1012" dy="32" x="367"><tspan id="SvgjsTspan1013" style="text-decoration:;"> </tspan></tspan><tspan id="SvgjsTspan1014" dy="32" x="367"><tspan id="SvgjsTspan1015" style="text-decoration:;"> </tspan></tspan></text></g></g><g id="SvgjsG1016" transform="translate(264,405)"><path id="SvgjsPath1017" d="M 0 0L 459.5 0L 459.5 96L 0 96Z" stroke="none" fill-opacity="1" fill="#f5f5f5"></path><g id="SvgjsG1018"><text id="SvgjsText1019" font-family="微软雅黑" text-anchor="start" font-size="20px" width="440px" fill="#323232" font-weight="700" align="middle" lineHeight="125%" anchor="start" family="微软雅黑" size="20px" weight="700" font-style="" opacity="1" y="30" transform="rotate(0)"><tspan id="SvgjsTspan1020" dy="25" x="10"><tspan id="SvgjsTspan1021" style="text-decoration:;">App 2</tspan></tspan></text></g></g><g id="SvgjsG1022" transform="translate(75,142)"><path id="SvgjsPath1023" d="M 0 0L 580 0L 580 100L 0 100Z" stroke="none" fill-opacity="1" fill="#f5f5f5"></path><g id="SvgjsG1024"><text id="SvgjsText1025" font-family="微软雅黑" text-anchor="start" font-size="20px" width="560px" fill="#323232" font-weight="700" align="middle" lineHeight="125%" anchor="start" family="微软雅黑" size="20px" weight="700" font-style="" opacity="1" y="32" transform="rotate(0)"><tspan id="SvgjsTspan1026" dy="25" x="10"><tspan id="SvgjsTspan1027" style="text-decoration:;">App 1</tspan></tspan></text></g></g><g id="SvgjsG1028" transform="translate(395,34)"><path id="SvgjsPath1029" d="M 0 4Q 0 0 4 0L 146 0Q 150 0 150 4L 150 56Q 150 60 146 60L 4 60Q 0 60 0 56Z" stroke="rgba(50,50,50,1)" stroke-width="2" fill-opacity="1" fill="#ffffff"></path><g id="SvgjsG1030"><text id="SvgjsText1031" font-family="微软雅黑" text-anchor="middle" font-size="15px" width="130px" fill="#323232" font-weight="700" align="middle" lineHeight="125%" anchor="middle" family="微软雅黑" size="15px" weight="700" font-style="" opacity="1" y="17.625" transform="rotate(0)"><tspan id="SvgjsTspan1032" dy="18" x="75"><tspan id="SvgjsTspan1033" style="text-decoration:;">App 1 IM Servers</tspan></tspan></text></g></g><g id="SvgjsG1034" transform="translate(443.5,544)"><path id="SvgjsPath1035" d="M 0 4Q 0 0 4 0L 146 0Q 150 0 150 4L 150 56Q 150 60 146 60L 4 60Q 0 60 0 56Z" stroke="rgba(50,50,50,1)" stroke-width="2" fill-opacity="1" fill="#ffffff"></path><g id="SvgjsG1036"><text id="SvgjsText1037" font-family="微软雅黑" text-anchor="middle" font-size="15px" width="130px" fill="#323232" font-weight="700" align="middle" lineHeight="125%" anchor="middle" family="微软雅黑" size="15px" weight="700" font-style="" opacity="1" y="17.625" transform="rotate(0)"><tspan id="SvgjsTspan1038" dy="18" x="75"><tspan id="SvgjsTspan1039" style="text-decoration:;">App 2 IM Servers</tspan></tspan></text></g></g><g id="SvgjsG1040"><path id="SvgjsPath1041" d="M386.9347282786964 469.24700470380475L515.369956393386 542.2215661326057" stroke-dasharray="8,5" stroke="#323232" stroke-width="2" fill="none" marker-end="url(#SvgjsMarker1042)"></path></g><g id="SvgjsG1044"><path id="SvgjsPath1045" d="M518.5 469.5L518.5 540.4" stroke-dasharray="8,5" stroke="#323232" stroke-width="2" fill="none" marker-end="url(#SvgjsMarker1046)"></path></g><g id="SvgjsG1048"><path id="SvgjsPath1049" d="M667.5530857434534 469.2242044765284L521.7177826471357 542.3857277689955" stroke-dasharray="8,5" stroke="#323232" stroke-width="2" fill="none" marker-end="url(#SvgjsMarker1050)"></path></g><g id="SvgjsG1052"><path id="SvgjsPath1053" d="M185.47821484551986 180.85401862610448L466.5568531122571 95.05106589204783" stroke-dasharray="8,5" stroke="#323232" stroke-width="2" fill="none" marker-end="url(#SvgjsMarker1054)"></path></g><g id="SvgjsG1056"><path id="SvgjsPath1057" d="M326.9275588904706 180.74078311170075L466.92157598861166 95.86636159575461" stroke-dasharray="8,5" stroke="#323232" stroke-width="2" fill="none" marker-end="url(#SvgjsMarker1058)"></path></g><g id="SvgjsG1060"><path id="SvgjsPath1061" d="M470 180.5L470 97.6" stroke-dasharray="8,5" stroke="#323232" stroke-width="2" fill="none" marker-end="url(#SvgjsMarker1062)"></path></g><g id="SvgjsG1064"><path id="SvgjsPath1065" d="M607.5770371987022 180.73334953831224L473.04533216934436 95.91988332415187" stroke-dasharray="8,5" stroke="#323232" stroke-width="2" fill="none" marker-end="url(#SvgjsMarker1066)"></path></g><g id="SvgjsG1068" transform="translate(121,304)"><path id="SvgjsPath1069" d="M 0 4Q 0 0 4 0L 126 0Q 130 0 130 4L 130 56Q 130 60 126 60L 4 60Q 0 60 0 56Z" stroke="rgba(50,50,50,1)" stroke-width="2" fill-opacity="1" fill="#fff176"></path><g id="SvgjsG1070"><text id="SvgjsText1071" font-family="微软雅黑" text-anchor="middle" font-size="15px" width="110px" fill="#323232" font-weight="700" align="middle" lineHeight="125%" anchor="middle" family="微软雅黑" size="15px" weight="700" font-style="" opacity="1" y="8.125" transform="rotate(0)"><tspan id="SvgjsTspan1072" dy="18" x="65"><tspan id="SvgjsTspan1073" style="text-decoration:;">Core V1</tspan></tspan><tspan id="SvgjsTspan1074" dy="18" x="65"><tspan id="SvgjsTspan1075" style="text-decoration:;">(2022-07-21)</tspan></tspan></text></g></g><g id="SvgjsG1076" transform="translate(404,304)"><path id="SvgjsPath1077" d="M 0 4Q 0 0 4 0L 126 0Q 130 0 130 4L 130 56Q 130 60 126 60L 4 60Q 0 60 0 56Z" stroke="rgba(50,50,50,1)" stroke-width="2" fill-opacity="1" fill="#fff176"></path><g id="SvgjsG1078"><text id="SvgjsText1079" font-family="微软雅黑" text-anchor="middle" font-size="15px" width="110px" fill="#323232" font-weight="700" align="middle" lineHeight="125%" anchor="middle" family="微软雅黑" size="15px" weight="700" font-style="" opacity="1" y="8.125" transform="rotate(0)"><tspan id="SvgjsTspan1080" dy="18" x="65"><tspan id="SvgjsTspan1081" style="text-decoration:;">Core V2</tspan></tspan><tspan id="SvgjsTspan1082" dy="18" x="65"><tspan id="SvgjsTspan1083" style="text-decoration:;">(2022-08-19)</tspan></tspan></text></g></g><g id="SvgjsG1084" transform="translate(544,304)"><path id="SvgjsPath1085" d="M 0 4Q 0 0 4 0L 126 0Q 130 0 130 4L 130 56Q 130 60 126 60L 4 60Q 0 60 0 56Z" stroke="rgba(50,50,50,1)" stroke-width="2" fill-opacity="1" fill="#fff176"></path><g id="SvgjsG1086"><text id="SvgjsText1087" font-family="微软雅黑" text-anchor="middle" font-size="15px" width="110px" fill="#323232" font-weight="700" align="middle" lineHeight="125%" anchor="middle" family="微软雅黑" size="15px" weight="700" font-style="" opacity="1" y="8.125" transform="rotate(0)"><tspan id="SvgjsTspan1088" dy="18" x="65"><tspan id="SvgjsTspan1089" style="text-decoration:;">Core V3</tspan></tspan><tspan id="SvgjsTspan1090" dy="18" x="65"><tspan id="SvgjsTspan1091" style="text-decoration:;">(2022-09-20)</tspan></tspan></text></g></g><g id="SvgjsG1092"><path id="SvgjsPath1093" d="M186 303L186 214.1" stroke="#323232" stroke-width="2" fill="none" marker-end="url(#SvgjsMarker1094)"></path><rect id="SvgjsRect1096" width="26" height="16" x="173" y="250.55" fill="#ffffff"></rect><text id="SvgjsText1097" font-family="微软雅黑" text-anchor="middle" font-size="13px" width="26px" fill="#323232" font-weight="400" align="top" lineHeight="16px" anchor="middle" family="微软雅黑" size="13px" weight="400" font-style="" opacity="1" y="247.925" transform="rotate(0)"><tspan id="SvgjsTspan1098" dy="16" x="186"><tspan id="SvgjsTspan1099" style="text-decoration:;">集成</tspan></tspan></text></g><g id="SvgjsG1100"><path id="SvgjsPath1101" d="M328.1182842572783 364.7859545643368L384.5833188024373 436.5635408505559" stroke="#323232" stroke-width="2" fill="none" marker-end="url(#SvgjsMarker1102)"></path><rect id="SvgjsRect1104" width="26" height="16" x="343.3508015298578" y="392.6747477074464" fill="#ffffff"></rect><text id="SvgjsText1105" font-family="微软雅黑" text-anchor="middle" font-size="13px" width="26px" fill="#323232" font-weight="400" align="top" lineHeight="16px" anchor="middle" family="微软雅黑" size="13px" weight="400" font-style="" opacity="1" y="390.0497477074464" transform="rotate(0)"><tspan id="SvgjsTspan1106" dy="16" x="356.3508015298578"><tspan id="SvgjsTspan1107" style="text-decoration:;">集成</tspan></tspan></text></g><g id="SvgjsG1108"><path id="SvgjsPath1109" d="M469.5508422083307 364.83460940656175L516.7923891541747 436.41271083965864" stroke="#323232" stroke-width="2" fill="none" marker-end="url(#SvgjsMarker1110)"></path><rect id="SvgjsRect1112" width="26" height="16" x="480.17161568125266" y="392.6236601231102" fill="#ffffff"></rect><text id="SvgjsText1113" font-family="微软雅黑" text-anchor="middle" font-size="13px" width="26px" fill="#323232" font-weight="400" align="top" lineHeight="16px" anchor="middle" family="微软雅黑" size="13px" weight="400" font-style="" opacity="1" y="389.9986601231102" transform="rotate(0)"><tspan id="SvgjsTspan1114" dy="16" x="493.17161568125266"><tspan id="SvgjsTspan1115" style="text-decoration:;">集成</tspan></tspan></text></g><g id="SvgjsG1116"><path id="SvgjsPath1117" d="M469 303L469 214.1" stroke="#323232" stroke-width="2" fill="none" marker-end="url(#SvgjsMarker1118)"></path><rect id="SvgjsRect1120" width="26" height="16" x="456" y="250.55" fill="#ffffff"></rect><text id="SvgjsText1121" font-family="微软雅黑" text-anchor="middle" font-size="13px" width="26px" fill="#323232" font-weight="400" align="top" lineHeight="16px" anchor="middle" family="微软雅黑" size="13px" weight="400" font-style="" opacity="1" y="247.925" transform="rotate(0)"><tspan id="SvgjsTspan1122" dy="16" x="469"><tspan id="SvgjsTspan1123" style="text-decoration:;">集成</tspan></tspan></text></g><g id="SvgjsG1124"><path id="SvgjsPath1125" d="M609 303L609 214.1" stroke="#323232" stroke-width="2" fill="none" marker-end="url(#SvgjsMarker1126)"></path><rect id="SvgjsRect1128" width="26" height="16" x="596" y="250.55" fill="#ffffff"></rect><text id="SvgjsText1129" font-family="微软雅黑" text-anchor="middle" font-size="13px" width="26px" fill="#323232" font-weight="400" align="top" lineHeight="16px" anchor="middle" family="微软雅黑" size="13px" weight="400" font-style="" opacity="1" y="247.925" transform="rotate(0)"><tspan id="SvgjsTspan1130" dy="16" x="609"><tspan id="SvgjsTspan1131" style="text-decoration:;">集成</tspan></tspan></text></g><g id="SvgjsG1132"><path id="SvgjsPath1133" d="M609.6182842572783 364.7859545643368L666.0833188024374 436.5635408505559" stroke="#323232" stroke-width="2" fill="none" marker-end="url(#SvgjsMarker1134)"></path><rect id="SvgjsRect1136" width="26" height="16" x="624.8508015298578" y="392.6747477074464" fill="#ffffff"></rect><text id="SvgjsText1137" font-family="微软雅黑" text-anchor="middle" font-size="13px" width="26px" fill="#323232" font-weight="400" align="top" lineHeight="16px" anchor="middle" family="微软雅黑" size="13px" weight="400" font-style="" opacity="1" y="390.0497477074464" transform="rotate(0)"><tspan id="SvgjsTspan1138" dy="16" x="637.8508015298578"><tspan id="SvgjsTspan1139" style="text-decoration:;">集成</tspan></tspan></text></g><g id="SvgjsG1140" transform="translate(262.5,304)"><path id="SvgjsPath1141" d="M 0 4Q 0 0 4 0L 126 0Q 130 0 130 4L 130 56Q 130 60 126 60L 4 60Q 0 60 0 56Z" stroke="rgba(50,50,50,1)" stroke-width="2" fill-opacity="1" fill="#fff176"></path><g id="SvgjsG1142"><text id="SvgjsText1143" font-family="微软雅黑" text-anchor="middle" font-size="15px" width="110px" fill="#323232" font-weight="700" align="middle" lineHeight="125%" anchor="middle" family="微软雅黑" size="15px" weight="700" font-style="" opacity="1" y="8.125" transform="rotate(0)"><tspan id="SvgjsTspan1144" dy="18" x="65"><tspan id="SvgjsTspan1145" style="text-decoration:;">Core V1 Patch</tspan></tspan><tspan id="SvgjsTspan1146" dy="18" x="65"><tspan id="SvgjsTspan1147" style="text-decoration:;">(2022-07-23)</tspan></tspan></text></g></g><g id="SvgjsG1148"><path id="SvgjsPath1149" d="M327.5 303L327.5 214.1" stroke="#323232" stroke-width="2" fill="none" marker-end="url(#SvgjsMarker1150)"></path><rect id="SvgjsRect1152" width="26" height="16" x="314.5" y="250.55" fill="#ffffff"></rect><text id="SvgjsText1153" font-family="微软雅黑" text-anchor="middle" font-size="13px" width="26px" fill="#323232" font-weight="400" align="top" lineHeight="16px" anchor="middle" family="微软雅黑" size="13px" weight="400" font-style="" opacity="1" y="247.925" transform="rotate(0)"><tspan id="SvgjsTspan1154" dy="16" x="327.5"><tspan id="SvgjsTspan1155" style="text-decoration:;">集成</tspan></tspan></text></g><g id="SvgjsG1156"><path id="SvgjsPath1157" d="M58 332L395.5 332L395.5 332L733 332" stroke="#323232" stroke-width="2" fill="none" marker-end="url(#SvgjsMarker1158)"></path><rect id="SvgjsRect1160" width="72" height="23" x="38.875" y="320.5" fill="#ffffff"></rect><text id="SvgjsText1161" font-family="微软雅黑" text-anchor="middle" font-size="18px" width="72px" fill="#323232" font-weight="700" align="top" lineHeight="23px" anchor="middle" family="微软雅黑" size="18px" weight="700" font-style="" opacity="1" y="316.25" transform="rotate(0)"><tspan id="SvgjsTspan1162" dy="22" x="74.875"><tspan id="SvgjsTspan1163" style="text-decoration:;">Timeline</tspan></tspan></text></g><g id="SvgjsG1164" transform="translate(145,181)"><path id="SvgjsPath1165" d="M 0 4Q 0 0 4 0L 76 0Q 80 0 80 4L 80 26Q 80 30 76 30L 4 30Q 0 30 0 26Z" stroke="rgba(50,50,50,1)" stroke-width="1" fill-opacity="1" fill="#fff176"></path><g id="SvgjsG1166"><text id="SvgjsText1167" font-family="微软雅黑" text-anchor="middle" font-size="13px" width="60px" fill="#323232" font-weight="400" align="middle" lineHeight="125%" anchor="middle" family="微软雅黑" size="13px" weight="400" font-style="" opacity="1" y="4.375" transform="rotate(0)"><tspan id="SvgjsTspan1168" dy="16" x="40"><tspan id="SvgjsTspan1169" style="text-decoration:;">Core V1</tspan></tspan></text></g></g><g id="SvgjsG1170" transform="translate(286.5,181)"><path id="SvgjsPath1171" d="M 0 4Q 0 0 4 0L 76 0Q 80 0 80 4L 80 26Q 80 30 76 30L 4 30Q 0 30 0 26Z" stroke="rgba(50,50,50,1)" stroke-width="1" fill-opacity="1" fill="#fff176"></path><g id="SvgjsG1172"><text id="SvgjsText1173" font-family="微软雅黑" text-anchor="middle" font-size="13px" width="60px" fill="#323232" font-weight="400" align="middle" lineHeight="125%" anchor="middle" family="微软雅黑" size="13px" weight="400" font-style="" opacity="1" y="4.375" transform="rotate(0)"><tspan id="SvgjsTspan1174" dy="16" x="40"><tspan id="SvgjsTspan1175" style="text-decoration:;">Core V1.1</tspan></tspan></text></g></g><g id="SvgjsG1176" transform="translate(428,181)"><path id="SvgjsPath1177" d="M 0 4Q 0 0 4 0L 76 0Q 80 0 80 4L 80 26Q 80 30 76 30L 4 30Q 0 30 0 26Z" stroke="rgba(50,50,50,1)" stroke-width="1" fill-opacity="1" fill="#fff176"></path><g id="SvgjsG1178"><text id="SvgjsText1179" font-family="微软雅黑" text-anchor="middle" font-size="13px" width="60px" fill="#323232" font-weight="400" align="middle" lineHeight="125%" anchor="middle" family="微软雅黑" size="13px" weight="400" font-style="" opacity="1" y="4.375" transform="rotate(0)"><tspan id="SvgjsTspan1180" dy="16" x="40"><tspan id="SvgjsTspan1181" style="text-decoration:;">Core V2</tspan></tspan></text></g></g><g id="SvgjsG1182" transform="translate(568,181)"><path id="SvgjsPath1183" d="M 0 4Q 0 0 4 0L 76 0Q 80 0 80 4L 80 26Q 80 30 76 30L 4 30Q 0 30 0 26Z" stroke="rgba(50,50,50,1)" stroke-width="1" fill-opacity="1" fill="#fff176"></path><g id="SvgjsG1184"><text id="SvgjsText1185" font-family="微软雅黑" text-anchor="middle" font-size="13px" width="60px" fill="#323232" font-weight="400" align="middle" lineHeight="125%" anchor="middle" family="微软雅黑" size="13px" weight="400" font-style="" opacity="1" y="4.375" transform="rotate(0)"><tspan id="SvgjsTspan1186" dy="16" x="40"><tspan id="SvgjsTspan1187" style="text-decoration:;">Core V3</tspan></tspan></text></g></g><g id="SvgjsG1188" transform="translate(346.5,439)"><path id="SvgjsPath1189" d="M 0 4Q 0 0 4 0L 76 0Q 80 0 80 4L 80 26Q 80 30 76 30L 4 30Q 0 30 0 26Z" stroke="rgba(50,50,50,1)" stroke-width="1" fill-opacity="1" fill="#fff176"></path><g id="SvgjsG1190"><text id="SvgjsText1191" font-family="微软雅黑" text-anchor="middle" font-size="13px" width="60px" fill="#323232" font-weight="400" align="middle" lineHeight="125%" anchor="middle" family="微软雅黑" size="13px" weight="400" font-style="" opacity="1" y="4.375" transform="rotate(0)"><tspan id="SvgjsTspan1192" dy="16" x="40"><tspan id="SvgjsTspan1193" style="text-decoration:;">Core V1.1</tspan></tspan></text></g></g><g id="SvgjsG1194" transform="translate(478.5,439)"><path id="SvgjsPath1195" d="M 0 4Q 0 0 4 0L 76 0Q 80 0 80 4L 80 26Q 80 30 76 30L 4 30Q 0 30 0 26Z" stroke="rgba(50,50,50,1)" stroke-width="1" fill-opacity="1" fill="#fff176"></path><g id="SvgjsG1196"><text id="SvgjsText1197" font-family="微软雅黑" text-anchor="middle" font-size="13px" width="60px" fill="#323232" font-weight="400" align="middle" lineHeight="125%" anchor="middle" family="微软雅黑" size="13px" weight="400" font-style="" opacity="1" y="4.375" transform="rotate(0)"><tspan id="SvgjsTspan1198" dy="16" x="40"><tspan id="SvgjsTspan1199" style="text-decoration:;">Core V2</tspan></tspan></text></g></g><g id="SvgjsG1200" transform="translate(628,439)"><path id="SvgjsPath1201" d="M 0 4Q 0 0 4 0L 76 0Q 80 0 80 4L 80 26Q 80 30 76 30L 4 30Q 0 30 0 26Z" stroke="rgba(50,50,50,1)" stroke-width="1" fill-opacity="1" fill="#fff176"></path><g id="SvgjsG1202"><text id="SvgjsText1203" font-family="微软雅黑" text-anchor="middle" font-size="13px" width="60px" fill="#323232" font-weight="400" align="middle" lineHeight="125%" anchor="middle" family="微软雅黑" size="13px" weight="400" font-style="" opacity="1" y="4.375" transform="rotate(0)"><tspan id="SvgjsTspan1204" dy="16" x="40"><tspan id="SvgjsTspan1205" style="text-decoration:;">Core V3</tspan></tspan></text></g></g></svg>