<svg id="SvgjsSvg1006" width="742" height="517" xmlns="http://www.w3.org/2000/svg" version="1.1" xmlns:xlink="http://www.w3.org/1999/xlink" xmlns:svgjs="http://svgjs.com/svgjs"><defs id="SvgjsDefs1007"><marker id="SvgjsMarker1098" markerWidth="14" markerHeight="10" refX="10" refY="5" viewBox="0 0 14 10" orient="auto" markerUnits="userSpaceOnUse" stroke-dasharray="0,0"><path id="SvgjsPath1099" d="M0,0 L14,5 L0,10 L0,0" fill="#323232" stroke="#323232" stroke-width="1"></path></marker><marker id="SvgjsMarker1102" markerWidth="14" markerHeight="10" refX="10" refY="5" viewBox="0 0 14 10" orient="auto" markerUnits="userSpaceOnUse" stroke-dasharray="0,0"><path id="SvgjsPath1103" d="M0,0 L14,5 L0,10 L0,0" fill="#323232" stroke="#323232" stroke-width="1"></path></marker><marker id="SvgjsMarker1106" markerWidth="14" markerHeight="10" refX="10" refY="5" viewBox="0 0 14 10" orient="auto" markerUnits="userSpaceOnUse" stroke-dasharray="0,0"><path id="SvgjsPath1107" d="M0,0 L14,5 L0,10 L0,0" fill="#323232" stroke="#323232" stroke-width="1"></path></marker><marker id="SvgjsMarker1110" markerWidth="14" markerHeight="10" refX="10" refY="5" viewBox="0 0 14 10" orient="auto" markerUnits="userSpaceOnUse" stroke-dasharray="0,0"><path id="SvgjsPath1111" d="M0,0 L14,5 L0,10 L0,0" fill="#323232" stroke="#323232" stroke-width="1"></path></marker><marker id="SvgjsMarker1114" markerWidth="14" markerHeight="10" refX="10" refY="5" viewBox="0 0 14 10" orient="auto" markerUnits="userSpaceOnUse" stroke-dasharray="0,0"><path id="SvgjsPath1115" d="M0,0 L14,5 L0,10 L0,0" fill="#323232" stroke="#323232" stroke-width="1"></path></marker><marker id="SvgjsMarker1118" markerWidth="14" markerHeight="10" refX="10" refY="5" viewBox="0 0 14 10" orient="auto" markerUnits="userSpaceOnUse" stroke-dasharray="0,0"><path id="SvgjsPath1119" d="M0,0 L14,5 L0,10 L0,0" fill="#323232" stroke="#323232" stroke-width="1"></path></marker><marker id="SvgjsMarker1122" markerWidth="14" markerHeight="10" refX="10" refY="5" viewBox="0 0 14 10" orient="auto" markerUnits="userSpaceOnUse" stroke-dasharray="0,0"><path id="SvgjsPath1123" d="M0,0 L14,5 L0,10 L0,0" fill="#323232" stroke="#323232" stroke-width="1"></path></marker><marker id="SvgjsMarker1126" markerWidth="14" markerHeight="10" refX="10" refY="5" viewBox="0 0 14 10" orient="auto" markerUnits="userSpaceOnUse" stroke-dasharray="0,0"><path id="SvgjsPath1127" d="M0,0 L14,5 L0,10 L0,0" fill="#323232" stroke="#323232" stroke-width="1"></path></marker></defs><g id="SvgjsG1008" transform="translate(25,25)"><path id="SvgjsPath1009" d="M 0 0L 692 0L 692 467L 0 467Z" stroke="none" fill-opacity="1" fill="#ffffff"></path><g id="SvgjsG1010"><text id="SvgjsText1011" font-family="微软雅黑" text-anchor="middle" font-size="26px" width="672px" fill="#323232" font-weight="700" align="top" lineHeight="125%" anchor="middle" family="微软雅黑" size="26px" weight="700" font-style="" opacity="1" y="-6.25" transform="rotate(0)"><tspan id="SvgjsTspan1012" dy="32" x="346"><tspan id="SvgjsTspan1013" style="text-decoration:;"> </tspan></tspan><tspan id="SvgjsTspan1014" dy="32" x="346"><tspan id="SvgjsTspan1015" style="text-decoration:;"> </tspan></tspan></text></g></g><g id="SvgjsG1016" transform="translate(234,284)"><path id="SvgjsPath1017" d="M 0 0L 459.5 0L 459.5 96L 0 96Z" stroke="none" fill-opacity="1" fill="#f5f5f5"></path><g id="SvgjsG1018"><text id="SvgjsText1019" font-family="微软雅黑" text-anchor="start" font-size="20px" width="440px" fill="#323232" font-weight="700" align="middle" lineHeight="125%" anchor="start" family="微软雅黑" size="20px" weight="700" font-style="" opacity="1" y="30" transform="rotate(0)"><tspan id="SvgjsTspan1020" dy="25" x="10"><tspan id="SvgjsTspan1021" style="text-decoration:;">App 2</tspan></tspan></text></g></g><g id="SvgjsG1022" transform="translate(45,141)"><path id="SvgjsPath1023" d="M 0 0L 580 0L 580 100L 0 100Z" stroke="none" fill-opacity="1" fill="#f5f5f5"></path><g id="SvgjsG1024"><text id="SvgjsText1025" font-family="微软雅黑" text-anchor="start" font-size="20px" width="560px" fill="#323232" font-weight="700" align="middle" lineHeight="125%" anchor="start" family="微软雅黑" size="20px" weight="700" font-style="" opacity="1" y="32" transform="rotate(0)"><tspan id="SvgjsTspan1026" dy="25" x="10"><tspan id="SvgjsTspan1027" style="text-decoration:;">App 1</tspan></tspan></text></g></g><g id="SvgjsG1028" transform="translate(263.5,162)"><path id="SvgjsPath1029" d="M 0 35C 0 -11.666666666666666 70 -11.666666666666666 70 35C 70 81.66666666666667 0 81.66666666666667 0 35Z" stroke="rgba(50,50,50,1)" stroke-width="2" fill-opacity="1" fill="#e0e0e0"></path><g id="SvgjsG1030"><text id="SvgjsText1031" font-family="微软雅黑" text-anchor="middle" font-size="14px" width="50px" fill="#323232" font-weight="700" align="middle" lineHeight="125%" anchor="middle" family="微软雅黑" size="14px" weight="700" font-style="" opacity="1" y="14.75" transform="rotate(0)"><tspan id="SvgjsTspan1032" dy="17" x="35"><tspan id="SvgjsTspan1033" style="text-decoration:;">App 1 </tspan></tspan><tspan id="SvgjsTspan1034" dy="17" x="35"><tspan id="SvgjsTspan1035" style="text-decoration:;">V1.6.2</tspan></tspan></text></g></g><g id="SvgjsG1036" transform="translate(545,162)"><path id="SvgjsPath1037" d="M 0 35C 0 -11.666666666666666 70 -11.666666666666666 70 35C 70 81.66666666666667 0 81.66666666666667 0 35Z" stroke="rgba(50,50,50,1)" stroke-width="2" fill-opacity="1" fill="#e57373"></path><g id="SvgjsG1038"><text id="SvgjsText1039" font-family="微软雅黑" text-anchor="middle" font-size="14px" width="50px" fill="#323232" font-weight="700" align="middle" lineHeight="125%" anchor="middle" family="微软雅黑" size="14px" weight="700" font-style="" opacity="1" y="14.75" transform="rotate(0)"><tspan id="SvgjsTspan1040" dy="17" x="35"><tspan id="SvgjsTspan1041" style="text-decoration:;">App 1 </tspan></tspan><tspan id="SvgjsTspan1042" dy="17" x="35"><tspan id="SvgjsTspan1043" style="text-decoration:;">V3.8.0</tspan></tspan></text></g></g><g id="SvgjsG1044" transform="translate(122,162)"><path id="SvgjsPath1045" d="M 0 35C 0 -11.666666666666666 70 -11.666666666666666 70 35C 70 81.66666666666667 0 81.66666666666667 0 35Z" stroke="rgba(50,50,50,1)" stroke-width="2" fill-opacity="1" fill="#e0e0e0"></path><g id="SvgjsG1046"><text id="SvgjsText1047" font-family="微软雅黑" text-anchor="middle" font-size="14px" width="50px" fill="#323232" font-weight="700" align="middle" lineHeight="125%" anchor="middle" family="微软雅黑" size="14px" weight="700" font-style="" opacity="1" y="14.75" transform="rotate(0)"><tspan id="SvgjsTspan1048" dy="17" x="35"><tspan id="SvgjsTspan1049" style="text-decoration:;">App 1 </tspan></tspan><tspan id="SvgjsTspan1050" dy="17" x="35"><tspan id="SvgjsTspan1051" style="text-decoration:;">V1.6.0</tspan></tspan></text></g></g><g id="SvgjsG1052" transform="translate(405,162)"><path id="SvgjsPath1053" d="M 0 35C 0 -11.666666666666666 70 -11.666666666666666 70 35C 70 81.66666666666667 0 81.66666666666667 0 35Z" stroke="rgba(50,50,50,1)" stroke-width="2" fill-opacity="1" fill="#81c784"></path><g id="SvgjsG1054"><text id="SvgjsText1055" font-family="微软雅黑" text-anchor="middle" font-size="14px" width="50px" fill="#323232" font-weight="700" align="middle" lineHeight="125%" anchor="middle" family="微软雅黑" size="14px" weight="700" font-style="" opacity="1" y="14.75" transform="rotate(0)"><tspan id="SvgjsTspan1056" dy="17" x="35"><tspan id="SvgjsTspan1057" style="text-decoration:;">App 1 </tspan></tspan><tspan id="SvgjsTspan1058" dy="17" x="35"><tspan id="SvgjsTspan1059" style="text-decoration:;">V2.1.0</tspan></tspan></text></g></g><g id="SvgjsG1060" transform="translate(595,297)"><path id="SvgjsPath1061" d="M 0 35C 0 -11.666666666666666 70 -11.666666666666666 70 35C 70 81.66666666666667 0 81.66666666666667 0 35Z" stroke="rgba(50,50,50,1)" stroke-width="2" fill-opacity="1" fill="#e57373"></path><g id="SvgjsG1062"><text id="SvgjsText1063" font-family="微软雅黑" text-anchor="middle" font-size="14px" width="50px" fill="#323232" font-weight="700" align="middle" lineHeight="125%" anchor="middle" family="微软雅黑" size="14px" weight="700" font-style="" opacity="1" y="14.75" transform="rotate(0)"><tspan id="SvgjsTspan1064" dy="17" x="35"><tspan id="SvgjsTspan1065" style="text-decoration:;">App 2 </tspan></tspan><tspan id="SvgjsTspan1066" dy="17" x="35"><tspan id="SvgjsTspan1067" style="text-decoration:;">V2.2.4</tspan></tspan></text></g></g><g id="SvgjsG1068" transform="translate(315,297)"><path id="SvgjsPath1069" d="M 0 35C 0 -11.666666666666666 70 -11.666666666666666 70 35C 70 81.66666666666667 0 81.66666666666667 0 35Z" stroke="rgba(50,50,50,1)" stroke-width="2" fill-opacity="1" fill="#e0e0e0"></path><g id="SvgjsG1070"><text id="SvgjsText1071" font-family="微软雅黑" text-anchor="middle" font-size="14px" width="50px" fill="#323232" font-weight="700" align="middle" lineHeight="125%" anchor="middle" family="微软雅黑" size="14px" weight="700" font-style="" opacity="1" y="14.75" transform="rotate(0)"><tspan id="SvgjsTspan1072" dy="17" x="35"><tspan id="SvgjsTspan1073" style="text-decoration:;">App 2 </tspan></tspan><tspan id="SvgjsTspan1074" dy="17" x="35"><tspan id="SvgjsTspan1075" style="text-decoration:;">V2.1.0</tspan></tspan></text></g></g><g id="SvgjsG1076" transform="translate(455,297)"><path id="SvgjsPath1077" d="M 0 35C 0 -11.666666666666666 70 -11.666666666666666 70 35C 70 81.66666666666667 0 81.66666666666667 0 35Z" stroke="rgba(50,50,50,1)" stroke-width="2" fill-opacity="1" fill="#81c784"></path><g id="SvgjsG1078"><text id="SvgjsText1079" font-family="微软雅黑" text-anchor="middle" font-size="14px" width="50px" fill="#323232" font-weight="700" align="middle" lineHeight="125%" anchor="middle" family="微软雅黑" size="14px" weight="700" font-style="" opacity="1" y="14.75" transform="rotate(0)"><tspan id="SvgjsTspan1080" dy="17" x="35"><tspan id="SvgjsTspan1081" style="text-decoration:;">App 2 </tspan></tspan><tspan id="SvgjsTspan1082" dy="17" x="35"><tspan id="SvgjsTspan1083" style="text-decoration:;">V2.2.3</tspan></tspan></text></g></g><g id="SvgjsG1084" transform="translate(365,33)"><path id="SvgjsPath1085" d="M 0 4Q 0 0 4 0L 146 0Q 150 0 150 4L 150 56Q 150 60 146 60L 4 60Q 0 60 0 56Z" stroke="rgba(50,50,50,1)" stroke-width="2" fill-opacity="1" fill="#ffffff"></path><g id="SvgjsG1086"><text id="SvgjsText1087" font-family="微软雅黑" text-anchor="middle" font-size="15px" width="130px" fill="#323232" font-weight="700" align="middle" lineHeight="125%" anchor="middle" family="微软雅黑" size="15px" weight="700" font-style="" opacity="1" y="17.625" transform="rotate(0)"><tspan id="SvgjsTspan1088" dy="18" x="75"><tspan id="SvgjsTspan1089" style="text-decoration:;">App 1 IM Servers</tspan></tspan></text></g></g><g id="SvgjsG1090" transform="translate(413.5,423)"><path id="SvgjsPath1091" d="M 0 4Q 0 0 4 0L 146 0Q 150 0 150 4L 150 56Q 150 60 146 60L 4 60Q 0 60 0 56Z" stroke="rgba(50,50,50,1)" stroke-width="2" fill-opacity="1" fill="#ffffff"></path><g id="SvgjsG1092"><text id="SvgjsText1093" font-family="微软雅黑" text-anchor="middle" font-size="15px" width="130px" fill="#323232" font-weight="700" align="middle" lineHeight="125%" anchor="middle" family="微软雅黑" size="15px" weight="700" font-style="" opacity="1" y="17.625" transform="rotate(0)"><tspan id="SvgjsTspan1094" dy="18" x="75"><tspan id="SvgjsTspan1095" style="text-decoration:;">App 2 IM Servers</tspan></tspan></text></g></g><g id="SvgjsG1096"><path id="SvgjsPath1097" d="M350.92708532022465 367.37485038218466L485.1624928471914 421.65053862413515" stroke-dasharray="8,5" stroke="#323232" stroke-width="2" fill="none" marker-end="url(#SvgjsMarker1098)"></path></g><g id="SvgjsG1100"><path id="SvgjsPath1101" d="M489.97322388958 367.9996414556784L488.5963939975119 419.40129075955787" stroke-dasharray="8,5" stroke="#323232" stroke-width="2" fill="none" marker-end="url(#SvgjsMarker1102)"></path></g><g id="SvgjsG1104"><path id="SvgjsPath1105" d="M629.0701699641397 367.3679892721426L491.8473881290971 421.6752386202867" stroke-dasharray="8,5" stroke="#323232" stroke-width="2" fill="none" marker-end="url(#SvgjsMarker1106)"></path></g><g id="SvgjsG1108"><path id="SvgjsPath1109" d="M157.97153961126864 161.76312285096276L436.50245739943296 93.85275773653402" stroke-dasharray="8,5" stroke="#323232" stroke-width="2" fill="none" marker-end="url(#SvgjsMarker1110)"></path></g><g id="SvgjsG1112"><path id="SvgjsPath1113" d="M299.3988294859631 161.5617015227459L436.76421385053277 94.57787451811478" stroke-dasharray="8,5" stroke="#323232" stroke-width="2" fill="none" marker-end="url(#SvgjsMarker1114)"></path></g><g id="SvgjsG1116"><path id="SvgjsPath1117" d="M440 161L440 96.6" stroke-dasharray="8,5" stroke="#323232" stroke-width="2" fill="none" marker-end="url(#SvgjsMarker1118)"></path></g><g id="SvgjsG1120"><path id="SvgjsPath1121" d="M579.103024708789 161.5579193207603L443.2291110483594 94.59149044526288" stroke-dasharray="8,5" stroke="#323232" stroke-width="2" fill="none" marker-end="url(#SvgjsMarker1122)"></path></g><g id="SvgjsG1124"><path id="SvgjsPath1125" d="M107 263L396.5 263L396.5 263L686 263" stroke="#323232" stroke-width="2" fill="none" marker-end="url(#SvgjsMarker1126)"></path><rect id="SvgjsRect1128" width="72" height="23" x="360.5" y="251.5" fill="#ffffff"></rect><text id="SvgjsText1129" font-family="微软雅黑" text-anchor="middle" font-size="18px" width="72px" fill="#323232" font-weight="700" align="top" lineHeight="23px" anchor="middle" family="微软雅黑" size="18px" weight="700" font-style="" opacity="1" y="247.25" transform="rotate(0)"><tspan id="SvgjsTspan1130" dy="22" x="396.5"><tspan id="SvgjsTspan1131" style="text-decoration:;">Timeline</tspan></tspan></text></g></svg>