<svg id="SvgjsSvg1006" width="780" height="420" xmlns="http://www.w3.org/2000/svg" version="1.1" xmlns:xlink="http://www.w3.org/1999/xlink" xmlns:svgjs="http://svgjs.com/svgjs"><defs id="SvgjsDefs1007"></defs><g id="SvgjsG1008" transform="translate(25,25)"><path id="SvgjsPath1009" d="M 0 0L 730 0L 730 370L 0 370Z" stroke="none" fill-opacity="1" fill="#ffffff"></path><g id="SvgjsG1010"><text id="SvgjsText1011" font-family="微软雅黑" text-anchor="middle" font-size="26px" width="710px" fill="#323232" font-weight="700" align="top" lineHeight="125%" anchor="middle" family="微软雅黑" size="26px" weight="700" font-style="" opacity="1" y="-6.25" transform="rotate(0)"><tspan id="SvgjsTspan1012" dy="32" x="365"><tspan id="SvgjsTspan1013" style="text-decoration:;"> </tspan></tspan><tspan id="SvgjsTspan1014" dy="32" x="365"><tspan id="SvgjsTspan1015" style="text-decoration:;"> </tspan></tspan></text></g></g><g id="SvgjsG1016" transform="translate(53.5,160)"><path id="SvgjsPath1017" d="M 0 4Q 0 0 4 0L 666 0Q 670 0 670 4L 670 96Q 670 100 666 100L 4 100Q 0 100 0 96Z" stroke="rgba(50,50,50,1)" stroke-width="2" fill-opacity="1" fill="#e0e0e0"></path><g id="SvgjsG1018"><text id="SvgjsText1019" font-family="微软雅黑" text-anchor="start" font-size="15px" width="650px" fill="#323232" font-weight="700" align="middle" lineHeight="125%" anchor="start" family="微软雅黑" size="15px" weight="700" font-style="" opacity="1" y="37.625" transform="rotate(0)"><tspan id="SvgjsTspan1020" dy="18" x="10"><tspan id="SvgjsTspan1021" style="text-decoration:;">App 2</tspan></tspan></text></g></g><g id="SvgjsG1022" transform="translate(53.5,33)"><path id="SvgjsPath1023" d="M 0 4Q 0 0 4 0L 666 0Q 670 0 670 4L 670 96Q 670 100 666 100L 4 100Q 0 100 0 96Z" stroke="rgba(50,50,50,1)" stroke-width="2" fill-opacity="1" fill="#e0e0e0"></path><g id="SvgjsG1024"><text id="SvgjsText1025" font-family="微软雅黑" text-anchor="start" font-size="15px" width="650px" fill="#323232" font-weight="700" align="middle" lineHeight="125%" anchor="start" family="微软雅黑" size="15px" weight="700" font-style="" opacity="1" y="37.625" transform="rotate(0)"><tspan id="SvgjsTspan1026" dy="18" x="10"><tspan id="SvgjsTspan1027" style="text-decoration:;">App 1</tspan></tspan></text></g></g><g id="SvgjsG1028" transform="translate(170.5,48)"><path id="SvgjsPath1029" d="M 0 4Q 0 0 4 0L 417 0Q 421 0 421 4L 421 66Q 421 70 417 70L 4 70Q 0 70 0 66Z" stroke-dasharray="10,6" stroke="rgba(50,50,50,1)" stroke-width="2" fill-opacity="1" fill="#fff176"></path><g id="SvgjsG1030"><text id="SvgjsText1031" font-family="微软雅黑" text-anchor="middle" font-size="15px" width="401px" fill="#323232" font-weight="700" align="top" lineHeight="125%" anchor="middle" family="微软雅黑" size="15px" weight="700" font-style="" opacity="1" y="-2.875" transform="rotate(0)"><tspan id="SvgjsTspan1032" dy="18" x="210.5"><tspan id="SvgjsTspan1033" style="text-decoration:;">Core</tspan></tspan></text></g></g><g id="SvgjsG1034" transform="translate(179,76)"><path id="SvgjsPath1035" d="M 0 4Q 0 0 4 0L 56 0Q 60 0 60 4L 60 26Q 60 30 56 30L 4 30Q 0 30 0 26Z" stroke="rgba(50,50,50,1)" stroke-width="2" fill-opacity="1" fill="#64b5f6"></path><g id="SvgjsG1036"><text id="SvgjsText1037" font-family="微软雅黑" text-anchor="middle" font-size="15px" width="40px" fill="#323232" font-weight="700" align="middle" lineHeight="125%" anchor="middle" family="微软雅黑" size="15px" weight="700" font-style="" opacity="1" y="2.625" transform="rotate(0)"><tspan id="SvgjsTspan1038" dy="18" x="30"><tspan id="SvgjsTspan1039" style="text-decoration:;">IM</tspan></tspan></text></g></g><g id="SvgjsG1040" transform="translate(251,76)"><path id="SvgjsPath1041" d="M 0 4Q 0 0 4 0L 76 0Q 80 0 80 4L 80 26Q 80 30 76 30L 4 30Q 0 30 0 26Z" stroke="rgba(50,50,50,1)" stroke-width="2" fill-opacity="1" fill="#64b5f6"></path><g id="SvgjsG1042"><text id="SvgjsText1043" font-family="微软雅黑" text-anchor="middle" font-size="15px" width="60px" fill="#323232" font-weight="700" align="middle" lineHeight="125%" anchor="middle" family="微软雅黑" size="15px" weight="700" font-style="" opacity="1" y="2.625" transform="rotate(0)"><tspan id="SvgjsTspan1044" dy="18" x="40"><tspan id="SvgjsTspan1045" style="text-decoration:;">联系人</tspan></tspan></text></g></g><g id="SvgjsG1046" transform="translate(343,76)"><path id="SvgjsPath1047" d="M 0 4Q 0 0 4 0L 66 0Q 70 0 70 4L 70 26Q 70 30 66 30L 4 30Q 0 30 0 26Z" stroke="rgba(50,50,50,1)" stroke-width="2" fill-opacity="1" fill="#64b5f6"></path><g id="SvgjsG1048"><text id="SvgjsText1049" font-family="微软雅黑" text-anchor="middle" font-size="15px" width="50px" fill="#323232" font-weight="700" align="middle" lineHeight="125%" anchor="middle" family="微软雅黑" size="15px" weight="700" font-style="" opacity="1" y="2.625" transform="rotate(0)"><tspan id="SvgjsTspan1050" dy="18" x="35"><tspan id="SvgjsTspan1051" style="text-decoration:;">长连接</tspan></tspan></text></g></g><g id="SvgjsG1052" transform="translate(171,175)"><path id="SvgjsPath1053" d="M 0 4Q 0 0 4 0L 417 0Q 421 0 421 4L 421 66Q 421 70 417 70L 4 70Q 0 70 0 66Z" stroke-dasharray="10,6" stroke="rgba(50,50,50,1)" stroke-width="2" fill-opacity="1" fill="#fff176"></path><g id="SvgjsG1054"><text id="SvgjsText1055" font-family="微软雅黑" text-anchor="middle" font-size="15px" width="401px" fill="#323232" font-weight="700" align="top" lineHeight="125%" anchor="middle" family="微软雅黑" size="15px" weight="700" font-style="" opacity="1" y="-2.875" transform="rotate(0)"><tspan id="SvgjsTspan1056" dy="18" x="210.5"><tspan id="SvgjsTspan1057" style="text-decoration:;">Core</tspan></tspan></text></g></g><g id="SvgjsG1058" transform="translate(179.5,203)"><path id="SvgjsPath1059" d="M 0 4Q 0 0 4 0L 56 0Q 60 0 60 4L 60 26Q 60 30 56 30L 4 30Q 0 30 0 26Z" stroke="rgba(50,50,50,1)" stroke-width="2" fill-opacity="1" fill="#64b5f6"></path><g id="SvgjsG1060"><text id="SvgjsText1061" font-family="微软雅黑" text-anchor="middle" font-size="15px" width="40px" fill="#323232" font-weight="700" align="middle" lineHeight="125%" anchor="middle" family="微软雅黑" size="15px" weight="700" font-style="" opacity="1" y="2.625" transform="rotate(0)"><tspan id="SvgjsTspan1062" dy="18" x="30"><tspan id="SvgjsTspan1063" style="text-decoration:;">IM</tspan></tspan></text></g></g><g id="SvgjsG1064" transform="translate(251.5,203)"><path id="SvgjsPath1065" d="M 0 4Q 0 0 4 0L 76 0Q 80 0 80 4L 80 26Q 80 30 76 30L 4 30Q 0 30 0 26Z" stroke="rgba(50,50,50,1)" stroke-width="2" fill-opacity="1" fill="#64b5f6"></path><g id="SvgjsG1066"><text id="SvgjsText1067" font-family="微软雅黑" text-anchor="middle" font-size="15px" width="60px" fill="#323232" font-weight="700" align="middle" lineHeight="125%" anchor="middle" family="微软雅黑" size="15px" weight="700" font-style="" opacity="1" y="2.625" transform="rotate(0)"><tspan id="SvgjsTspan1068" dy="18" x="40"><tspan id="SvgjsTspan1069" style="text-decoration:;">联系人</tspan></tspan></text></g></g><g id="SvgjsG1070" transform="translate(343,203)"><path id="SvgjsPath1071" d="M 0 4Q 0 0 4 0L 66 0Q 70 0 70 4L 70 26Q 70 30 66 30L 4 30Q 0 30 0 26Z" stroke="rgba(50,50,50,1)" stroke-width="2" fill-opacity="1" fill="#64b5f6"></path><g id="SvgjsG1072"><text id="SvgjsText1073" font-family="微软雅黑" text-anchor="middle" font-size="15px" width="50px" fill="#323232" font-weight="700" align="middle" lineHeight="125%" anchor="middle" family="微软雅黑" size="15px" weight="700" font-style="" opacity="1" y="2.625" transform="rotate(0)"><tspan id="SvgjsTspan1074" dy="18" x="35"><tspan id="SvgjsTspan1075" style="text-decoration:;">长连接</tspan></tspan></text></g></g><g id="SvgjsG1076" transform="translate(608,48)"><path id="SvgjsPath1077" d="M 0 4Q 0 0 4 0L 96 0Q 100 0 100 4L 100 66Q 100 70 96 70L 4 70Q 0 70 0 66Z" stroke-dasharray="10,6" stroke="rgba(50,50,50,1)" stroke-width="2" fill-opacity="1" fill="#e0e0e0"></path><g id="SvgjsG1078"><text id="SvgjsText1079" font-family="微软雅黑" text-anchor="middle" font-size="15px" width="80px" fill="#323232" font-weight="700" align="middle" lineHeight="125%" anchor="middle" family="微软雅黑" size="15px" weight="700" font-style="" opacity="1" y="22.625" transform="rotate(0)"><tspan id="SvgjsTspan1080" dy="18" x="50"><tspan id="SvgjsTspan1081" style="text-decoration:;">Other</tspan></tspan></text></g></g><g id="SvgjsG1082" transform="translate(608,175)"><path id="SvgjsPath1083" d="M 0 4Q 0 0 4 0L 96 0Q 100 0 100 4L 100 66Q 100 70 96 70L 4 70Q 0 70 0 66Z" stroke-dasharray="10,6" stroke="rgba(50,50,50,1)" stroke-width="2" fill-opacity="1" fill="#e0e0e0"></path><g id="SvgjsG1084"><text id="SvgjsText1085" font-family="微软雅黑" text-anchor="middle" font-size="15px" width="80px" fill="#323232" font-weight="700" align="middle" lineHeight="125%" anchor="middle" family="微软雅黑" size="15px" weight="700" font-style="" opacity="1" y="22.625" transform="rotate(0)"><tspan id="SvgjsTspan1086" dy="18" x="50"><tspan id="SvgjsTspan1087" style="text-decoration:;">Other</tspan></tspan></text></g></g><g id="SvgjsG1088" transform="translate(53.5,287)"><path id="SvgjsPath1089" d="M 0 4Q 0 0 4 0L 666 0Q 670 0 670 4L 670 96Q 670 100 666 100L 4 100Q 0 100 0 96Z" stroke="rgba(50,50,50,1)" stroke-width="2" fill-opacity="1" fill="#e0e0e0"></path><g id="SvgjsG1090"><text id="SvgjsText1091" font-family="微软雅黑" text-anchor="start" font-size="15px" width="650px" fill="#323232" font-weight="700" align="middle" lineHeight="125%" anchor="start" family="微软雅黑" size="15px" weight="700" font-style="" opacity="1" y="37.625" transform="rotate(0)"><tspan id="SvgjsTspan1092" dy="18" x="10"><tspan id="SvgjsTspan1093" style="text-decoration:;">App 3</tspan></tspan></text></g></g><g id="SvgjsG1094" transform="translate(171,302)"><path id="SvgjsPath1095" d="M 0 4Q 0 0 4 0L 417 0Q 421 0 421 4L 421 66Q 421 70 417 70L 4 70Q 0 70 0 66Z" stroke-dasharray="10,6" stroke="rgba(50,50,50,1)" stroke-width="2" fill-opacity="1" fill="#fff176"></path><g id="SvgjsG1096"><text id="SvgjsText1097" font-family="微软雅黑" text-anchor="middle" font-size="15px" width="401px" fill="#323232" font-weight="700" align="top" lineHeight="125%" anchor="middle" family="微软雅黑" size="15px" weight="700" font-style="" opacity="1" y="-2.875" transform="rotate(0)"><tspan id="SvgjsTspan1098" dy="18" x="210.5"><tspan id="SvgjsTspan1099" style="text-decoration:;">Core</tspan></tspan></text></g></g><g id="SvgjsG1100" transform="translate(179.5,330)"><path id="SvgjsPath1101" d="M 0 4Q 0 0 4 0L 56 0Q 60 0 60 4L 60 26Q 60 30 56 30L 4 30Q 0 30 0 26Z" stroke="rgba(50,50,50,1)" stroke-width="2" fill-opacity="1" fill="#64b5f6"></path><g id="SvgjsG1102"><text id="SvgjsText1103" font-family="微软雅黑" text-anchor="middle" font-size="15px" width="40px" fill="#323232" font-weight="700" align="middle" lineHeight="125%" anchor="middle" family="微软雅黑" size="15px" weight="700" font-style="" opacity="1" y="2.625" transform="rotate(0)"><tspan id="SvgjsTspan1104" dy="18" x="30"><tspan id="SvgjsTspan1105" style="text-decoration:;">IM</tspan></tspan></text></g></g><g id="SvgjsG1106" transform="translate(251.5,330)"><path id="SvgjsPath1107" d="M 0 4Q 0 0 4 0L 76 0Q 80 0 80 4L 80 26Q 80 30 76 30L 4 30Q 0 30 0 26Z" stroke="rgba(50,50,50,1)" stroke-width="2" fill-opacity="1" fill="#64b5f6"></path><g id="SvgjsG1108"><text id="SvgjsText1109" font-family="微软雅黑" text-anchor="middle" font-size="15px" width="60px" fill="#323232" font-weight="700" align="middle" lineHeight="125%" anchor="middle" family="微软雅黑" size="15px" weight="700" font-style="" opacity="1" y="2.625" transform="rotate(0)"><tspan id="SvgjsTspan1110" dy="18" x="40"><tspan id="SvgjsTspan1111" style="text-decoration:;">联系人</tspan></tspan></text></g></g><g id="SvgjsG1112" transform="translate(343,330)"><path id="SvgjsPath1113" d="M 0 4Q 0 0 4 0L 66 0Q 70 0 70 4L 70 26Q 70 30 66 30L 4 30Q 0 30 0 26Z" stroke="rgba(50,50,50,1)" stroke-width="2" fill-opacity="1" fill="#64b5f6"></path><g id="SvgjsG1114"><text id="SvgjsText1115" font-family="微软雅黑" text-anchor="middle" font-size="15px" width="50px" fill="#323232" font-weight="700" align="middle" lineHeight="125%" anchor="middle" family="微软雅黑" size="15px" weight="700" font-style="" opacity="1" y="2.625" transform="rotate(0)"><tspan id="SvgjsTspan1116" dy="18" x="35"><tspan id="SvgjsTspan1117" style="text-decoration:;">长连接</tspan></tspan></text></g></g><g id="SvgjsG1118" transform="translate(608,302)"><path id="SvgjsPath1119" d="M 0 4Q 0 0 4 0L 96 0Q 100 0 100 4L 100 66Q 100 70 96 70L 4 70Q 0 70 0 66Z" stroke-dasharray="10,6" stroke="rgba(50,50,50,1)" stroke-width="2" fill-opacity="1" fill="#e0e0e0"></path><g id="SvgjsG1120"><text id="SvgjsText1121" font-family="微软雅黑" text-anchor="middle" font-size="15px" width="80px" fill="#323232" font-weight="700" align="middle" lineHeight="125%" anchor="middle" family="微软雅黑" size="15px" weight="700" font-style="" opacity="1" y="22.625" transform="rotate(0)"><tspan id="SvgjsTspan1122" dy="18" x="50"><tspan id="SvgjsTspan1123" style="text-decoration:;">Other</tspan></tspan></text></g></g><g id="SvgjsG1124" transform="translate(429,76)"><path id="SvgjsPath1125" d="M 0 4Q 0 0 4 0L 66 0Q 70 0 70 4L 70 26Q 70 30 66 30L 4 30Q 0 30 0 26Z" stroke="rgba(50,50,50,1)" stroke-width="2" fill-opacity="1" fill="#64b5f6"></path><g id="SvgjsG1126"><text id="SvgjsText1127" font-family="微软雅黑" text-anchor="middle" font-size="15px" width="50px" fill="#323232" font-weight="700" align="middle" lineHeight="125%" anchor="middle" family="微软雅黑" size="15px" weight="700" font-style="" opacity="1" y="2.625" transform="rotate(0)"><tspan id="SvgjsTspan1128" dy="18" x="35"><tspan id="SvgjsTspan1129" style="text-decoration:;">朋友圈</tspan></tspan></text></g></g></svg>