<svg id="SvgjsSvg1006" width="754" height="419" xmlns="http://www.w3.org/2000/svg" version="1.1" xmlns:xlink="http://www.w3.org/1999/xlink" xmlns:svgjs="http://svgjs.com/svgjs"><defs id="SvgjsDefs1007"><marker id="SvgjsMarker1054" markerWidth="12" markerHeight="8" refX="9" refY="4" viewBox="0 0 12 8" orient="auto" markerUnits="userSpaceOnUse" stroke-dasharray="0,0"><path id="SvgjsPath1055" d="M0,0 L12,4 L0,8 L0,0" fill="#323232" stroke="#323232" stroke-width="1"></path></marker><marker id="SvgjsMarker1062" markerWidth="12" markerHeight="8" refX="9" refY="4" viewBox="0 0 12 8" orient="auto" markerUnits="userSpaceOnUse" stroke-dasharray="0,0"><path id="SvgjsPath1063" d="M0,0 L12,4 L0,8 L0,0" fill="#323232" stroke="#323232" stroke-width="1"></path></marker><marker id="SvgjsMarker1070" markerWidth="12" markerHeight="8" refX="9" refY="4" viewBox="0 0 12 8" orient="auto" markerUnits="userSpaceOnUse" stroke-dasharray="0,0"><path id="SvgjsPath1071" d="M0,0 L12,4 L0,8 L0,0" fill="#323232" stroke="#323232" stroke-width="1"></path></marker><marker id="SvgjsMarker1126" markerWidth="14" markerHeight="12" refX="16" refY="6" viewBox="0 0 14 12" orient="auto" markerUnits="userSpaceOnUse" stroke-dasharray="0,0"><path id="SvgjsPath1127" d="M1,1 L14,6 L1,11L1,1" fill="#ffffff" stroke="#323232" stroke-width="2"></path></marker><marker id="SvgjsMarker1138" markerWidth="14" markerHeight="12" refX="16" refY="6" viewBox="0 0 14 12" orient="auto" markerUnits="userSpaceOnUse" stroke-dasharray="0,0"><path id="SvgjsPath1139" d="M1,1 L14,6 L1,11L1,1" fill="#ffffff" stroke="#323232" stroke-width="2"></path></marker><marker id="SvgjsMarker1142" markerWidth="14" markerHeight="12" refX="16" refY="6" viewBox="0 0 14 12" orient="auto" markerUnits="userSpaceOnUse" stroke-dasharray="0,0"><path id="SvgjsPath1143" d="M1,1 L14,6 L1,11L1,1" fill="#ffffff" stroke="#323232" stroke-width="2"></path></marker><marker id="SvgjsMarker1146" markerWidth="12" markerHeight="8" refX="9" refY="4" viewBox="0 0 12 8" orient="auto" markerUnits="userSpaceOnUse" stroke-dasharray="0,0"><path id="SvgjsPath1147" d="M0,0 L12,4 L0,8 L0,0" fill="#323232" stroke="#323232" stroke-width="1"></path></marker><marker id="SvgjsMarker1150" markerWidth="12" markerHeight="8" refX="9" refY="4" viewBox="0 0 12 8" orient="auto" markerUnits="userSpaceOnUse" stroke-dasharray="0,0"><path id="SvgjsPath1151" d="M0,0 L12,4 L0,8 L0,0" fill="#323232" stroke="#323232" stroke-width="1"></path></marker><marker id="SvgjsMarker1154" markerWidth="12" markerHeight="8" refX="9" refY="4" viewBox="0 0 12 8" orient="auto" markerUnits="userSpaceOnUse" stroke-dasharray="0,0"><path id="SvgjsPath1155" d="M0,0 L12,4 L0,8 L0,0" fill="#323232" stroke="#323232" stroke-width="1"></path></marker><marker id="SvgjsMarker1158" markerWidth="12" markerHeight="8" refX="9" refY="4" viewBox="0 0 12 8" orient="auto" markerUnits="userSpaceOnUse" stroke-dasharray="0,0"><path id="SvgjsPath1159" d="M0,0 L12,4 L0,8 L0,0" fill="#323232" stroke="#323232" stroke-width="1"></path></marker><marker id="SvgjsMarker1162" markerWidth="12" markerHeight="8" refX="9" refY="4" viewBox="0 0 12 8" orient="auto" markerUnits="userSpaceOnUse" stroke-dasharray="0,0"><path id="SvgjsPath1163" d="M0,0 L12,4 L0,8 L0,0" fill="#323232" stroke="#323232" stroke-width="1"></path></marker><marker id="SvgjsMarker1166" markerWidth="12" markerHeight="8" refX="9" refY="4" viewBox="0 0 12 8" orient="auto" markerUnits="userSpaceOnUse" stroke-dasharray="0,0"><path id="SvgjsPath1167" d="M0,0 L12,4 L0,8 L0,0" fill="#323232" stroke="#323232" stroke-width="1"></path></marker></defs><g id="SvgjsG1008" transform="translate(25,25)"><path id="SvgjsPath1009" d="M 0 0L 704 0L 704 369L 0 369Z" stroke="none" fill-opacity="1" fill="#ffffff"></path><g id="SvgjsG1010"><text id="SvgjsText1011" font-family="微软雅黑" text-anchor="middle" font-size="30px" width="684px" fill="#323232" font-weight="700" align="top" lineHeight="125%" anchor="middle" family="微软雅黑" size="30px" weight="700" font-style="" opacity="1" y="-6.75" transform="rotate(0)"><tspan id="SvgjsTspan1012" dy="37" x="352"><tspan id="SvgjsTspan1013" style="text-decoration:;"> </tspan></tspan></text></g></g><g id="SvgjsG1014" transform="translate(211,123)"><path id="SvgjsPath1015" d="M 0 4Q 0 0 4 0L 479 0Q 483 0 483 4L 483 244Q 483 248 479 248L 4 248Q 0 248 0 244Z" stroke="rgba(50,50,50,1)" stroke-width="1" fill-opacity="1" fill="#c8e6c9"></path><g id="SvgjsG1016"><text id="SvgjsText1017" font-family="微软雅黑" text-anchor="middle" font-size="16px" width="463px" fill="#323232" font-weight="700" align="top" lineHeight="125%" anchor="middle" family="微软雅黑" size="16px" weight="700" font-style="" opacity="1" y="-4" transform="rotate(0)"><tspan id="SvgjsTspan1018" dy="20" x="241.5"><tspan id="SvgjsTspan1019" style="text-decoration:;font-size: inherit;">JVM</tspan></tspan></text></g></g><g id="SvgjsG1020" transform="translate(239,48.5)"><path id="SvgjsPath1021" d="M 0 4Q 0 0 4 0L 116 0Q 120 0 120 4L 120 40Q 120 44 116 44L 4 44Q 0 44 0 40Z" stroke="rgba(50,50,50,1)" stroke-width="2" fill-opacity="1" fill="#81c784"></path><g id="SvgjsG1022"><text id="SvgjsText1023" font-family="微软雅黑" text-anchor="middle" font-size="13px" width="100px" fill="#212121" font-weight="400" align="middle" lineHeight="125%" anchor="middle" family="微软雅黑" size="13px" weight="400" font-style="" opacity="1" y="2.875" transform="rotate(0)"><tspan id="SvgjsTspan1024" dy="16" x="60"><tspan id="SvgjsTspan1025" style="text-decoration:;">&lt;&lt;Interface&gt;&gt; </tspan></tspan><tspan id="SvgjsTspan1026" dy="16" x="60"><tspan id="SvgjsTspan1027" style="text-decoration:;">ServletContext</tspan></tspan></text></g></g><g id="SvgjsG1028" transform="translate(43,179)"><path id="SvgjsPath1029" d="M 9.333333333333332 5C 9.333333333333332 -1.6666666666666665 18.666666666666664 -1.6666666666666665 18.666666666666664 5C 18.666666666666664 11.666666666666666 9.333333333333332 11.666666666666666 9.333333333333332 5M 14 10L 14 30M 14 30L 2.333333333333333 40M 14 30L 25.666666666666664 40M 0 20L 28 20" stroke="rgba(50,50,50,1)" stroke-width="2" fill-opacity="1" fill="#ffffff"></path><path id="SvgjsPath1030" d="M 0 0L 28 0L 28 40L 0 40Z" stroke="none" fill="none"></path><g id="SvgjsG1031"><text id="SvgjsText1032" font-family="微软雅黑" text-anchor="middle" font-size="13px" width="68px" fill="#323232" font-weight="700" align="middle" lineHeight="125%" anchor="middle" family="微软雅黑" size="13px" weight="700" font-style="" opacity="1" y="44.375" transform="rotate(0)"></text></g></g><g id="SvgjsG1033" transform="translate(43,237)"><path id="SvgjsPath1034" d="M 9.333333333333332 5C 9.333333333333332 -1.6666666666666665 18.666666666666664 -1.6666666666666665 18.666666666666664 5C 18.666666666666664 11.666666666666666 9.333333333333332 11.666666666666666 9.333333333333332 5M 14 10L 14 30M 14 30L 2.333333333333333 40M 14 30L 25.666666666666664 40M 0 20L 28 20" stroke="rgba(50,50,50,1)" stroke-width="2" fill-opacity="1" fill="#ffffff"></path><path id="SvgjsPath1035" d="M 0 0L 28 0L 28 40L 0 40Z" stroke="none" fill="none"></path><g id="SvgjsG1036"><text id="SvgjsText1037" font-family="微软雅黑" text-anchor="middle" font-size="13px" width="68px" fill="#323232" font-weight="700" align="middle" lineHeight="125%" anchor="middle" family="微软雅黑" size="13px" weight="700" font-style="" opacity="1" y="44.375" transform="rotate(0)"></text></g></g><g id="SvgjsG1038" transform="translate(43,295.5)"><path id="SvgjsPath1039" d="M 9.333333333333332 5C 9.333333333333332 -1.6666666666666665 18.666666666666664 -1.6666666666666665 18.666666666666664 5C 18.666666666666664 11.666666666666666 9.333333333333332 11.666666666666666 9.333333333333332 5M 14 10L 14 30M 14 30L 2.333333333333333 40M 14 30L 25.666666666666664 40M 0 20L 28 20" stroke="rgba(50,50,50,1)" stroke-width="2" fill-opacity="1" fill="#ffffff"></path><path id="SvgjsPath1040" d="M 0 0L 28 0L 28 40L 0 40Z" stroke="none" fill="none"></path><g id="SvgjsG1041"><text id="SvgjsText1042" font-family="微软雅黑" text-anchor="middle" font-size="13px" width="68px" fill="#323232" font-weight="700" align="middle" lineHeight="125%" anchor="middle" family="微软雅黑" size="13px" weight="700" font-style="" opacity="1" y="44.375" transform="rotate(0)"></text></g></g><g id="SvgjsG1043" transform="translate(234,167)"><path id="SvgjsPath1044" d="M 0 4Q 0 0 4 0L 126 0Q 130 0 130 4L 130 176Q 130 180 126 180L 4 180Q 0 180 0 176Z" stroke="rgba(50,50,50,1)" stroke-width="1" fill-opacity="1" fill="#e0e0e0"></path><g id="SvgjsG1045"><text id="SvgjsText1046" font-family="微软雅黑" text-anchor="middle" font-size="13px" width="110px" fill="#323232" font-weight="700" align="middle" lineHeight="125%" anchor="middle" family="微软雅黑" size="13px" weight="700" font-style="" opacity="1" y="70.875" transform="rotate(0)"><tspan id="SvgjsTspan1047" dy="16" x="65"><tspan id="SvgjsTspan1048" style="text-decoration:;">Servlet Container</tspan></tspan><tspan id="SvgjsTspan1049" dy="16" x="65"><tspan id="SvgjsTspan1050" style="text-decoration:;">(Web Container</tspan><tspan id="SvgjsTspan1051" style="text-decoration:;font-size: inherit;">)</tspan></tspan></text></g></g><g id="SvgjsG1052"><path id="SvgjsPath1053" d="M71.99981790115133 198.98091690440884L232.2003277779276 195.923238460953" stroke="#323232" stroke-width="1" fill="none" marker-end="url(#SvgjsMarker1054)"></path><rect id="SvgjsRect1056" width="100" height="16" x="102.10007283953948" y="189.4520776826809" fill="#ffffff"></rect><text id="SvgjsText1057" font-family="微软雅黑" text-anchor="middle" font-size="13px" width="100px" fill="#323232" font-weight="400" align="top" lineHeight="16px" anchor="middle" family="微软雅黑" size="13px" weight="400" font-style="" opacity="1" y="186.8270776826809" transform="rotate(0)"><tspan id="SvgjsTspan1058" dy="16" x="152.10007283953948"><tspan id="SvgjsTspan1059" style="text-decoration:;">/servlet-a/path1</tspan></tspan></text></g><g id="SvgjsG1060"><path id="SvgjsPath1061" d="M72 257L232.2 257" stroke="#323232" stroke-width="1" fill="none" marker-end="url(#SvgjsMarker1062)"></path><rect id="SvgjsRect1064" width="102" height="16" x="101.1" y="249" fill="#ffffff"></rect><text id="SvgjsText1065" font-family="微软雅黑" text-anchor="middle" font-size="13px" width="102px" fill="#323232" font-weight="400" align="top" lineHeight="16px" anchor="middle" family="微软雅黑" size="13px" weight="400" font-style="" opacity="1" y="246.375" transform="rotate(0)"><tspan id="SvgjsTspan1066" dy="16" x="152.1"><tspan id="SvgjsTspan1067" style="text-decoration:;">/servlet-a/path2</tspan></tspan></text></g><g id="SvgjsG1068"><path id="SvgjsPath1069" d="M71.99983688449156 315.4819388701847L232.20029360791517 312.58806558922305" stroke="#323232" stroke-width="1" fill="none" marker-end="url(#SvgjsMarker1070)"></path><rect id="SvgjsRect1072" width="103" height="16" x="100.60006524620337" y="306.0350022297039" fill="#ffffff"></rect><text id="SvgjsText1073" font-family="微软雅黑" text-anchor="middle" font-size="13px" width="103px" fill="#323232" font-weight="400" align="top" lineHeight="16px" anchor="middle" family="微软雅黑" size="13px" weight="400" font-style="" opacity="1" y="303.4100022297039" transform="rotate(0)"><tspan id="SvgjsTspan1074" dy="16" x="152.10006524620337"><tspan id="SvgjsTspan1075" style="text-decoration:;">/servlet-b/path3</tspan></tspan></text></g><g id="SvgjsG1076" transform="translate(411,185)"><path id="SvgjsPath1077" d="M 0 14C 0 -4.666666666666667 113 -4.666666666666667 113 14C 113 32.666666666666664 0 32.666666666666664 0 14Z" stroke="rgba(50,50,50,1)" stroke-width="2" fill-opacity="1" fill="#ffffff"></path><g id="SvgjsG1078"><text id="SvgjsText1079" font-family="微软雅黑" text-anchor="middle" font-size="13px" width="93px" fill="#323232" font-weight="400" align="middle" lineHeight="125%" anchor="middle" family="微软雅黑" size="13px" weight="400" font-style="" opacity="1" y="3.375" transform="rotate(0)"><tspan id="SvgjsTspan1080" dy="16" x="56.5"><tspan id="SvgjsTspan1081" style="text-decoration:;">Thread 1</tspan></tspan></text></g></g><g id="SvgjsG1082" transform="translate(411,243)"><path id="SvgjsPath1083" d="M 0 14C 0 -4.666666666666667 113 -4.666666666666667 113 14C 113 32.666666666666664 0 32.666666666666664 0 14Z" stroke="rgba(50,50,50,1)" stroke-width="2" fill-opacity="1" fill="#ffffff"></path><g id="SvgjsG1084"><text id="SvgjsText1085" font-family="微软雅黑" text-anchor="middle" font-size="13px" width="93px" fill="#323232" font-weight="400" align="middle" lineHeight="125%" anchor="middle" family="微软雅黑" size="13px" weight="400" font-style="" opacity="1" y="3.375" transform="rotate(0)"><tspan id="SvgjsTspan1086" dy="16" x="56.5"><tspan id="SvgjsTspan1087" style="text-decoration:;">Thread 2</tspan></tspan></text></g></g><g id="SvgjsG1088" transform="translate(411,301.5)"><path id="SvgjsPath1089" d="M 0 14C 0 -4.666666666666667 113 -4.666666666666667 113 14C 113 32.666666666666664 0 32.666666666666664 0 14Z" stroke="rgba(50,50,50,1)" stroke-width="2" fill-opacity="1" fill="#ffffff"></path><g id="SvgjsG1090"><text id="SvgjsText1091" font-family="微软雅黑" text-anchor="middle" font-size="13px" width="93px" fill="#323232" font-weight="400" align="middle" lineHeight="125%" anchor="middle" family="微软雅黑" size="13px" weight="400" font-style="" opacity="1" y="3.375" transform="rotate(0)"><tspan id="SvgjsTspan1092" dy="16" x="56.5"><tspan id="SvgjsTspan1093" style="text-decoration:;">Thread 3</tspan></tspan></text></g></g><g id="SvgjsG1094" transform="translate(541,160)"><path id="SvgjsPath1095" d="M 0 4Q 0 0 4 0L 126 0Q 130 0 130 4L 130 86Q 130 90 126 90L 4 90Q 0 90 0 86Z" stroke="rgba(50,50,50,1)" stroke-width="1" fill-opacity="1" fill="#ffcdd2"></path><g id="SvgjsG1096"><text id="SvgjsText1097" font-family="微软雅黑" text-anchor="middle" font-size="13px" width="110px" fill="#323232" font-weight="400" align="top" lineHeight="125%" anchor="middle" family="微软雅黑" size="13px" weight="400" font-style="" opacity="1" y="-2.625" transform="rotate(0)"><tspan id="SvgjsTspan1098" dy="16" x="65"><tspan id="SvgjsTspan1099" style="text-decoration:;">A Servlet</tspan></tspan></text></g></g><g id="SvgjsG1100" transform="translate(566,189)"><path id="SvgjsPath1101" d="M 0 0L 90 0L 90 20L 0 20Z" stroke="rgba(50,50,50,1)" stroke-width="2" fill-opacity="1" fill="#ffffff"></path><g id="SvgjsG1102"><text id="SvgjsText1103" font-family="微软雅黑" text-anchor="middle" font-size="13px" width="70px" fill="#323232" font-weight="400" align="middle" lineHeight="125%" anchor="middle" family="微软雅黑" size="13px" weight="400" font-style="" opacity="1" y="-0.625" transform="rotate(0)"><tspan id="SvgjsTspan1104" dy="16" x="45"><tspan id="SvgjsTspan1105" style="text-decoration:;">service()</tspan></tspan></text></g></g><g id="SvgjsG1106" transform="translate(541,263)"><path id="SvgjsPath1107" d="M 0 4Q 0 0 4 0L 126 0Q 130 0 130 4L 130 86Q 130 90 126 90L 4 90Q 0 90 0 86Z" stroke="rgba(50,50,50,1)" stroke-width="1" fill-opacity="1" fill="#ffcdd2"></path><g id="SvgjsG1108"><text id="SvgjsText1109" font-family="微软雅黑" text-anchor="middle" font-size="13px" width="110px" fill="#323232" font-weight="400" align="top" lineHeight="125%" anchor="middle" family="微软雅黑" size="13px" weight="400" font-style="" opacity="1" y="-2.625" transform="rotate(0)"><tspan id="SvgjsTspan1110" dy="16" x="65"><tspan id="SvgjsTspan1111" style="text-decoration:;">B Servlet</tspan></tspan></text></g></g><g id="SvgjsG1112" transform="translate(561,305.5)"><path id="SvgjsPath1113" d="M 0 0L 90 0L 90 20L 0 20Z" stroke="rgba(50,50,50,1)" stroke-width="2" fill-opacity="1" fill="#ffffff"></path><g id="SvgjsG1114"><text id="SvgjsText1115" font-family="微软雅黑" text-anchor="middle" font-size="13px" width="70px" fill="#323232" font-weight="400" align="middle" lineHeight="125%" anchor="middle" family="微软雅黑" size="13px" weight="400" font-style="" opacity="1" y="-0.625" transform="rotate(0)"><tspan id="SvgjsTspan1116" dy="16" x="45"><tspan id="SvgjsTspan1117" style="text-decoration:;">service()</tspan></tspan></text></g></g><g id="SvgjsG1118" transform="translate(243.75,214)"><path id="SvgjsPath1119" d="M 0 4Q 0 0 4 0L 106.5 0Q 110.5 0 110.5 4L 110.5 16Q 110.5 20 106.5 20L 4 20Q 0 20 0 16Z" stroke="rgba(50,50,50,1)" stroke-width="1" fill-opacity="1" fill="#ffffff"></path><g id="SvgjsG1120"><text id="SvgjsText1121" font-family="微软雅黑" text-anchor="middle" font-size="13px" width="91px" fill="#323232" font-weight="400" align="middle" lineHeight="125%" anchor="middle" family="微软雅黑" size="13px" weight="400" font-style="" opacity="1" y="-0.625" transform="rotate(0)"><tspan id="SvgjsTspan1122" dy="16" x="55.5"><tspan id="SvgjsTspan1123" style="text-decoration:;">ServletContext</tspan></tspan></text></g></g><g id="SvgjsG1124"><path id="SvgjsPath1125" d="M299 213.5L299 96.1" stroke-dasharray="3,3" stroke="#323232" stroke-width="2" fill="none" marker-end="url(#SvgjsMarker1126)"></path></g><g id="SvgjsG1128" transform="translate(546,48.5)"><path id="SvgjsPath1129" d="M 0 4Q 0 0 4 0L 116 0Q 120 0 120 4L 120 40Q 120 44 116 44L 4 44Q 0 44 0 40Z" stroke="rgba(50,50,50,1)" stroke-width="2" fill-opacity="1" fill="#81c784"></path><g id="SvgjsG1130"><text id="SvgjsText1131" font-family="微软雅黑" text-anchor="middle" font-size="13px" width="100px" fill="#212121" font-weight="400" align="middle" lineHeight="125%" anchor="middle" family="微软雅黑" size="13px" weight="400" font-style="" opacity="1" y="2.875" transform="rotate(0)"><tspan id="SvgjsTspan1132" dy="16" x="60"><tspan id="SvgjsTspan1133" style="text-decoration:;">&lt;&lt;Interface&gt;&gt; </tspan></tspan><tspan id="SvgjsTspan1134" dy="16" x="60"><tspan id="SvgjsTspan1135" style="text-decoration:;">Servlet</tspan></tspan></text></g></g><g id="SvgjsG1136"><path id="SvgjsPath1137" d="M606 159.5L606 96.1" stroke-dasharray="3,3" stroke="#323232" stroke-width="2" fill="none" marker-end="url(#SvgjsMarker1138)"></path></g><g id="SvgjsG1140"><path id="SvgjsPath1141" d="M671.5 308L708 308L708 70.5L669.6 70.5" stroke-dasharray="3,3" stroke="#323232" stroke-width="2" fill="none" marker-end="url(#SvgjsMarker1142)"></path></g><g id="SvgjsG1144"><path id="SvgjsPath1145" d="M364.5 315L387.5 315L387.5 315L408.7 315" stroke="#323232" stroke-width="1" fill="none" marker-end="url(#SvgjsMarker1146)"></path></g><g id="SvgjsG1148"><path id="SvgjsPath1149" d="M364.5 257L387.5 257L387.5 257L408.7 257" stroke="#323232" stroke-width="1" fill="none" marker-end="url(#SvgjsMarker1150)"></path></g><g id="SvgjsG1152"><path id="SvgjsPath1153" d="M363.5 197L387 197L387 197L408.7 197" stroke="#323232" stroke-width="1" fill="none" marker-end="url(#SvgjsMarker1154)"></path></g><g id="SvgjsG1156"><path id="SvgjsPath1157" d="M525 199L545 199L545 199L563.7 199" stroke="#323232" stroke-width="1" fill="none" marker-end="url(#SvgjsMarker1158)"></path></g><g id="SvgjsG1160"><path id="SvgjsPath1161" d="M524.5865098121518 256.19005787845697L564.6510274320508 200.86286687954896" stroke="#323232" stroke-width="1" fill="none" marker-end="url(#SvgjsMarker1162)"></path></g><g id="SvgjsG1164"><path id="SvgjsPath1165" d="M525 315.5L558.7 315.5" stroke="#323232" stroke-width="1" fill="none" marker-end="url(#SvgjsMarker1166)"></path></g></svg>