<svg id="SvgjsSvg1006" width="733" height="339" xmlns="http://www.w3.org/2000/svg" version="1.1" xmlns:xlink="http://www.w3.org/1999/xlink" xmlns:svgjs="http://svgjs.com/svgjs"><defs id="SvgjsDefs1007"><marker id="SvgjsMarker1048" markerWidth="12" markerHeight="8" refX="9" refY="4" viewBox="0 0 12 8" orient="auto" markerUnits="userSpaceOnUse" stroke-dasharray="0,0"><path id="SvgjsPath1049" d="M0,0 L12,4 L0,8 L0,0" fill="#323232" stroke="#323232" stroke-width="1"></path></marker><marker id="SvgjsMarker1056" markerWidth="12" markerHeight="8" refX="9" refY="4" viewBox="0 0 12 8" orient="auto" markerUnits="userSpaceOnUse" stroke-dasharray="0,0"><path id="SvgjsPath1057" d="M0,0 L12,4 L0,8 L0,0" fill="#323232" stroke="#323232" stroke-width="1"></path></marker><marker id="SvgjsMarker1064" markerWidth="12" markerHeight="8" refX="9" refY="4" viewBox="0 0 12 8" orient="auto" markerUnits="userSpaceOnUse" stroke-dasharray="0,0"><path id="SvgjsPath1065" d="M0,0 L12,4 L0,8 L0,0" fill="#323232" stroke="#323232" stroke-width="1"></path></marker><marker id="SvgjsMarker1120" markerWidth="14" markerHeight="12" refX="16" refY="6" viewBox="0 0 14 12" orient="auto" markerUnits="userSpaceOnUse" stroke-dasharray="0,0"><path id="SvgjsPath1121" d="M1,1 L14,6 L1,11L1,1" fill="#ffffff" stroke="#323232" stroke-width="2"></path></marker><marker id="SvgjsMarker1132" markerWidth="14" markerHeight="12" refX="16" refY="6" viewBox="0 0 14 12" orient="auto" markerUnits="userSpaceOnUse" stroke-dasharray="0,0"><path id="SvgjsPath1133" d="M1,1 L14,6 L1,11L1,1" fill="#ffffff" stroke="#323232" stroke-width="2"></path></marker><marker id="SvgjsMarker1136" markerWidth="14" markerHeight="12" refX="16" refY="6" viewBox="0 0 14 12" orient="auto" markerUnits="userSpaceOnUse" stroke-dasharray="0,0"><path id="SvgjsPath1137" d="M1,1 L14,6 L1,11L1,1" fill="#ffffff" stroke="#323232" stroke-width="2"></path></marker><marker id="SvgjsMarker1140" markerWidth="12" markerHeight="8" refX="9" refY="4" viewBox="0 0 12 8" orient="auto" markerUnits="userSpaceOnUse" stroke-dasharray="0,0"><path id="SvgjsPath1141" d="M0,0 L12,4 L0,8 L0,0" fill="#323232" stroke="#323232" stroke-width="1"></path></marker><marker id="SvgjsMarker1144" markerWidth="12" markerHeight="8" refX="9" refY="4" viewBox="0 0 12 8" orient="auto" markerUnits="userSpaceOnUse" stroke-dasharray="0,0"><path id="SvgjsPath1145" d="M0,0 L12,4 L0,8 L0,0" fill="#323232" stroke="#323232" stroke-width="1"></path></marker><marker id="SvgjsMarker1148" markerWidth="12" markerHeight="8" refX="9" refY="4" viewBox="0 0 12 8" orient="auto" markerUnits="userSpaceOnUse" stroke-dasharray="0,0"><path id="SvgjsPath1149" d="M0,0 L12,4 L0,8 L0,0" fill="#323232" stroke="#323232" stroke-width="1"></path></marker><marker id="SvgjsMarker1152" markerWidth="12" markerHeight="8" refX="9" refY="4" viewBox="0 0 12 8" orient="auto" markerUnits="userSpaceOnUse" stroke-dasharray="0,0"><path id="SvgjsPath1153" d="M0,0 L12,4 L0,8 L0,0" fill="#323232" stroke="#323232" stroke-width="1"></path></marker><marker id="SvgjsMarker1156" markerWidth="12" markerHeight="8" refX="9" refY="4" viewBox="0 0 12 8" orient="auto" markerUnits="userSpaceOnUse" stroke-dasharray="0,0"><path id="SvgjsPath1157" d="M0,0 L12,4 L0,8 L0,0" fill="#323232" stroke="#323232" stroke-width="1"></path></marker><marker id="SvgjsMarker1160" markerWidth="12" markerHeight="8" refX="9" refY="4" viewBox="0 0 12 8" orient="auto" markerUnits="userSpaceOnUse" stroke-dasharray="0,0"><path id="SvgjsPath1161" d="M0,0 L12,4 L0,8 L0,0" fill="#323232" stroke="#323232" stroke-width="1"></path></marker></defs><g id="SvgjsG1008" transform="translate(25,25)"><path id="SvgjsPath1009" d="M 0 0L 683 0L 683 289L 0 289Z" stroke="none" fill-opacity="1" fill="#ffffff"></path><g id="SvgjsG1010"><text id="SvgjsText1011" font-family="微软雅黑" text-anchor="middle" font-size="30px" width="663px" fill="#323232" font-weight="700" align="top" lineHeight="125%" anchor="middle" family="微软雅黑" size="30px" weight="700" font-style="" opacity="1" y="-6.75" transform="rotate(0)"><tspan id="SvgjsTspan1012" dy="37" x="341.5"><tspan id="SvgjsTspan1013" style="text-decoration:;"> </tspan></tspan></text></g></g><g id="SvgjsG1014" transform="translate(227,39.5)"><path id="SvgjsPath1015" d="M 0 4Q 0 0 4 0L 116 0Q 120 0 120 4L 120 40Q 120 44 116 44L 4 44Q 0 44 0 40Z" stroke="rgba(50,50,50,1)" stroke-width="2" fill-opacity="1" fill="#81c784"></path><g id="SvgjsG1016"><text id="SvgjsText1017" font-family="微软雅黑" text-anchor="middle" font-size="13px" width="100px" fill="#212121" font-weight="400" align="middle" lineHeight="125%" anchor="middle" family="微软雅黑" size="13px" weight="400" font-style="" opacity="1" y="2.875" transform="rotate(0)"><tspan id="SvgjsTspan1018" dy="16" x="60"><tspan id="SvgjsTspan1019" style="text-decoration:;">&lt;&lt;Interface&gt;&gt; </tspan></tspan><tspan id="SvgjsTspan1020" dy="16" x="60"><tspan id="SvgjsTspan1021" style="text-decoration:;">ServletContext</tspan></tspan></text></g></g><g id="SvgjsG1022" transform="translate(41,130)"><path id="SvgjsPath1023" d="M 9.333333333333332 5C 9.333333333333332 -1.6666666666666665 18.666666666666664 -1.6666666666666665 18.666666666666664 5C 18.666666666666664 11.666666666666666 9.333333333333332 11.666666666666666 9.333333333333332 5M 14 10L 14 30M 14 30L 2.333333333333333 40M 14 30L 25.666666666666664 40M 0 20L 28 20" stroke="rgba(50,50,50,1)" stroke-width="2" fill-opacity="1" fill="#ffffff"></path><path id="SvgjsPath1024" d="M 0 0L 28 0L 28 40L 0 40Z" stroke="none" fill="none"></path><g id="SvgjsG1025"><text id="SvgjsText1026" font-family="微软雅黑" text-anchor="middle" font-size="13px" width="68px" fill="#323232" font-weight="700" align="middle" lineHeight="125%" anchor="middle" family="微软雅黑" size="13px" weight="700" font-style="" opacity="1" y="44.375" transform="rotate(0)"></text></g></g><g id="SvgjsG1027" transform="translate(41,188)"><path id="SvgjsPath1028" d="M 9.333333333333332 5C 9.333333333333332 -1.6666666666666665 18.666666666666664 -1.6666666666666665 18.666666666666664 5C 18.666666666666664 11.666666666666666 9.333333333333332 11.666666666666666 9.333333333333332 5M 14 10L 14 30M 14 30L 2.333333333333333 40M 14 30L 25.666666666666664 40M 0 20L 28 20" stroke="rgba(50,50,50,1)" stroke-width="2" fill-opacity="1" fill="#ffffff"></path><path id="SvgjsPath1029" d="M 0 0L 28 0L 28 40L 0 40Z" stroke="none" fill="none"></path><g id="SvgjsG1030"><text id="SvgjsText1031" font-family="微软雅黑" text-anchor="middle" font-size="13px" width="68px" fill="#323232" font-weight="700" align="middle" lineHeight="125%" anchor="middle" family="微软雅黑" size="13px" weight="700" font-style="" opacity="1" y="44.375" transform="rotate(0)"></text></g></g><g id="SvgjsG1032" transform="translate(41,246.5)"><path id="SvgjsPath1033" d="M 9.333333333333332 5C 9.333333333333332 -1.6666666666666665 18.666666666666664 -1.6666666666666665 18.666666666666664 5C 18.666666666666664 11.666666666666666 9.333333333333332 11.666666666666666 9.333333333333332 5M 14 10L 14 30M 14 30L 2.333333333333333 40M 14 30L 25.666666666666664 40M 0 20L 28 20" stroke="rgba(50,50,50,1)" stroke-width="2" fill-opacity="1" fill="#ffffff"></path><path id="SvgjsPath1034" d="M 0 0L 28 0L 28 40L 0 40Z" stroke="none" fill="none"></path><g id="SvgjsG1035"><text id="SvgjsText1036" font-family="微软雅黑" text-anchor="middle" font-size="13px" width="68px" fill="#323232" font-weight="700" align="middle" lineHeight="125%" anchor="middle" family="微软雅黑" size="13px" weight="700" font-style="" opacity="1" y="44.375" transform="rotate(0)"></text></g></g><g id="SvgjsG1037" transform="translate(222,118)"><path id="SvgjsPath1038" d="M 0 4Q 0 0 4 0L 126 0Q 130 0 130 4L 130 176Q 130 180 126 180L 4 180Q 0 180 0 176Z" stroke="rgba(50,50,50,1)" stroke-width="1" fill-opacity="1" fill="#e0e0e0"></path><g id="SvgjsG1039"><text id="SvgjsText1040" font-family="微软雅黑" text-anchor="middle" font-size="13px" width="110px" fill="#323232" font-weight="700" align="middle" lineHeight="125%" anchor="middle" family="微软雅黑" size="13px" weight="700" font-style="" opacity="1" y="70.875" transform="rotate(0)"><tspan id="SvgjsTspan1041" dy="16" x="65"><tspan id="SvgjsTspan1042" style="text-decoration:;">Servlet Container</tspan></tspan><tspan id="SvgjsTspan1043" dy="16" x="65"><tspan id="SvgjsTspan1044" style="text-decoration:;">(Web Container</tspan><tspan id="SvgjsTspan1045" style="text-decoration:;font-size: inherit;">)</tspan></tspan></text></g></g><g id="SvgjsG1046"><path id="SvgjsPath1047" d="M69.99979332709931 149.97967014294932L220.20037201122125 146.92548263158014" stroke="#323232" stroke-width="1" fill="none" marker-end="url(#SvgjsMarker1048)"></path><rect id="SvgjsRect1050" width="100" height="16" x="95.10008266916029" y="140.45257638726474" fill="#ffffff"></rect><text id="SvgjsText1051" font-family="微软雅黑" text-anchor="middle" font-size="13px" width="100px" fill="#323232" font-weight="400" align="top" lineHeight="16px" anchor="middle" family="微软雅黑" size="13px" weight="400" font-style="" opacity="1" y="137.82757638726474" transform="rotate(0)"><tspan id="SvgjsTspan1052" dy="16" x="145.1000826691603"><tspan id="SvgjsTspan1053" style="text-decoration:;">/servlet-a/path1</tspan></tspan></text></g><g id="SvgjsG1054"><path id="SvgjsPath1055" d="M70 208L220.2 208" stroke="#323232" stroke-width="1" fill="none" marker-end="url(#SvgjsMarker1056)"></path><rect id="SvgjsRect1058" width="102" height="16" x="94.1" y="200" fill="#ffffff"></rect><text id="SvgjsText1059" font-family="微软雅黑" text-anchor="middle" font-size="13px" width="102px" fill="#323232" font-weight="400" align="top" lineHeight="16px" anchor="middle" family="微软雅黑" size="13px" weight="400" font-style="" opacity="1" y="197.375" transform="rotate(0)"><tspan id="SvgjsTspan1060" dy="16" x="145.1"><tspan id="SvgjsTspan1061" style="text-decoration:;">/servlet-a/path2</tspan></tspan></text></g><g id="SvgjsG1062"><path id="SvgjsPath1063" d="M69.99981487151025 266.4807588278177L220.20033323128155 263.59018966548365" stroke="#323232" stroke-width="1" fill="none" marker-end="url(#SvgjsMarker1064)"></path><rect id="SvgjsRect1066" width="103" height="16" x="93.6000740513959" y="257.03547424665067" fill="#ffffff"></rect><text id="SvgjsText1067" font-family="微软雅黑" text-anchor="middle" font-size="13px" width="103px" fill="#323232" font-weight="400" align="top" lineHeight="16px" anchor="middle" family="微软雅黑" size="13px" weight="400" font-style="" opacity="1" y="254.41047424665067" transform="rotate(0)"><tspan id="SvgjsTspan1068" dy="16" x="145.1000740513959"><tspan id="SvgjsTspan1069" style="text-decoration:;">/servlet-b/path3</tspan></tspan></text></g><g id="SvgjsG1070" transform="translate(399,136)"><path id="SvgjsPath1071" d="M 0 14C 0 -4.666666666666667 113 -4.666666666666667 113 14C 113 32.666666666666664 0 32.666666666666664 0 14Z" stroke="rgba(50,50,50,1)" stroke-width="2" fill-opacity="1" fill="#ffffff"></path><g id="SvgjsG1072"><text id="SvgjsText1073" font-family="微软雅黑" text-anchor="middle" font-size="13px" width="93px" fill="#323232" font-weight="400" align="middle" lineHeight="125%" anchor="middle" family="微软雅黑" size="13px" weight="400" font-style="" opacity="1" y="3.375" transform="rotate(0)"><tspan id="SvgjsTspan1074" dy="16" x="56.5"><tspan id="SvgjsTspan1075" style="text-decoration:;">Thread 1</tspan></tspan></text></g></g><g id="SvgjsG1076" transform="translate(399,194)"><path id="SvgjsPath1077" d="M 0 14C 0 -4.666666666666667 113 -4.666666666666667 113 14C 113 32.666666666666664 0 32.666666666666664 0 14Z" stroke="rgba(50,50,50,1)" stroke-width="2" fill-opacity="1" fill="#ffffff"></path><g id="SvgjsG1078"><text id="SvgjsText1079" font-family="微软雅黑" text-anchor="middle" font-size="13px" width="93px" fill="#323232" font-weight="400" align="middle" lineHeight="125%" anchor="middle" family="微软雅黑" size="13px" weight="400" font-style="" opacity="1" y="3.375" transform="rotate(0)"><tspan id="SvgjsTspan1080" dy="16" x="56.5"><tspan id="SvgjsTspan1081" style="text-decoration:;">Thread 2</tspan></tspan></text></g></g><g id="SvgjsG1082" transform="translate(399,252.5)"><path id="SvgjsPath1083" d="M 0 14C 0 -4.666666666666667 113 -4.666666666666667 113 14C 113 32.666666666666664 0 32.666666666666664 0 14Z" stroke="rgba(50,50,50,1)" stroke-width="2" fill-opacity="1" fill="#ffffff"></path><g id="SvgjsG1084"><text id="SvgjsText1085" font-family="微软雅黑" text-anchor="middle" font-size="13px" width="93px" fill="#323232" font-weight="400" align="middle" lineHeight="125%" anchor="middle" family="微软雅黑" size="13px" weight="400" font-style="" opacity="1" y="3.375" transform="rotate(0)"><tspan id="SvgjsTspan1086" dy="16" x="56.5"><tspan id="SvgjsTspan1087" style="text-decoration:;">Thread 3</tspan></tspan></text></g></g><g id="SvgjsG1088" transform="translate(529,111)"><path id="SvgjsPath1089" d="M 0 4Q 0 0 4 0L 126 0Q 130 0 130 4L 130 86Q 130 90 126 90L 4 90Q 0 90 0 86Z" stroke="rgba(50,50,50,1)" stroke-width="1" fill-opacity="1" fill="#ffcdd2"></path><g id="SvgjsG1090"><text id="SvgjsText1091" font-family="微软雅黑" text-anchor="middle" font-size="13px" width="110px" fill="#323232" font-weight="400" align="top" lineHeight="125%" anchor="middle" family="微软雅黑" size="13px" weight="400" font-style="" opacity="1" y="-2.625" transform="rotate(0)"><tspan id="SvgjsTspan1092" dy="16" x="65"><tspan id="SvgjsTspan1093" style="text-decoration:;">A Servlet</tspan></tspan></text></g></g><g id="SvgjsG1094" transform="translate(554,140)"><path id="SvgjsPath1095" d="M 0 0L 90 0L 90 20L 0 20Z" stroke="rgba(50,50,50,1)" stroke-width="2" fill-opacity="1" fill="#ffffff"></path><g id="SvgjsG1096"><text id="SvgjsText1097" font-family="微软雅黑" text-anchor="middle" font-size="13px" width="70px" fill="#323232" font-weight="400" align="middle" lineHeight="125%" anchor="middle" family="微软雅黑" size="13px" weight="400" font-style="" opacity="1" y="-0.625" transform="rotate(0)"><tspan id="SvgjsTspan1098" dy="16" x="45"><tspan id="SvgjsTspan1099" style="text-decoration:;">service()</tspan></tspan></text></g></g><g id="SvgjsG1100" transform="translate(529,214)"><path id="SvgjsPath1101" d="M 0 4Q 0 0 4 0L 126 0Q 130 0 130 4L 130 86Q 130 90 126 90L 4 90Q 0 90 0 86Z" stroke="rgba(50,50,50,1)" stroke-width="1" fill-opacity="1" fill="#ffcdd2"></path><g id="SvgjsG1102"><text id="SvgjsText1103" font-family="微软雅黑" text-anchor="middle" font-size="13px" width="110px" fill="#323232" font-weight="400" align="top" lineHeight="125%" anchor="middle" family="微软雅黑" size="13px" weight="400" font-style="" opacity="1" y="-2.625" transform="rotate(0)"><tspan id="SvgjsTspan1104" dy="16" x="65"><tspan id="SvgjsTspan1105" style="text-decoration:;">B Servlet</tspan></tspan></text></g></g><g id="SvgjsG1106" transform="translate(549,256.5)"><path id="SvgjsPath1107" d="M 0 0L 90 0L 90 20L 0 20Z" stroke="rgba(50,50,50,1)" stroke-width="2" fill-opacity="1" fill="#ffffff"></path><g id="SvgjsG1108"><text id="SvgjsText1109" font-family="微软雅黑" text-anchor="middle" font-size="13px" width="70px" fill="#323232" font-weight="400" align="middle" lineHeight="125%" anchor="middle" family="微软雅黑" size="13px" weight="400" font-style="" opacity="1" y="-0.625" transform="rotate(0)"><tspan id="SvgjsTspan1110" dy="16" x="45"><tspan id="SvgjsTspan1111" style="text-decoration:;">service()</tspan></tspan></text></g></g><g id="SvgjsG1112" transform="translate(231.75,155)"><path id="SvgjsPath1113" d="M 0 4Q 0 0 4 0L 106.5 0Q 110.5 0 110.5 4L 110.5 16Q 110.5 20 106.5 20L 4 20Q 0 20 0 16Z" stroke="rgba(50,50,50,1)" stroke-width="1" fill-opacity="1" fill="#ffffff"></path><g id="SvgjsG1114"><text id="SvgjsText1115" font-family="微软雅黑" text-anchor="middle" font-size="13px" width="91px" fill="#323232" font-weight="400" align="middle" lineHeight="125%" anchor="middle" family="微软雅黑" size="13px" weight="400" font-style="" opacity="1" y="-0.625" transform="rotate(0)"><tspan id="SvgjsTspan1116" dy="16" x="55.5"><tspan id="SvgjsTspan1117" style="text-decoration:;">ServletContext</tspan></tspan></text></g></g><g id="SvgjsG1118"><path id="SvgjsPath1119" d="M287 154.5L287 87.1" stroke-dasharray="3,3" stroke="#323232" stroke-width="2" fill="none" marker-end="url(#SvgjsMarker1120)"></path></g><g id="SvgjsG1122" transform="translate(534,39.5)"><path id="SvgjsPath1123" d="M 0 4Q 0 0 4 0L 116 0Q 120 0 120 4L 120 40Q 120 44 116 44L 4 44Q 0 44 0 40Z" stroke="rgba(50,50,50,1)" stroke-width="2" fill-opacity="1" fill="#81c784"></path><g id="SvgjsG1124"><text id="SvgjsText1125" font-family="微软雅黑" text-anchor="middle" font-size="13px" width="100px" fill="#212121" font-weight="400" align="middle" lineHeight="125%" anchor="middle" family="微软雅黑" size="13px" weight="400" font-style="" opacity="1" y="2.875" transform="rotate(0)"><tspan id="SvgjsTspan1126" dy="16" x="60"><tspan id="SvgjsTspan1127" style="text-decoration:;">&lt;&lt;Interface&gt;&gt; </tspan></tspan><tspan id="SvgjsTspan1128" dy="16" x="60"><tspan id="SvgjsTspan1129" style="text-decoration:;">Servlet</tspan></tspan></text></g></g><g id="SvgjsG1130"><path id="SvgjsPath1131" d="M594 110.5L594 87.1" stroke-dasharray="3,3" stroke="#323232" stroke-width="2" fill="none" marker-end="url(#SvgjsMarker1132)"></path></g><g id="SvgjsG1134"><path id="SvgjsPath1135" d="M659.5 259L689 259L689 61.5L657.6 61.5" stroke-dasharray="3,3" stroke="#323232" stroke-width="2" fill="none" marker-end="url(#SvgjsMarker1136)"></path></g><g id="SvgjsG1138"><path id="SvgjsPath1139" d="M352.5 266L375.5 266L375.5 266L396.7 266" stroke="#323232" stroke-width="1" fill="none" marker-end="url(#SvgjsMarker1140)"></path></g><g id="SvgjsG1142"><path id="SvgjsPath1143" d="M352.5 208L375.5 208L375.5 208L396.7 208" stroke="#323232" stroke-width="1" fill="none" marker-end="url(#SvgjsMarker1144)"></path></g><g id="SvgjsG1146"><path id="SvgjsPath1147" d="M351.5 148L375 148L375 148L396.7 148" stroke="#323232" stroke-width="1" fill="none" marker-end="url(#SvgjsMarker1148)"></path></g><g id="SvgjsG1150"><path id="SvgjsPath1151" d="M513 150L533 150L533 150L551.7 150" stroke="#323232" stroke-width="1" fill="none" marker-end="url(#SvgjsMarker1152)"></path></g><g id="SvgjsG1154"><path id="SvgjsPath1155" d="M512.5865098121518 207.19005787845697L552.6510274320508 151.86286687954896" stroke="#323232" stroke-width="1" fill="none" marker-end="url(#SvgjsMarker1156)"></path></g><g id="SvgjsG1158"><path id="SvgjsPath1159" d="M513 266.5L546.7 266.5" stroke="#323232" stroke-width="1" fill="none" marker-end="url(#SvgjsMarker1160)"></path></g></svg>