<svg id="SvgjsSvg1126" width="745" height="481" xmlns="http://www.w3.org/2000/svg" version="1.1" xmlns:xlink="http://www.w3.org/1999/xlink" xmlns:svgjs="http://svgjs.com/svgjs"><defs id="SvgjsDefs1127"><marker id="SvgjsMarker1154" markerWidth="14" markerHeight="10" refX="10" refY="5" viewBox="0 0 14 10" orient="auto" markerUnits="userSpaceOnUse" stroke-dasharray="0,0"><path id="SvgjsPath1155" d="M0,0 L14,5 L0,10 L0,0" fill="#323232" stroke="#323232" stroke-width="1"></path></marker><marker id="SvgjsMarker1160" markerWidth="14" markerHeight="10" refX="10" refY="5" viewBox="0 0 14 10" orient="auto" markerUnits="userSpaceOnUse" stroke-dasharray="0,0"><path id="SvgjsPath1161" d="M0,0 L14,5 L0,10 L0,0" fill="#323232" stroke="#323232" stroke-width="1"></path></marker></defs><g id="SvgjsG1128" transform="translate(25,25)"><path id="SvgjsPath1129" d="M 0 0L 695 0L 695 431L 0 431Z" stroke="none" fill-opacity="1" fill="#ffffff"></path><g id="SvgjsG1130"><text id="SvgjsText1131" font-family="微软雅黑" text-anchor="middle" font-size="25px" width="675px" fill="#323232" font-weight="700" align="top" lineHeight="125%" anchor="middle" family="微软雅黑" size="25px" weight="700" font-style="" opacity="1" y="-6.125" transform="rotate(0)"><tspan id="SvgjsTspan1132" dy="31" x="347.5"><tspan id="SvgjsTspan1133" style="text-decoration:;"> </tspan></tspan><tspan id="SvgjsTspan1134" dy="31" x="347.5"><tspan id="SvgjsTspan1135" style="text-decoration:;">Redis Pipeline</tspan></tspan></text></g></g><g id="SvgjsG1136" transform="translate(94.5,125)"><path id="SvgjsPath1137" d="M 60 30L 60 300" stroke-dasharray="3,4" stroke="rgba(50,50,50,1)" stroke-width="2" fill="none"></path><path id="SvgjsPath1138" d="M 0 0L 120 0L 120 30L 0 30Z" stroke="rgba(50,50,50,1)" stroke-width="2" fill-opacity="1" fill="#ffffff"></path><g id="SvgjsG1139"><text id="SvgjsText1140" font-family="微软雅黑" text-anchor="middle" font-size="15px" width="100px" fill="#323232" font-weight="700" align="middle" lineHeight="125%" anchor="middle" family="微软雅黑" size="15px" weight="700" font-style="" opacity="1" y="2.625" transform="rotate(0)"><tspan id="SvgjsTspan1141" dy="18" x="60"><tspan id="SvgjsTspan1142" style="text-decoration:;">Redis Client</tspan></tspan></text></g></g><g id="SvgjsG1143" transform="translate(523.5,125)"><path id="SvgjsPath1144" d="M 60 30L 60 300" stroke-dasharray="3,4" stroke="rgba(50,50,50,1)" stroke-width="2" fill="none"></path><path id="SvgjsPath1145" d="M 0 0L 120 0L 120 30L 0 30Z" stroke="rgba(50,50,50,1)" stroke-width="2" fill-opacity="1" fill="#ffffff"></path><g id="SvgjsG1146"><text id="SvgjsText1147" font-family="微软雅黑" text-anchor="middle" font-size="15px" width="100px" fill="#323232" font-weight="700" align="middle" lineHeight="125%" anchor="middle" family="微软雅黑" size="15px" weight="700" font-style="" opacity="1" y="2.625" transform="rotate(0)"><tspan id="SvgjsTspan1148" dy="18" x="60"><tspan id="SvgjsTspan1149" style="text-decoration:;">Redis Server</tspan></tspan></text></g></g><g id="SvgjsG1150" transform="translate(139.5,191)"><path id="SvgjsPath1151" d="M 0 4Q 0 0 4 0L 26 0Q 30 0 30 4L 30 116Q 30 120 26 120L 4 120Q 0 120 0 116L 0 4Z" stroke="rgba(50,50,50,1)" stroke-width="2" fill-opacity="1" fill="#ffffff"></path></g><g id="SvgjsG1152"><path id="SvgjsPath1153" d="M168.1676381823035 191.30010473137884L569.1199383871325 221.00268016996694" stroke="#323232" stroke-width="2" fill="none" marker-end="url(#SvgjsMarker1154)"></path></g><g id="SvgjsG1156" transform="translate(568.5,221)"><path id="SvgjsPath1157" d="M 0 4Q 0 0 4 0L 26 0Q 30 0 30 4L 30 56Q 30 60 26 60L 4 60Q 0 60 0 56L 0 4Z" stroke="rgba(50,50,50,1)" stroke-width="2" fill-opacity="1" fill="#ffffff"></path></g><g id="SvgjsG1158"><path id="SvgjsPath1159" d="M568.77904510502 280.1741199608488L171.29637756363093 308.8262569512885" stroke="#323232" stroke-width="2" fill="none" marker-end="url(#SvgjsMarker1160)"></path></g><g id="SvgjsG1162" transform="translate(309,159)"><path id="SvgjsPath1163" d="M 0 0L 120 0L 120 40L 0 40Z" stroke="none" fill="none"></path><g id="SvgjsG1164"><text id="SvgjsText1165" font-family="微软雅黑" text-anchor="middle" font-size="13px" width="120px" fill="#323232" font-weight="400" align="middle" lineHeight="125%" anchor="middle" family="微软雅黑" size="13px" weight="400" font-style="" opacity="1" y="-7.125" transform="rotate(0)"><tspan id="SvgjsTspan1166" dy="16" x="60"><tspan id="SvgjsTspan1167" style="text-decoration:;">set key1  value1</tspan></tspan><tspan id="SvgjsTspan1168" dy="16" x="60"><tspan id="SvgjsTspan1169" style="text-decoration:;">set key2  value2</tspan></tspan><tspan id="SvgjsTspan1170" dy="16" x="60"><tspan id="SvgjsTspan1171" style="text-decoration:;">set key3  value3</tspan></tspan></text></g></g><g id="SvgjsG1172" transform="translate(301,302)"><path id="SvgjsPath1173" d="M 0 0L 120 0L 120 40L 0 40Z" stroke="none" fill="none"></path><g id="SvgjsG1174"><text id="SvgjsText1175" font-family="微软雅黑" text-anchor="middle" font-size="13px" width="120px" fill="#323232" font-weight="400" align="middle" lineHeight="125%" anchor="middle" family="微软雅黑" size="13px" weight="400" font-style="" opacity="1" y="-7.125" transform="rotate(0)"><tspan id="SvgjsTspan1176" dy="16" x="60"><tspan id="SvgjsTspan1177" style="text-decoration:;">OK</tspan></tspan><tspan id="SvgjsTspan1178" dy="16" x="60"><tspan id="SvgjsTspan1179" style="text-decoration:;">OK</tspan></tspan><tspan id="SvgjsTspan1180" dy="16" x="60"><tspan id="SvgjsTspan1181" style="text-decoration:;">OK</tspan></tspan></text></g></g></svg>