<svg id="SvgjsSvg1006" width="745" height="600" xmlns="http://www.w3.org/2000/svg" version="1.1" xmlns:xlink="http://www.w3.org/1999/xlink" xmlns:svgjs="http://svgjs.com/svgjs"><defs id="SvgjsDefs1007"><marker id="SvgjsMarker1034" markerWidth="14" markerHeight="10" refX="10" refY="5" viewBox="0 0 14 10" orient="auto" markerUnits="userSpaceOnUse" stroke-dasharray="0,0"><path id="SvgjsPath1035" d="M0,0 L14,5 L0,10 L0,0" fill="#323232" stroke="#323232" stroke-width="1"></path></marker><marker id="SvgjsMarker1044" markerWidth="14" markerHeight="10" refX="10" refY="5" viewBox="0 0 14 10" orient="auto" markerUnits="userSpaceOnUse" stroke-dasharray="0,0"><path id="SvgjsPath1045" d="M0,0 L14,5 L0,10 L0,0" fill="#323232" stroke="#323232" stroke-width="1"></path></marker><marker id="SvgjsMarker1054" markerWidth="14" markerHeight="10" refX="10" refY="5" viewBox="0 0 14 10" orient="auto" markerUnits="userSpaceOnUse" stroke-dasharray="0,0"><path id="SvgjsPath1055" d="M0,0 L14,5 L0,10 L0,0" fill="#323232" stroke="#323232" stroke-width="1"></path></marker><marker id="SvgjsMarker1064" markerWidth="14" markerHeight="10" refX="10" refY="5" viewBox="0 0 14 10" orient="auto" markerUnits="userSpaceOnUse" stroke-dasharray="0,0"><path id="SvgjsPath1065" d="M0,0 L14,5 L0,10 L0,0" fill="#323232" stroke="#323232" stroke-width="1"></path></marker><marker id="SvgjsMarker1074" markerWidth="14" markerHeight="10" refX="10" refY="5" viewBox="0 0 14 10" orient="auto" markerUnits="userSpaceOnUse" stroke-dasharray="0,0"><path id="SvgjsPath1075" d="M0,0 L14,5 L0,10 L0,0" fill="#323232" stroke="#323232" stroke-width="1"></path></marker><marker id="SvgjsMarker1084" markerWidth="14" markerHeight="10" refX="10" refY="5" viewBox="0 0 14 10" orient="auto" markerUnits="userSpaceOnUse" stroke-dasharray="0,0"><path id="SvgjsPath1085" d="M0,0 L14,5 L0,10 L0,0" fill="#323232" stroke="#323232" stroke-width="1"></path></marker></defs><g id="SvgjsG1008" transform="translate(25,25)"><path id="SvgjsPath1009" d="M 0 0L 695 0L 695 550L 0 550Z" stroke="none" fill-opacity="1" fill="#ffffff"></path><g id="SvgjsG1010"><text id="SvgjsText1011" font-family="微软雅黑" text-anchor="middle" font-size="25px" width="675px" fill="#323232" font-weight="700" align="top" lineHeight="125%" anchor="middle" family="微软雅黑" size="25px" weight="700" font-style="" opacity="1" y="-6.125" transform="rotate(0)"><tspan id="SvgjsTspan1012" dy="31" x="347.5"><tspan id="SvgjsTspan1013" style="text-decoration:;"> </tspan></tspan><tspan id="SvgjsTspan1014" dy="31" x="347.5"><tspan id="SvgjsTspan1015" style="text-decoration:;">Redis Without Pipeline</tspan></tspan></text></g></g><g id="SvgjsG1016" transform="translate(86.5,121)"><path id="SvgjsPath1017" d="M 60 30L 60 442" stroke-dasharray="3,4" stroke="rgba(50,50,50,1)" stroke-width="2" fill="none"></path><path id="SvgjsPath1018" d="M 0 0L 120 0L 120 30L 0 30Z" stroke="rgba(50,50,50,1)" stroke-width="2" fill-opacity="1" fill="#ffffff"></path><g id="SvgjsG1019"><text id="SvgjsText1020" font-family="微软雅黑" text-anchor="middle" font-size="15px" width="100px" fill="#323232" font-weight="700" align="middle" lineHeight="125%" anchor="middle" family="微软雅黑" size="15px" weight="700" font-style="" opacity="1" y="2.625" transform="rotate(0)"><tspan id="SvgjsTspan1021" dy="18" x="60"><tspan id="SvgjsTspan1022" style="text-decoration:;">Redis Client</tspan></tspan></text></g></g><g id="SvgjsG1023" transform="translate(515.5,121)"><path id="SvgjsPath1024" d="M 60 30L 60 442" stroke-dasharray="3,4" stroke="rgba(50,50,50,1)" stroke-width="2" fill="none"></path><path id="SvgjsPath1025" d="M 0 0L 120 0L 120 30L 0 30Z" stroke="rgba(50,50,50,1)" stroke-width="2" fill-opacity="1" fill="#ffffff"></path><g id="SvgjsG1026"><text id="SvgjsText1027" font-family="微软雅黑" text-anchor="middle" font-size="15px" width="100px" fill="#323232" font-weight="700" align="middle" lineHeight="125%" anchor="middle" family="微软雅黑" size="15px" weight="700" font-style="" opacity="1" y="2.625" transform="rotate(0)"><tspan id="SvgjsTspan1028" dy="18" x="60"><tspan id="SvgjsTspan1029" style="text-decoration:;">Redis Server</tspan></tspan></text></g></g><g id="SvgjsG1030" transform="translate(131.5,187)"><path id="SvgjsPath1031" d="M 0 4Q 0 0 4 0L 26 0Q 30 0 30 4L 30 76Q 30 80 26 80L 4 80Q 0 80 0 76L 0 4Z" stroke="rgba(50,50,50,1)" stroke-width="2" fill-opacity="1" fill="#ffffff"></path></g><g id="SvgjsG1032"><path id="SvgjsPath1033" d="M160.16765693557147 187.2244421129781L561.1198708753677 216.8244999767802" stroke="#323232" stroke-width="2" fill="none" marker-end="url(#SvgjsMarker1034)"></path><rect id="SvgjsRect1036" width="103" height="19" x="309.1437639054696" y="192.52447104487914" fill="#ffffff"></rect><text id="SvgjsText1037" font-family="微软雅黑" text-anchor="middle" font-size="15px" width="103px" fill="#323232" font-weight="400" align="top" lineHeight="19px" anchor="middle" family="微软雅黑" size="15px" weight="400" font-style="" opacity="1" y="189.64947104487914" transform="rotate(0)"><tspan id="SvgjsTspan1038" dy="18" x="360.6437639054696"><tspan id="SvgjsTspan1039" style="text-decoration:;">set key1  value1</tspan></tspan></text></g><g id="SvgjsG1040" transform="translate(560.5,217)"><path id="SvgjsPath1041" d="M 0 4Q 0 0 4 0L 26 0Q 30 0 30 4L 30 16Q 30 20 26 20L 4 20Q 0 20 0 16L 0 4Z" stroke="rgba(50,50,50,1)" stroke-width="2" fill-opacity="1" fill="#ffffff"></path></g><g id="SvgjsG1042"><path id="SvgjsPath1043" d="M560.6972878017986 236.952954144699L161.5642372419519 266.3158339133392" stroke="#323232" stroke-width="2" fill="none" marker-end="url(#SvgjsMarker1044)"></path><rect id="SvgjsRect1046" width="22" height="19" x="350.1307625218752" y="242.1343940290191" fill="#ffffff"></rect><text id="SvgjsText1047" font-family="微软雅黑" text-anchor="middle" font-size="15px" width="22px" fill="#323232" font-weight="400" align="top" lineHeight="19px" anchor="middle" family="微软雅黑" size="15px" weight="400" font-style="" opacity="1" y="239.2593940290191" transform="rotate(0)"><tspan id="SvgjsTspan1048" dy="18" x="361.1307625218752"><tspan id="SvgjsTspan1049" style="text-decoration:;">OK</tspan></tspan></text></g><g id="SvgjsG1050" transform="translate(131.5,302)"><path id="SvgjsPath1051" d="M 0 4Q 0 0 4 0L 26 0Q 30 0 30 4L 30 76Q 30 80 26 80L 4 80Q 0 80 0 76L 0 4Z" stroke="rgba(50,50,50,1)" stroke-width="2" fill-opacity="1" fill="#ffffff"></path></g><g id="SvgjsG1052"><path id="SvgjsPath1053" d="M160.16765693557147 302.2244421129781L561.1198708753677 331.8244999767802" stroke="#323232" stroke-width="2" fill="none" marker-end="url(#SvgjsMarker1054)"></path><rect id="SvgjsRect1056" width="109" height="19" x="306.1437639054696" y="307.5244710448792" fill="#ffffff"></rect><text id="SvgjsText1057" font-family="微软雅黑" text-anchor="middle" font-size="15px" width="109px" fill="#323232" font-weight="400" align="top" lineHeight="19px" anchor="middle" family="微软雅黑" size="15px" weight="400" font-style="" opacity="1" y="304.6494710448792" transform="rotate(0)"><tspan id="SvgjsTspan1058" dy="18" x="360.6437639054696"><tspan id="SvgjsTspan1059" style="text-decoration:;">set key2  value2</tspan></tspan></text></g><g id="SvgjsG1060" transform="translate(560.5,332)"><path id="SvgjsPath1061" d="M 0 4Q 0 0 4 0L 26 0Q 30 0 30 4L 30 16Q 30 20 26 20L 4 20Q 0 20 0 16L 0 4Z" stroke="rgba(50,50,50,1)" stroke-width="2" fill-opacity="1" fill="#ffffff"></path></g><g id="SvgjsG1062"><path id="SvgjsPath1063" d="M560.6972878017986 351.952954144699L161.5642372419519 381.3158339133392" stroke="#323232" stroke-width="2" fill="none" marker-end="url(#SvgjsMarker1064)"></path><rect id="SvgjsRect1066" width="22" height="19" x="350.1307625218752" y="357.13439402901906" fill="#ffffff"></rect><text id="SvgjsText1067" font-family="微软雅黑" text-anchor="middle" font-size="15px" width="22px" fill="#323232" font-weight="400" align="top" lineHeight="19px" anchor="middle" family="微软雅黑" size="15px" weight="400" font-style="" opacity="1" y="354.25939402901906" transform="rotate(0)"><tspan id="SvgjsTspan1068" dy="18" x="361.1307625218752"><tspan id="SvgjsTspan1069" style="text-decoration:;">OK</tspan></tspan></text></g><g id="SvgjsG1070" transform="translate(131.5,418)"><path id="SvgjsPath1071" d="M 0 4Q 0 0 4 0L 26 0Q 30 0 30 4L 30 76Q 30 80 26 80L 4 80Q 0 80 0 76L 0 4Z" stroke="rgba(50,50,50,1)" stroke-width="2" fill-opacity="1" fill="#ffffff"></path></g><g id="SvgjsG1072"><path id="SvgjsPath1073" d="M160.16765693557147 418.2244421129781L561.1198708753677 447.8244999767802" stroke="#323232" stroke-width="2" fill="none" marker-end="url(#SvgjsMarker1074)"></path><rect id="SvgjsRect1076" width="109" height="19" x="306.1437639054696" y="423.5244710448792" fill="#ffffff"></rect><text id="SvgjsText1077" font-family="微软雅黑" text-anchor="middle" font-size="15px" width="109px" fill="#323232" font-weight="400" align="top" lineHeight="19px" anchor="middle" family="微软雅黑" size="15px" weight="400" font-style="" opacity="1" y="420.6494710448792" transform="rotate(0)"><tspan id="SvgjsTspan1078" dy="18" x="360.6437639054696"><tspan id="SvgjsTspan1079" style="text-decoration:;">set key3  value3</tspan></tspan></text></g><g id="SvgjsG1080" transform="translate(560.5,448)"><path id="SvgjsPath1081" d="M 0 4Q 0 0 4 0L 26 0Q 30 0 30 4L 30 16Q 30 20 26 20L 4 20Q 0 20 0 16L 0 4Z" stroke="rgba(50,50,50,1)" stroke-width="2" fill-opacity="1" fill="#ffffff"></path></g><g id="SvgjsG1082"><path id="SvgjsPath1083" d="M560.6972878017986 467.952954144699L161.5642372419519 497.31583391333925" stroke="#323232" stroke-width="2" fill="none" marker-end="url(#SvgjsMarker1084)"></path><rect id="SvgjsRect1086" width="22" height="19" x="350.1307625218752" y="473.1343940290191" fill="#ffffff"></rect><text id="SvgjsText1087" font-family="微软雅黑" text-anchor="middle" font-size="15px" width="22px" fill="#323232" font-weight="400" align="top" lineHeight="19px" anchor="middle" family="微软雅黑" size="15px" weight="400" font-style="" opacity="1" y="470.2593940290191" transform="rotate(0)"><tspan id="SvgjsTspan1088" dy="18" x="361.1307625218752"><tspan id="SvgjsTspan1089" style="text-decoration:;">OK</tspan></tspan></text></g></svg>