<svg id="SvgjsSvg1006" width="862" height="882" xmlns="http://www.w3.org/2000/svg" version="1.1" xmlns:xlink="http://www.w3.org/1999/xlink" xmlns:svgjs="http://svgjs.com/svgjs"><defs id="SvgjsDefs1007"><marker id="SvgjsMarker1030" markerWidth="14" markerHeight="10" refX="10" refY="5" viewBox="0 0 14 10" orient="auto" markerUnits="userSpaceOnUse" stroke-dasharray="0,0"><path id="SvgjsPath1031" d="M0,0 L14,5 L0,10 L0,0" fill="#323232" stroke="#323232" stroke-width="1"></path></marker><marker id="SvgjsMarker1076" markerWidth="14" markerHeight="10" refX="10" refY="5" viewBox="0 0 14 10" orient="auto" markerUnits="userSpaceOnUse" stroke-dasharray="0,0"><path id="SvgjsPath1077" d="M0,0 L14,5 L0,10 L0,0" fill="#323232" stroke="#323232" stroke-width="1"></path></marker><marker id="SvgjsMarker1080" markerWidth="14" markerHeight="10" refX="10" refY="5" viewBox="0 0 14 10" orient="auto" markerUnits="userSpaceOnUse" stroke-dasharray="0,0"><path id="SvgjsPath1081" d="M0,0 L14,5 L0,10 L0,0" fill="#323232" stroke="#323232" stroke-width="1"></path></marker><marker id="SvgjsMarker1084" markerWidth="14" markerHeight="10" refX="10" refY="5" viewBox="0 0 14 10" orient="auto" markerUnits="userSpaceOnUse" stroke-dasharray="0,0"><path id="SvgjsPath1085" d="M0,0 L14,5 L0,10 L0,0" fill="#323232" stroke="#323232" stroke-width="1"></path></marker><marker id="SvgjsMarker1088" markerWidth="14" markerHeight="10" refX="10" refY="5" viewBox="0 0 14 10" orient="auto" markerUnits="userSpaceOnUse" stroke-dasharray="0,0"><path id="SvgjsPath1089" d="M0,0 L14,5 L0,10 L0,0" fill="#323232" stroke="#323232" stroke-width="1"></path></marker><marker id="SvgjsMarker1116" markerWidth="14" markerHeight="10" refX="10" refY="5" viewBox="0 0 14 10" orient="auto" markerUnits="userSpaceOnUse" stroke-dasharray="0,0"><path id="SvgjsPath1117" d="M0,0 L14,5 L0,10 L0,0" fill="#323232" stroke="#323232" stroke-width="1"></path></marker><marker id="SvgjsMarker1120" markerWidth="14" markerHeight="10" refX="10" refY="5" viewBox="0 0 14 10" orient="auto" markerUnits="userSpaceOnUse" stroke-dasharray="0,0"><path id="SvgjsPath1121" d="M0,0 L14,5 L0,10 L0,0" fill="#323232" stroke="#323232" stroke-width="1"></path></marker><marker id="SvgjsMarker1124" markerWidth="14" markerHeight="10" refX="10" refY="5" viewBox="0 0 14 10" orient="auto" markerUnits="userSpaceOnUse" stroke-dasharray="0,0"><path id="SvgjsPath1125" d="M0,0 L14,5 L0,10 L0,0" fill="#323232" stroke="#323232" stroke-width="1"></path></marker><marker id="SvgjsMarker1128" markerWidth="14" markerHeight="10" refX="10" refY="5" viewBox="0 0 14 10" orient="auto" markerUnits="userSpaceOnUse" stroke-dasharray="0,0"><path id="SvgjsPath1129" d="M0,0 L14,5 L0,10 L0,0" fill="#323232" stroke="#323232" stroke-width="1"></path></marker><marker id="SvgjsMarker1156" markerWidth="14" markerHeight="10" refX="10" refY="5" viewBox="0 0 14 10" orient="auto" markerUnits="userSpaceOnUse" stroke-dasharray="0,0"><path id="SvgjsPath1157" d="M0,0 L14,5 L0,10 L0,0" fill="#323232" stroke="#323232" stroke-width="1"></path></marker><marker id="SvgjsMarker1160" markerWidth="14" markerHeight="10" refX="10" refY="5" viewBox="0 0 14 10" orient="auto" markerUnits="userSpaceOnUse" stroke-dasharray="0,0"><path id="SvgjsPath1161" d="M0,0 L14,5 L0,10 L0,0" fill="#323232" stroke="#323232" stroke-width="1"></path></marker><marker id="SvgjsMarker1164" markerWidth="14" markerHeight="10" refX="10" refY="5" viewBox="0 0 14 10" orient="auto" markerUnits="userSpaceOnUse" stroke-dasharray="0,0"><path id="SvgjsPath1165" d="M0,0 L14,5 L0,10 L0,0" fill="#323232" stroke="#323232" stroke-width="1"></path></marker><marker id="SvgjsMarker1168" markerWidth="14" markerHeight="10" refX="10" refY="5" viewBox="0 0 14 10" orient="auto" markerUnits="userSpaceOnUse" stroke-dasharray="0,0"><path id="SvgjsPath1169" d="M0,0 L14,5 L0,10 L0,0" fill="#323232" stroke="#323232" stroke-width="1"></path></marker></defs><g id="SvgjsG1008" transform="translate(238,25)"><path id="SvgjsPath1009" d="M 0 0L 599 0L 599 832L 0 832Z" stroke-dasharray="10,6" stroke="rgba(50,50,50,1)" stroke-width="2" fill-opacity="1" fill="#ffffff"></path><g id="SvgjsG1010"><text id="SvgjsText1011" font-family="微软雅黑" text-anchor="middle" font-size="18px" width="579px" fill="#f44336" font-weight="700" align="top" lineHeight="125%" anchor="middle" family="微软雅黑" size="18px" weight="700" font-style="" opacity="1" y="-4.25" transform="rotate(0)"><tspan id="SvgjsTspan1012" dy="22" x="299.5"><tspan id="SvgjsTspan1013" style="text-decoration:;">SEGMENT</tspan></tspan></text></g></g><g id="SvgjsG1014" transform="translate(25,122)"><path id="SvgjsPath1015" d="M 0 0L 120 0L 120 70L 0 70Z" stroke="rgba(50,50,50,1)" stroke-width="2" fill-opacity="1" fill="#ffffff"></path><g id="SvgjsG1016"><text id="SvgjsText1017" font-family="微软雅黑" text-anchor="middle" font-size="14px" width="100px" fill="#f44336" font-weight="700" align="middle" lineHeight="125%" anchor="middle" family="微软雅黑" size="14px" weight="700" font-style="" opacity="1" y="14.75" transform="rotate(0)"><tspan id="SvgjsTspan1018" dy="17" x="60"><tspan id="SvgjsTspan1019" style="text-decoration:;">segment entry</tspan></tspan><tspan id="SvgjsTspan1020" dy="17" x="60"><tspan id="SvgjsTspan1021" style="text-decoration:;">(inode entry)</tspan></tspan></text></g></g><g id="SvgjsG1022" transform="translate(248,73)"><path id="SvgjsPath1023" d="M 0 4Q 0 0 4 0L 147 0Q 151 0 151 4L 151 376Q 151 380 147 380L 4 380Q 0 380 0 376Z" stroke="rgba(50,50,50,1)" stroke-width="2" fill-opacity="1" fill="#9e9e9e"></path><g id="SvgjsG1024"><text id="SvgjsText1025" font-family="微软雅黑" text-anchor="middle" font-size="15px" width="131px" fill="#323232" font-weight="700" align="middle" lineHeight="125%" anchor="middle" family="微软雅黑" size="15px" weight="700" font-style="" opacity="1" y="177.625" transform="rotate(0)"><tspan id="SvgjsTspan1026" dy="18" x="75.5"><tspan id="SvgjsTspan1027" style="text-decoration:;">Page 0</tspan></tspan></text></g></g><g id="SvgjsG1028"><path id="SvgjsPath1029" d="M146 157L191.5 157L191.5 156.76470588235293L234.39999999999998 156.76470588235293" stroke="#323232" stroke-width="2" fill="none" marker-end="url(#SvgjsMarker1030)"></path></g><g id="SvgjsG1032" transform="translate(403,73)"><path id="SvgjsPath1033" d="M 0 4Q 0 0 4 0L 147 0Q 151 0 151 4L 151 376Q 151 380 147 380L 4 380Q 0 380 0 376Z" stroke="rgba(50,50,50,1)" stroke-width="2" fill-opacity="1" fill="#9e9e9e"></path><g id="SvgjsG1034"><text id="SvgjsText1035" font-family="微软雅黑" text-anchor="middle" font-size="15px" width="131px" fill="#323232" font-weight="700" align="middle" lineHeight="125%" anchor="middle" family="微软雅黑" size="15px" weight="700" font-style="" opacity="1" y="177.625" transform="rotate(0)"><tspan id="SvgjsTspan1036" dy="18" x="75.5"><tspan id="SvgjsTspan1037" style="text-decoration:;">Page 1</tspan></tspan></text></g></g><g id="SvgjsG1038" transform="translate(668,73)"><path id="SvgjsPath1039" d="M 0 4Q 0 0 4 0L 147 0Q 151 0 151 4L 151 376Q 151 380 147 380L 4 380Q 0 380 0 376Z" stroke="rgba(50,50,50,1)" stroke-width="2" fill-opacity="1" fill="#9e9e9e"></path><g id="SvgjsG1040"><text id="SvgjsText1041" font-family="微软雅黑" text-anchor="middle" font-size="15px" width="131px" fill="#323232" font-weight="700" align="middle" lineHeight="125%" anchor="middle" family="微软雅黑" size="15px" weight="700" font-style="" opacity="1" y="177.625" transform="rotate(0)"><tspan id="SvgjsTspan1042" dy="18" x="75.5"><tspan id="SvgjsTspan1043" style="text-decoration:;">Page 31</tspan></tspan></text></g></g><g id="SvgjsG1044" transform="translate(548,249)"><path id="SvgjsPath1045" d="M 0 0L 120 0L 120 40L 0 40Z" stroke="none" fill="none"></path><g id="SvgjsG1046"><text id="SvgjsText1047" font-family="微软雅黑" text-anchor="middle" font-size="24px" width="120px" fill="#323232" font-weight="700" align="middle" lineHeight="125%" anchor="middle" family="微软雅黑" size="24px" weight="700" font-style="" opacity="1" y="-1" transform="rotate(0)"><tspan id="SvgjsTspan1048" dy="30" x="60"><tspan id="SvgjsTspan1049" style="text-decoration:;">......</tspan></tspan></text></g></g><g id="SvgjsG1050" transform="translate(328,482)"><path id="SvgjsPath1051" d="M 0 0L 100 0L 100 100L 0 100Z" stroke="rgba(97,97,97,1)" stroke-width="2" fill-opacity="1" fill="#616161"></path><g id="SvgjsG1052"><text id="SvgjsText1053" font-family="微软雅黑" text-anchor="middle" font-size="13px" width="80px" fill="#ffffff" font-weight="400" align="middle" lineHeight="125%" anchor="middle" family="微软雅黑" size="13px" weight="400" font-style="" opacity="1" y="30.875" transform="rotate(0)"><tspan id="SvgjsTspan1054" dy="16" x="50"><tspan id="SvgjsTspan1055" style="text-decoration:;">EXTENT X</tspan></tspan><tspan id="SvgjsTspan1056" dy="16" x="50"><tspan id="SvgjsTspan1057" style="text-decoration:;">(64个Page）</tspan></tspan></text></g></g><g id="SvgjsG1058" transform="translate(630,482)"><path id="SvgjsPath1059" d="M 0 0L 100 0L 100 100L 0 100Z" stroke="rgba(97,97,97,1)" stroke-width="2" fill-opacity="1" fill="#616161"></path><g id="SvgjsG1060"><text id="SvgjsText1061" font-family="微软雅黑" text-anchor="middle" font-size="13px" width="80px" fill="#ffffff" font-weight="400" align="middle" lineHeight="125%" anchor="middle" family="微软雅黑" size="13px" weight="400" font-style="" opacity="1" y="30.875" transform="rotate(0)"><tspan id="SvgjsTspan1062" dy="16" x="50"><tspan id="SvgjsTspan1063" style="text-decoration:;">EXTENT X</tspan></tspan><tspan id="SvgjsTspan1064" dy="16" x="50"><tspan id="SvgjsTspan1065" style="text-decoration:;">(64个Page）</tspan></tspan></text></g></g><g id="SvgjsG1066" transform="translate(479,482)"><path id="SvgjsPath1067" d="M 0 0L 100 0L 100 100L 0 100Z" stroke="rgba(97,97,97,1)" stroke-width="2" fill-opacity="1" fill="#616161"></path><g id="SvgjsG1068"><text id="SvgjsText1069" font-family="微软雅黑" text-anchor="middle" font-size="13px" width="80px" fill="#ffffff" font-weight="400" align="middle" lineHeight="125%" anchor="middle" family="微软雅黑" size="13px" weight="400" font-style="" opacity="1" y="30.875" transform="rotate(0)"><tspan id="SvgjsTspan1070" dy="16" x="50"><tspan id="SvgjsTspan1071" style="text-decoration:;">EXTENT X</tspan></tspan><tspan id="SvgjsTspan1072" dy="16" x="50"><tspan id="SvgjsTspan1073" style="text-decoration:;">(64个Page）</tspan></tspan></text></g></g><g id="SvgjsG1074"><path id="SvgjsPath1075" d="M429 493L453.5 493L453.5 493L475.4 493" stroke="#323232" stroke-width="2" fill="none" marker-end="url(#SvgjsMarker1076)"></path></g><g id="SvgjsG1078"><path id="SvgjsPath1079" d="M478 565L453.5 565L453.5 565L431.6 565" stroke="#323232" stroke-width="2" fill="none" marker-end="url(#SvgjsMarker1080)"></path></g><g id="SvgjsG1082"><path id="SvgjsPath1083" d="M580 492L604.5 492L604.5 492L626.4 492" stroke="#323232" stroke-width="2" fill="none" marker-end="url(#SvgjsMarker1084)"></path></g><g id="SvgjsG1086"><path id="SvgjsPath1087" d="M629 565L604.5 565L604.5 565L582.6 565" stroke="#323232" stroke-width="2" fill="none" marker-end="url(#SvgjsMarker1088)"></path></g><g id="SvgjsG1090" transform="translate(328,614)"><path id="SvgjsPath1091" d="M 0 0L 100 0L 100 100L 0 100Z" stroke="rgba(97,97,97,1)" stroke-width="2" fill-opacity="1" fill="#616161"></path><g id="SvgjsG1092"><text id="SvgjsText1093" font-family="微软雅黑" text-anchor="middle" font-size="13px" width="80px" fill="#ffffff" font-weight="400" align="middle" lineHeight="125%" anchor="middle" family="微软雅黑" size="13px" weight="400" font-style="" opacity="1" y="30.875" transform="rotate(0)"><tspan id="SvgjsTspan1094" dy="16" x="50"><tspan id="SvgjsTspan1095" style="text-decoration:;">EXTENT X</tspan></tspan><tspan id="SvgjsTspan1096" dy="16" x="50"><tspan id="SvgjsTspan1097" style="text-decoration:;">(64个Page）</tspan></tspan></text></g></g><g id="SvgjsG1098" transform="translate(630,614)"><path id="SvgjsPath1099" d="M 0 0L 100 0L 100 100L 0 100Z" stroke="rgba(97,97,97,1)" stroke-width="2" fill-opacity="1" fill="#616161"></path><g id="SvgjsG1100"><text id="SvgjsText1101" font-family="微软雅黑" text-anchor="middle" font-size="13px" width="80px" fill="#ffffff" font-weight="400" align="middle" lineHeight="125%" anchor="middle" family="微软雅黑" size="13px" weight="400" font-style="" opacity="1" y="30.875" transform="rotate(0)"><tspan id="SvgjsTspan1102" dy="16" x="50"><tspan id="SvgjsTspan1103" style="text-decoration:;">EXTENT X</tspan></tspan><tspan id="SvgjsTspan1104" dy="16" x="50"><tspan id="SvgjsTspan1105" style="text-decoration:;">(64个Page）</tspan></tspan></text></g></g><g id="SvgjsG1106" transform="translate(479,614)"><path id="SvgjsPath1107" d="M 0 0L 100 0L 100 100L 0 100Z" stroke="rgba(97,97,97,1)" stroke-width="2" fill-opacity="1" fill="#616161"></path><g id="SvgjsG1108"><text id="SvgjsText1109" font-family="微软雅黑" text-anchor="middle" font-size="13px" width="80px" fill="#ffffff" font-weight="400" align="middle" lineHeight="125%" anchor="middle" family="微软雅黑" size="13px" weight="400" font-style="" opacity="1" y="30.875" transform="rotate(0)"><tspan id="SvgjsTspan1110" dy="16" x="50"><tspan id="SvgjsTspan1111" style="text-decoration:;">EXTENT X</tspan></tspan><tspan id="SvgjsTspan1112" dy="16" x="50"><tspan id="SvgjsTspan1113" style="text-decoration:;">(64个Page）</tspan></tspan></text></g></g><g id="SvgjsG1114"><path id="SvgjsPath1115" d="M429 625L453.5 625L453.5 625L475.4 625" stroke="#323232" stroke-width="2" fill="none" marker-end="url(#SvgjsMarker1116)"></path></g><g id="SvgjsG1118"><path id="SvgjsPath1119" d="M478 697L453.5 697L453.5 697L431.6 697" stroke="#323232" stroke-width="2" fill="none" marker-end="url(#SvgjsMarker1120)"></path></g><g id="SvgjsG1122"><path id="SvgjsPath1123" d="M580 624L604.5 624L604.5 624L626.4 624" stroke="#323232" stroke-width="2" fill="none" marker-end="url(#SvgjsMarker1124)"></path></g><g id="SvgjsG1126"><path id="SvgjsPath1127" d="M629 697L604.5 697L604.5 697L582.6 697" stroke="#323232" stroke-width="2" fill="none" marker-end="url(#SvgjsMarker1128)"></path></g><g id="SvgjsG1130" transform="translate(328,737)"><path id="SvgjsPath1131" d="M 0 0L 100 0L 100 100L 0 100Z" stroke="rgba(97,97,97,1)" stroke-width="2" fill-opacity="1" fill="#616161"></path><g id="SvgjsG1132"><text id="SvgjsText1133" font-family="微软雅黑" text-anchor="middle" font-size="13px" width="80px" fill="#ffffff" font-weight="400" align="middle" lineHeight="125%" anchor="middle" family="微软雅黑" size="13px" weight="400" font-style="" opacity="1" y="30.875" transform="rotate(0)"><tspan id="SvgjsTspan1134" dy="16" x="50"><tspan id="SvgjsTspan1135" style="text-decoration:;">EXTENT X</tspan></tspan><tspan id="SvgjsTspan1136" dy="16" x="50"><tspan id="SvgjsTspan1137" style="text-decoration:;">(64个Page）</tspan></tspan></text></g></g><g id="SvgjsG1138" transform="translate(630,737)"><path id="SvgjsPath1139" d="M 0 0L 100 0L 100 100L 0 100Z" stroke="rgba(97,97,97,1)" stroke-width="2" fill-opacity="1" fill="#616161"></path><g id="SvgjsG1140"><text id="SvgjsText1141" font-family="微软雅黑" text-anchor="middle" font-size="13px" width="80px" fill="#ffffff" font-weight="400" align="middle" lineHeight="125%" anchor="middle" family="微软雅黑" size="13px" weight="400" font-style="" opacity="1" y="30.875" transform="rotate(0)"><tspan id="SvgjsTspan1142" dy="16" x="50"><tspan id="SvgjsTspan1143" style="text-decoration:;">EXTENT X</tspan></tspan><tspan id="SvgjsTspan1144" dy="16" x="50"><tspan id="SvgjsTspan1145" style="text-decoration:;">(64个Page）</tspan></tspan></text></g></g><g id="SvgjsG1146" transform="translate(479,737)"><path id="SvgjsPath1147" d="M 0 0L 100 0L 100 100L 0 100Z" stroke="rgba(97,97,97,1)" stroke-width="2" fill-opacity="1" fill="#616161"></path><g id="SvgjsG1148"><text id="SvgjsText1149" font-family="微软雅黑" text-anchor="middle" font-size="13px" width="80px" fill="#ffffff" font-weight="400" align="middle" lineHeight="125%" anchor="middle" family="微软雅黑" size="13px" weight="400" font-style="" opacity="1" y="30.875" transform="rotate(0)"><tspan id="SvgjsTspan1150" dy="16" x="50"><tspan id="SvgjsTspan1151" style="text-decoration:;">EXTENT X</tspan></tspan><tspan id="SvgjsTspan1152" dy="16" x="50"><tspan id="SvgjsTspan1153" style="text-decoration:;">(64个Page）</tspan></tspan></text></g></g><g id="SvgjsG1154"><path id="SvgjsPath1155" d="M429 748L453.5 748L453.5 748L475.4 748" stroke="#323232" stroke-width="2" fill="none" marker-end="url(#SvgjsMarker1156)"></path></g><g id="SvgjsG1158"><path id="SvgjsPath1159" d="M478 820L453.5 820L453.5 820L431.6 820" stroke="#323232" stroke-width="2" fill="none" marker-end="url(#SvgjsMarker1160)"></path></g><g id="SvgjsG1162"><path id="SvgjsPath1163" d="M580 747L604.5 747L604.5 747L626.4 747" stroke="#323232" stroke-width="2" fill="none" marker-end="url(#SvgjsMarker1164)"></path></g><g id="SvgjsG1166"><path id="SvgjsPath1167" d="M629 820L604.5 820L604.5 820L582.6 820" stroke="#323232" stroke-width="2" fill="none" marker-end="url(#SvgjsMarker1168)"></path></g><g id="SvgjsG1170" transform="translate(239,510.5)"><path id="SvgjsPath1171" d="M 0 0L 89 0L 89 32.5L 0 32.5Z" stroke="none" fill="none"></path><g id="SvgjsG1172"><text id="SvgjsText1173" font-family="微软雅黑" text-anchor="middle" font-size="13px" width="89px" fill="#323232" font-weight="400" align="middle" lineHeight="125%" anchor="middle" family="微软雅黑" size="13px" weight="400" font-style="" opacity="1" y="5.625" transform="rotate(0)"><tspan id="SvgjsTspan1174" dy="16" x="44.5"><tspan id="SvgjsTspan1175" style="text-decoration:;">FREE</tspan></tspan></text></g></g><g id="SvgjsG1176" transform="translate(239,647.75)"><path id="SvgjsPath1177" d="M 0 0L 89 0L 89 32.5L 0 32.5Z" stroke="none" fill="none"></path><g id="SvgjsG1178"><text id="SvgjsText1179" font-family="微软雅黑" text-anchor="middle" font-size="13px" width="89px" fill="#323232" font-weight="400" align="middle" lineHeight="125%" anchor="middle" family="微软雅黑" size="13px" weight="400" font-style="" opacity="1" y="5.625" transform="rotate(0)"><tspan id="SvgjsTspan1180" dy="16" x="44.5"><tspan id="SvgjsTspan1181" style="text-decoration:;">NOT FULL</tspan></tspan></text></g></g><g id="SvgjsG1182" transform="translate(239,770.75)"><path id="SvgjsPath1183" d="M 0 0L 89 0L 89 32.5L 0 32.5Z" stroke="none" fill="none"></path><g id="SvgjsG1184"><text id="SvgjsText1185" font-family="微软雅黑" text-anchor="middle" font-size="13px" width="89px" fill="#323232" font-weight="400" align="middle" lineHeight="125%" anchor="middle" family="微软雅黑" size="13px" weight="400" font-style="" opacity="1" y="5.625" transform="rotate(0)"><tspan id="SvgjsTspan1186" dy="16" x="44.5"><tspan id="SvgjsTspan1187" style="text-decoration:;">FULL</tspan></tspan></text></g></g></svg>