<svg id="SvgjsSvg1006" width="873" height="882" xmlns="http://www.w3.org/2000/svg" version="1.1" xmlns:xlink="http://www.w3.org/1999/xlink" xmlns:svgjs="http://svgjs.com/svgjs"><defs id="SvgjsDefs1007"><marker id="SvgjsMarker1038" markerWidth="14" markerHeight="10" refX="10" refY="5" viewBox="0 0 14 10" orient="auto" markerUnits="userSpaceOnUse" stroke-dasharray="0,0"><path id="SvgjsPath1039" d="M0,0 L14,5 L0,10 L0,0" fill="#323232" stroke="#323232" stroke-width="1"></path></marker><marker id="SvgjsMarker1084" markerWidth="14" markerHeight="10" refX="10" refY="5" viewBox="0 0 14 10" orient="auto" markerUnits="userSpaceOnUse" stroke-dasharray="0,0"><path id="SvgjsPath1085" d="M0,0 L14,5 L0,10 L0,0" fill="#323232" stroke="#323232" stroke-width="1"></path></marker><marker id="SvgjsMarker1088" markerWidth="14" markerHeight="10" refX="10" refY="5" viewBox="0 0 14 10" orient="auto" markerUnits="userSpaceOnUse" stroke-dasharray="0,0"><path id="SvgjsPath1089" d="M0,0 L14,5 L0,10 L0,0" fill="#323232" stroke="#323232" stroke-width="1"></path></marker><marker id="SvgjsMarker1092" markerWidth="14" markerHeight="10" refX="10" refY="5" viewBox="0 0 14 10" orient="auto" markerUnits="userSpaceOnUse" stroke-dasharray="0,0"><path id="SvgjsPath1093" d="M0,0 L14,5 L0,10 L0,0" fill="#323232" stroke="#323232" stroke-width="1"></path></marker><marker id="SvgjsMarker1096" markerWidth="14" markerHeight="10" refX="10" refY="5" viewBox="0 0 14 10" orient="auto" markerUnits="userSpaceOnUse" stroke-dasharray="0,0"><path id="SvgjsPath1097" d="M0,0 L14,5 L0,10 L0,0" fill="#323232" stroke="#323232" stroke-width="1"></path></marker><marker id="SvgjsMarker1124" markerWidth="14" markerHeight="10" refX="10" refY="5" viewBox="0 0 14 10" orient="auto" markerUnits="userSpaceOnUse" stroke-dasharray="0,0"><path id="SvgjsPath1125" d="M0,0 L14,5 L0,10 L0,0" fill="#323232" stroke="#323232" stroke-width="1"></path></marker><marker id="SvgjsMarker1128" markerWidth="14" markerHeight="10" refX="10" refY="5" viewBox="0 0 14 10" orient="auto" markerUnits="userSpaceOnUse" stroke-dasharray="0,0"><path id="SvgjsPath1129" d="M0,0 L14,5 L0,10 L0,0" fill="#323232" stroke="#323232" stroke-width="1"></path></marker><marker id="SvgjsMarker1132" markerWidth="14" markerHeight="10" refX="10" refY="5" viewBox="0 0 14 10" orient="auto" markerUnits="userSpaceOnUse" stroke-dasharray="0,0"><path id="SvgjsPath1133" d="M0,0 L14,5 L0,10 L0,0" fill="#323232" stroke="#323232" stroke-width="1"></path></marker><marker id="SvgjsMarker1136" markerWidth="14" markerHeight="10" refX="10" refY="5" viewBox="0 0 14 10" orient="auto" markerUnits="userSpaceOnUse" stroke-dasharray="0,0"><path id="SvgjsPath1137" d="M0,0 L14,5 L0,10 L0,0" fill="#323232" stroke="#323232" stroke-width="1"></path></marker><marker id="SvgjsMarker1164" markerWidth="14" markerHeight="10" refX="10" refY="5" viewBox="0 0 14 10" orient="auto" markerUnits="userSpaceOnUse" stroke-dasharray="0,0"><path id="SvgjsPath1165" d="M0,0 L14,5 L0,10 L0,0" fill="#323232" stroke="#323232" stroke-width="1"></path></marker><marker id="SvgjsMarker1168" markerWidth="14" markerHeight="10" refX="10" refY="5" viewBox="0 0 14 10" orient="auto" markerUnits="userSpaceOnUse" stroke-dasharray="0,0"><path id="SvgjsPath1169" d="M0,0 L14,5 L0,10 L0,0" fill="#323232" stroke="#323232" stroke-width="1"></path></marker><marker id="SvgjsMarker1172" markerWidth="14" markerHeight="10" refX="10" refY="5" viewBox="0 0 14 10" orient="auto" markerUnits="userSpaceOnUse" stroke-dasharray="0,0"><path id="SvgjsPath1173" d="M0,0 L14,5 L0,10 L0,0" fill="#323232" stroke="#323232" stroke-width="1"></path></marker><marker id="SvgjsMarker1176" markerWidth="14" markerHeight="10" refX="10" refY="5" viewBox="0 0 14 10" orient="auto" markerUnits="userSpaceOnUse" stroke-dasharray="0,0"><path id="SvgjsPath1177" d="M0,0 L14,5 L0,10 L0,0" fill="#323232" stroke="#323232" stroke-width="1"></path></marker></defs><g id="SvgjsG1008" transform="translate(25,73)"><path id="SvgjsPath1009" d="M 0 4Q 0 0 4 0L 166 0Q 170 0 170 4L 170 376Q 170 380 166 380L 4 380Q 0 380 0 376Z" stroke="rgba(50,50,50,1)" stroke-width="2" fill-opacity="1" fill="#9e9e9e"></path><g id="SvgjsG1010"><text id="SvgjsText1011" font-family="微软雅黑" text-anchor="middle" font-size="18px" width="150px" fill="#f44336" font-weight="700" align="top" lineHeight="125%" anchor="middle" family="微软雅黑" size="18px" weight="700" font-style="" opacity="1" y="-4.25" transform="rotate(0)"><tspan id="SvgjsTspan1012" dy="22" x="85"><tspan id="SvgjsTspan1013" style="text-decoration:;">segment page</tspan></tspan><tspan id="SvgjsTspan1014" dy="22" x="85"><tspan id="SvgjsTspan1015" style="text-decoration:;">(inode page)</tspan></tspan></text></g></g><g id="SvgjsG1016" transform="translate(249,25)"><path id="SvgjsPath1017" d="M 0 0L 599 0L 599 832L 0 832Z" stroke-dasharray="10,6" stroke="rgba(50,50,50,1)" stroke-width="2" fill-opacity="1" fill="#ffffff"></path><g id="SvgjsG1018"><text id="SvgjsText1019" font-family="微软雅黑" text-anchor="middle" font-size="18px" width="579px" fill="#f44336" font-weight="700" align="top" lineHeight="125%" anchor="middle" family="微软雅黑" size="18px" weight="700" font-style="" opacity="1" y="-4.25" transform="rotate(0)"><tspan id="SvgjsTspan1020" dy="22" x="299.5"><tspan id="SvgjsTspan1021" style="text-decoration:;">SEGMENT</tspan></tspan></text></g></g><g id="SvgjsG1022" transform="translate(36,122)"><path id="SvgjsPath1023" d="M 0 0L 150 0L 150 70L 0 70Z" stroke="rgba(50,50,50,1)" stroke-width="2" fill-opacity="1" fill="#ffffff"></path><g id="SvgjsG1024"><text id="SvgjsText1025" font-family="微软雅黑" text-anchor="middle" font-size="14px" width="130px" fill="#f44336" font-weight="700" align="middle" lineHeight="125%" anchor="middle" family="微软雅黑" size="14px" weight="700" font-style="" opacity="1" y="14.75" transform="rotate(0)"><tspan id="SvgjsTspan1026" dy="17" x="75"><tspan id="SvgjsTspan1027" style="text-decoration:;">segment entry 0</tspan></tspan><tspan id="SvgjsTspan1028" dy="17" x="75"><tspan id="SvgjsTspan1029" style="text-decoration:;">(inode entry)</tspan></tspan></text></g></g><g id="SvgjsG1030" transform="translate(259,73)"><path id="SvgjsPath1031" d="M 0 4Q 0 0 4 0L 147 0Q 151 0 151 4L 151 376Q 151 380 147 380L 4 380Q 0 380 0 376Z" stroke="rgba(50,50,50,1)" stroke-width="2" fill-opacity="1" fill="#9e9e9e"></path><g id="SvgjsG1032"><text id="SvgjsText1033" font-family="微软雅黑" text-anchor="middle" font-size="15px" width="131px" fill="#323232" font-weight="700" align="middle" lineHeight="125%" anchor="middle" family="微软雅黑" size="15px" weight="700" font-style="" opacity="1" y="177.625" transform="rotate(0)"><tspan id="SvgjsTspan1034" dy="18" x="75.5"><tspan id="SvgjsTspan1035" style="text-decoration:;">Page 0</tspan></tspan></text></g></g><g id="SvgjsG1036"><path id="SvgjsPath1037" d="M187 157L217.5 157L217.5 156.76470588235293L245.39999999999998 156.76470588235293" stroke="#323232" stroke-width="2" fill="none" marker-end="url(#SvgjsMarker1038)"></path></g><g id="SvgjsG1040" transform="translate(414,73)"><path id="SvgjsPath1041" d="M 0 4Q 0 0 4 0L 147 0Q 151 0 151 4L 151 376Q 151 380 147 380L 4 380Q 0 380 0 376Z" stroke="rgba(50,50,50,1)" stroke-width="2" fill-opacity="1" fill="#9e9e9e"></path><g id="SvgjsG1042"><text id="SvgjsText1043" font-family="微软雅黑" text-anchor="middle" font-size="15px" width="131px" fill="#323232" font-weight="700" align="middle" lineHeight="125%" anchor="middle" family="微软雅黑" size="15px" weight="700" font-style="" opacity="1" y="177.625" transform="rotate(0)"><tspan id="SvgjsTspan1044" dy="18" x="75.5"><tspan id="SvgjsTspan1045" style="text-decoration:;">Page 1</tspan></tspan></text></g></g><g id="SvgjsG1046" transform="translate(679,73)"><path id="SvgjsPath1047" d="M 0 4Q 0 0 4 0L 147 0Q 151 0 151 4L 151 376Q 151 380 147 380L 4 380Q 0 380 0 376Z" stroke="rgba(50,50,50,1)" stroke-width="2" fill-opacity="1" fill="#9e9e9e"></path><g id="SvgjsG1048"><text id="SvgjsText1049" font-family="微软雅黑" text-anchor="middle" font-size="15px" width="131px" fill="#323232" font-weight="700" align="middle" lineHeight="125%" anchor="middle" family="微软雅黑" size="15px" weight="700" font-style="" opacity="1" y="177.625" transform="rotate(0)"><tspan id="SvgjsTspan1050" dy="18" x="75.5"><tspan id="SvgjsTspan1051" style="text-decoration:;">Page 31</tspan></tspan></text></g></g><g id="SvgjsG1052" transform="translate(559,249)"><path id="SvgjsPath1053" d="M 0 0L 120 0L 120 40L 0 40Z" stroke="none" fill="none"></path><g id="SvgjsG1054"><text id="SvgjsText1055" font-family="微软雅黑" text-anchor="middle" font-size="24px" width="120px" fill="#323232" font-weight="700" align="middle" lineHeight="125%" anchor="middle" family="微软雅黑" size="24px" weight="700" font-style="" opacity="1" y="-1" transform="rotate(0)"><tspan id="SvgjsTspan1056" dy="30" x="60"><tspan id="SvgjsTspan1057" style="text-decoration:;">......</tspan></tspan></text></g></g><g id="SvgjsG1058" transform="translate(339,482)"><path id="SvgjsPath1059" d="M 0 0L 100 0L 100 100L 0 100Z" stroke="rgba(97,97,97,1)" stroke-width="2" fill-opacity="1" fill="#616161"></path><g id="SvgjsG1060"><text id="SvgjsText1061" font-family="微软雅黑" text-anchor="middle" font-size="13px" width="80px" fill="#ffffff" font-weight="400" align="middle" lineHeight="125%" anchor="middle" family="微软雅黑" size="13px" weight="400" font-style="" opacity="1" y="30.875" transform="rotate(0)"><tspan id="SvgjsTspan1062" dy="16" x="50"><tspan id="SvgjsTspan1063" style="text-decoration:;">EXTENT X</tspan></tspan><tspan id="SvgjsTspan1064" dy="16" x="50"><tspan id="SvgjsTspan1065" style="text-decoration:;">(64个Page）</tspan></tspan></text></g></g><g id="SvgjsG1066" transform="translate(641,482)"><path id="SvgjsPath1067" d="M 0 0L 100 0L 100 100L 0 100Z" stroke="rgba(97,97,97,1)" stroke-width="2" fill-opacity="1" fill="#616161"></path><g id="SvgjsG1068"><text id="SvgjsText1069" font-family="微软雅黑" text-anchor="middle" font-size="13px" width="80px" fill="#ffffff" font-weight="400" align="middle" lineHeight="125%" anchor="middle" family="微软雅黑" size="13px" weight="400" font-style="" opacity="1" y="30.875" transform="rotate(0)"><tspan id="SvgjsTspan1070" dy="16" x="50"><tspan id="SvgjsTspan1071" style="text-decoration:;">EXTENT X</tspan></tspan><tspan id="SvgjsTspan1072" dy="16" x="50"><tspan id="SvgjsTspan1073" style="text-decoration:;">(64个Page）</tspan></tspan></text></g></g><g id="SvgjsG1074" transform="translate(490,482)"><path id="SvgjsPath1075" d="M 0 0L 100 0L 100 100L 0 100Z" stroke="rgba(97,97,97,1)" stroke-width="2" fill-opacity="1" fill="#616161"></path><g id="SvgjsG1076"><text id="SvgjsText1077" font-family="微软雅黑" text-anchor="middle" font-size="13px" width="80px" fill="#ffffff" font-weight="400" align="middle" lineHeight="125%" anchor="middle" family="微软雅黑" size="13px" weight="400" font-style="" opacity="1" y="30.875" transform="rotate(0)"><tspan id="SvgjsTspan1078" dy="16" x="50"><tspan id="SvgjsTspan1079" style="text-decoration:;">EXTENT X</tspan></tspan><tspan id="SvgjsTspan1080" dy="16" x="50"><tspan id="SvgjsTspan1081" style="text-decoration:;">(64个Page）</tspan></tspan></text></g></g><g id="SvgjsG1082"><path id="SvgjsPath1083" d="M440 493L464.5 493L464.5 493L486.4 493" stroke="#323232" stroke-width="2" fill="none" marker-end="url(#SvgjsMarker1084)"></path></g><g id="SvgjsG1086"><path id="SvgjsPath1087" d="M489 565L464.5 565L464.5 565L442.6 565" stroke="#323232" stroke-width="2" fill="none" marker-end="url(#SvgjsMarker1088)"></path></g><g id="SvgjsG1090"><path id="SvgjsPath1091" d="M591 492L615.5 492L615.5 492L637.4 492" stroke="#323232" stroke-width="2" fill="none" marker-end="url(#SvgjsMarker1092)"></path></g><g id="SvgjsG1094"><path id="SvgjsPath1095" d="M640 565L615.5 565L615.5 565L593.6 565" stroke="#323232" stroke-width="2" fill="none" marker-end="url(#SvgjsMarker1096)"></path></g><g id="SvgjsG1098" transform="translate(339,614)"><path id="SvgjsPath1099" d="M 0 0L 100 0L 100 100L 0 100Z" stroke="rgba(97,97,97,1)" stroke-width="2" fill-opacity="1" fill="#616161"></path><g id="SvgjsG1100"><text id="SvgjsText1101" font-family="微软雅黑" text-anchor="middle" font-size="13px" width="80px" fill="#ffffff" font-weight="400" align="middle" lineHeight="125%" anchor="middle" family="微软雅黑" size="13px" weight="400" font-style="" opacity="1" y="30.875" transform="rotate(0)"><tspan id="SvgjsTspan1102" dy="16" x="50"><tspan id="SvgjsTspan1103" style="text-decoration:;">EXTENT X</tspan></tspan><tspan id="SvgjsTspan1104" dy="16" x="50"><tspan id="SvgjsTspan1105" style="text-decoration:;">(64个Page）</tspan></tspan></text></g></g><g id="SvgjsG1106" transform="translate(641,614)"><path id="SvgjsPath1107" d="M 0 0L 100 0L 100 100L 0 100Z" stroke="rgba(97,97,97,1)" stroke-width="2" fill-opacity="1" fill="#616161"></path><g id="SvgjsG1108"><text id="SvgjsText1109" font-family="微软雅黑" text-anchor="middle" font-size="13px" width="80px" fill="#ffffff" font-weight="400" align="middle" lineHeight="125%" anchor="middle" family="微软雅黑" size="13px" weight="400" font-style="" opacity="1" y="30.875" transform="rotate(0)"><tspan id="SvgjsTspan1110" dy="16" x="50"><tspan id="SvgjsTspan1111" style="text-decoration:;">EXTENT X</tspan></tspan><tspan id="SvgjsTspan1112" dy="16" x="50"><tspan id="SvgjsTspan1113" style="text-decoration:;">(64个Page）</tspan></tspan></text></g></g><g id="SvgjsG1114" transform="translate(490,614)"><path id="SvgjsPath1115" d="M 0 0L 100 0L 100 100L 0 100Z" stroke="rgba(97,97,97,1)" stroke-width="2" fill-opacity="1" fill="#616161"></path><g id="SvgjsG1116"><text id="SvgjsText1117" font-family="微软雅黑" text-anchor="middle" font-size="13px" width="80px" fill="#ffffff" font-weight="400" align="middle" lineHeight="125%" anchor="middle" family="微软雅黑" size="13px" weight="400" font-style="" opacity="1" y="30.875" transform="rotate(0)"><tspan id="SvgjsTspan1118" dy="16" x="50"><tspan id="SvgjsTspan1119" style="text-decoration:;">EXTENT X</tspan></tspan><tspan id="SvgjsTspan1120" dy="16" x="50"><tspan id="SvgjsTspan1121" style="text-decoration:;">(64个Page）</tspan></tspan></text></g></g><g id="SvgjsG1122"><path id="SvgjsPath1123" d="M440 625L464.5 625L464.5 625L486.4 625" stroke="#323232" stroke-width="2" fill="none" marker-end="url(#SvgjsMarker1124)"></path></g><g id="SvgjsG1126"><path id="SvgjsPath1127" d="M489 697L464.5 697L464.5 697L442.6 697" stroke="#323232" stroke-width="2" fill="none" marker-end="url(#SvgjsMarker1128)"></path></g><g id="SvgjsG1130"><path id="SvgjsPath1131" d="M591 624L615.5 624L615.5 624L637.4 624" stroke="#323232" stroke-width="2" fill="none" marker-end="url(#SvgjsMarker1132)"></path></g><g id="SvgjsG1134"><path id="SvgjsPath1135" d="M640 697L615.5 697L615.5 697L593.6 697" stroke="#323232" stroke-width="2" fill="none" marker-end="url(#SvgjsMarker1136)"></path></g><g id="SvgjsG1138" transform="translate(339,737)"><path id="SvgjsPath1139" d="M 0 0L 100 0L 100 100L 0 100Z" stroke="rgba(97,97,97,1)" stroke-width="2" fill-opacity="1" fill="#616161"></path><g id="SvgjsG1140"><text id="SvgjsText1141" font-family="微软雅黑" text-anchor="middle" font-size="13px" width="80px" fill="#ffffff" font-weight="400" align="middle" lineHeight="125%" anchor="middle" family="微软雅黑" size="13px" weight="400" font-style="" opacity="1" y="30.875" transform="rotate(0)"><tspan id="SvgjsTspan1142" dy="16" x="50"><tspan id="SvgjsTspan1143" style="text-decoration:;">EXTENT X</tspan></tspan><tspan id="SvgjsTspan1144" dy="16" x="50"><tspan id="SvgjsTspan1145" style="text-decoration:;">(64个Page）</tspan></tspan></text></g></g><g id="SvgjsG1146" transform="translate(641,737)"><path id="SvgjsPath1147" d="M 0 0L 100 0L 100 100L 0 100Z" stroke="rgba(97,97,97,1)" stroke-width="2" fill-opacity="1" fill="#616161"></path><g id="SvgjsG1148"><text id="SvgjsText1149" font-family="微软雅黑" text-anchor="middle" font-size="13px" width="80px" fill="#ffffff" font-weight="400" align="middle" lineHeight="125%" anchor="middle" family="微软雅黑" size="13px" weight="400" font-style="" opacity="1" y="30.875" transform="rotate(0)"><tspan id="SvgjsTspan1150" dy="16" x="50"><tspan id="SvgjsTspan1151" style="text-decoration:;">EXTENT X</tspan></tspan><tspan id="SvgjsTspan1152" dy="16" x="50"><tspan id="SvgjsTspan1153" style="text-decoration:;">(64个Page）</tspan></tspan></text></g></g><g id="SvgjsG1154" transform="translate(490,737)"><path id="SvgjsPath1155" d="M 0 0L 100 0L 100 100L 0 100Z" stroke="rgba(97,97,97,1)" stroke-width="2" fill-opacity="1" fill="#616161"></path><g id="SvgjsG1156"><text id="SvgjsText1157" font-family="微软雅黑" text-anchor="middle" font-size="13px" width="80px" fill="#ffffff" font-weight="400" align="middle" lineHeight="125%" anchor="middle" family="微软雅黑" size="13px" weight="400" font-style="" opacity="1" y="30.875" transform="rotate(0)"><tspan id="SvgjsTspan1158" dy="16" x="50"><tspan id="SvgjsTspan1159" style="text-decoration:;">EXTENT X</tspan></tspan><tspan id="SvgjsTspan1160" dy="16" x="50"><tspan id="SvgjsTspan1161" style="text-decoration:;">(64个Page）</tspan></tspan></text></g></g><g id="SvgjsG1162"><path id="SvgjsPath1163" d="M440 748L464.5 748L464.5 748L486.4 748" stroke="#323232" stroke-width="2" fill="none" marker-end="url(#SvgjsMarker1164)"></path></g><g id="SvgjsG1166"><path id="SvgjsPath1167" d="M489 820L464.5 820L464.5 820L442.6 820" stroke="#323232" stroke-width="2" fill="none" marker-end="url(#SvgjsMarker1168)"></path></g><g id="SvgjsG1170"><path id="SvgjsPath1171" d="M591 747L615.5 747L615.5 747L637.4 747" stroke="#323232" stroke-width="2" fill="none" marker-end="url(#SvgjsMarker1172)"></path></g><g id="SvgjsG1174"><path id="SvgjsPath1175" d="M640 820L615.5 820L615.5 820L593.6 820" stroke="#323232" stroke-width="2" fill="none" marker-end="url(#SvgjsMarker1176)"></path></g><g id="SvgjsG1178" transform="translate(250,510.5)"><path id="SvgjsPath1179" d="M 0 0L 89 0L 89 32.5L 0 32.5Z" stroke="none" fill="none"></path><g id="SvgjsG1180"><text id="SvgjsText1181" font-family="微软雅黑" text-anchor="middle" font-size="13px" width="89px" fill="#323232" font-weight="400" align="middle" lineHeight="125%" anchor="middle" family="微软雅黑" size="13px" weight="400" font-style="" opacity="1" y="5.625" transform="rotate(0)"><tspan id="SvgjsTspan1182" dy="16" x="44.5"><tspan id="SvgjsTspan1183" style="text-decoration:;">FREE</tspan></tspan></text></g></g><g id="SvgjsG1184" transform="translate(250,647.75)"><path id="SvgjsPath1185" d="M 0 0L 89 0L 89 32.5L 0 32.5Z" stroke="none" fill="none"></path><g id="SvgjsG1186"><text id="SvgjsText1187" font-family="微软雅黑" text-anchor="middle" font-size="13px" width="89px" fill="#323232" font-weight="400" align="middle" lineHeight="125%" anchor="middle" family="微软雅黑" size="13px" weight="400" font-style="" opacity="1" y="5.625" transform="rotate(0)"><tspan id="SvgjsTspan1188" dy="16" x="44.5"><tspan id="SvgjsTspan1189" style="text-decoration:;">NOT FULL</tspan></tspan></text></g></g><g id="SvgjsG1190" transform="translate(250,770.75)"><path id="SvgjsPath1191" d="M 0 0L 89 0L 89 32.5L 0 32.5Z" stroke="none" fill="none"></path><g id="SvgjsG1192"><text id="SvgjsText1193" font-family="微软雅黑" text-anchor="middle" font-size="13px" width="89px" fill="#323232" font-weight="400" align="middle" lineHeight="125%" anchor="middle" family="微软雅黑" size="13px" weight="400" font-style="" opacity="1" y="5.625" transform="rotate(0)"><tspan id="SvgjsTspan1194" dy="16" x="44.5"><tspan id="SvgjsTspan1195" style="text-decoration:;">FULL</tspan></tspan></text></g></g><g id="SvgjsG1196" transform="translate(36,204)"><path id="SvgjsPath1197" d="M 0 0L 150 0L 150 70L 0 70Z" stroke="rgba(50,50,50,1)" stroke-width="2" fill-opacity="1" fill="#ffffff"></path><g id="SvgjsG1198"><text id="SvgjsText1199" font-family="微软雅黑" text-anchor="middle" font-size="14px" width="130px" fill="#f44336" font-weight="700" align="middle" lineHeight="125%" anchor="middle" family="微软雅黑" size="14px" weight="700" font-style="" opacity="1" y="14.75" transform="rotate(0)"><tspan id="SvgjsTspan1200" dy="17" x="75"><tspan id="SvgjsTspan1201" style="text-decoration:;">segment entry 1</tspan></tspan><tspan id="SvgjsTspan1202" dy="17" x="75"><tspan id="SvgjsTspan1203" style="text-decoration:;">(inode entry)</tspan></tspan></text></g></g><g id="SvgjsG1204" transform="translate(36,361)"><path id="SvgjsPath1205" d="M 0 0L 150 0L 150 70L 0 70Z" stroke="rgba(50,50,50,1)" stroke-width="2" fill-opacity="1" fill="#ffffff"></path><g id="SvgjsG1206"><text id="SvgjsText1207" font-family="微软雅黑" text-anchor="middle" font-size="14px" width="130px" fill="#f44336" font-weight="700" align="middle" lineHeight="125%" anchor="middle" family="微软雅黑" size="14px" weight="700" font-style="" opacity="1" y="14.75" transform="rotate(0)"><tspan id="SvgjsTspan1208" dy="17" x="75"><tspan id="SvgjsTspan1209" style="text-decoration:;">segment entry 253</tspan></tspan><tspan id="SvgjsTspan1210" dy="17" x="75"><tspan id="SvgjsTspan1211" style="text-decoration:;">(inode entry)</tspan></tspan></text></g></g><g id="SvgjsG1212" transform="translate(36,297.5)"><path id="SvgjsPath1213" d="M 0 0L 130 0L 130 40L 0 40Z" stroke="none" fill="none"></path><g id="SvgjsG1214"><text id="SvgjsText1215" font-family="微软雅黑" text-anchor="middle" font-size="24px" width="130px" fill="#323232" font-weight="700" align="middle" lineHeight="125%" anchor="middle" family="微软雅黑" size="24px" weight="700" font-style="" opacity="1" y="-1" transform="rotate(0)"><tspan id="SvgjsTspan1216" dy="30" x="65"><tspan id="SvgjsTspan1217" style="text-decoration:;">......</tspan></tspan></text></g></g></svg>