<svg id="SvgjsSvg1006" width="907" height="492" xmlns="http://www.w3.org/2000/svg" version="1.1" xmlns:xlink="http://www.w3.org/1999/xlink" xmlns:svgjs="http://svgjs.com/svgjs"><defs id="SvgjsDefs1007"><marker id="SvgjsMarker1040" markerWidth="14" markerHeight="10" refX="10" refY="5" viewBox="0 0 14 10" orient="auto" markerUnits="userSpaceOnUse" stroke-dasharray="0,0"><path id="SvgjsPath1041" d="M0,0 L14,5 L0,10 L0,0" fill="#323232" stroke="#323232" stroke-width="1"></path></marker></defs><g id="SvgjsG1008" transform="translate(287,25)"><path id="SvgjsPath1009" d="M 0 0L 595 0L 595 442L 0 442Z" stroke-dasharray="10,6" stroke="rgba(50,50,50,1)" stroke-width="2" fill-opacity="1" fill="#ffffff"></path><g id="SvgjsG1010"><text id="SvgjsText1011" font-family="微软雅黑" text-anchor="middle" font-size="18px" width="575px" fill="#f44336" font-weight="700" align="top" lineHeight="125%" anchor="middle" family="微软雅黑" size="18px" weight="700" font-style="" opacity="1" y="-4.25" transform="rotate(0)"><tspan id="SvgjsTspan1012" dy="22" x="297.5"><tspan id="SvgjsTspan1013" style="text-decoration:;">EXTENT</tspan></tspan></text></g></g><g id="SvgjsG1014" transform="translate(25,73)"><path id="SvgjsPath1015" d="M 0 4Q 0 0 4 0L 147 0Q 151 0 151 4L 151 376Q 151 380 147 380L 4 380Q 0 380 0 376Z" stroke="rgba(50,50,50,1)" stroke-width="2" fill-opacity="1" fill="#9e9e9e"></path><g id="SvgjsG1016"><text id="SvgjsText1017" font-family="微软雅黑" text-anchor="middle" font-size="18px" width="131px" fill="#f44336" font-weight="700" align="top" lineHeight="125%" anchor="middle" family="微软雅黑" size="18px" weight="700" font-style="" opacity="1" y="-4.25" transform="rotate(0)"><tspan id="SvgjsTspan1018" dy="22" x="75.5"><tspan id="SvgjsTspan1019" style="text-decoration:;">XDES Page</tspan></tspan></text></g></g><g id="SvgjsG1020" transform="translate(37,194)"><path id="SvgjsPath1021" d="M 0 0L 120 0L 120 30L 0 30Z" stroke="rgba(50,50,50,1)" stroke-width="2" fill-opacity="1" fill="#ffffff"></path><g id="SvgjsG1022"><text id="SvgjsText1023" font-family="微软雅黑" text-anchor="middle" font-size="13px" width="100px" fill="#f44336" font-weight="400" align="middle" lineHeight="125%" anchor="middle" family="微软雅黑" size="13px" weight="400" font-style="" opacity="1" y="4.375" transform="rotate(0)"><tspan id="SvgjsTspan1024" dy="16" x="60"><tspan id="SvgjsTspan1025" style="text-decoration:;">xdes entry 0</tspan></tspan></text></g></g><g id="SvgjsG1026" transform="translate(37,241.5)"><path id="SvgjsPath1027" d="M 0 0L 120 0L 120 30L 0 30Z" stroke="rgba(50,50,50,1)" stroke-width="2" fill-opacity="1" fill="#ffffff"></path><g id="SvgjsG1028"><text id="SvgjsText1029" font-family="微软雅黑" text-anchor="middle" font-size="13px" width="100px" fill="#323232" font-weight="400" align="middle" lineHeight="125%" anchor="middle" family="微软雅黑" size="13px" weight="400" font-style="" opacity="1" y="4.375" transform="rotate(0)"><tspan id="SvgjsTspan1030" dy="16" x="60"><tspan id="SvgjsTspan1031" style="text-decoration:;">xdes entry 1</tspan></tspan></text></g></g><g id="SvgjsG1032" transform="translate(297,73)"><path id="SvgjsPath1033" d="M 0 4Q 0 0 4 0L 147 0Q 151 0 151 4L 151 376Q 151 380 147 380L 4 380Q 0 380 0 376Z" stroke="rgba(50,50,50,1)" stroke-width="2" fill-opacity="1" fill="#9e9e9e"></path><g id="SvgjsG1034"><text id="SvgjsText1035" font-family="微软雅黑" text-anchor="middle" font-size="15px" width="131px" fill="#323232" font-weight="700" align="middle" lineHeight="125%" anchor="middle" family="微软雅黑" size="15px" weight="700" font-style="" opacity="1" y="177.625" transform="rotate(0)"><tspan id="SvgjsTspan1036" dy="18" x="75.5"><tspan id="SvgjsTspan1037" style="text-decoration:;">Page 0</tspan></tspan></text></g></g><g id="SvgjsG1038"><path id="SvgjsPath1039" d="M158 209L222 209L222 209L283.4 209" stroke="#323232" stroke-width="2" fill="none" marker-end="url(#SvgjsMarker1040)"></path></g><g id="SvgjsG1042" transform="translate(37,346.5)"><path id="SvgjsPath1043" d="M 0 0L 120 0L 120 30L 0 30Z" stroke="rgba(50,50,50,1)" stroke-width="2" fill-opacity="1" fill="#ffffff"></path><g id="SvgjsG1044"><text id="SvgjsText1045" font-family="微软雅黑" text-anchor="middle" font-size="13px" width="100px" fill="#323232" font-weight="400" align="middle" lineHeight="125%" anchor="middle" family="微软雅黑" size="13px" weight="400" font-style="" opacity="1" y="4.375" transform="rotate(0)"><tspan id="SvgjsTspan1046" dy="16" x="60"><tspan id="SvgjsTspan1047" style="text-decoration:;">xdes entry 255</tspan></tspan></text></g></g><g id="SvgjsG1048" transform="translate(452,73)"><path id="SvgjsPath1049" d="M 0 4Q 0 0 4 0L 147 0Q 151 0 151 4L 151 376Q 151 380 147 380L 4 380Q 0 380 0 376Z" stroke="rgba(50,50,50,1)" stroke-width="2" fill-opacity="1" fill="#9e9e9e"></path><g id="SvgjsG1050"><text id="SvgjsText1051" font-family="微软雅黑" text-anchor="middle" font-size="15px" width="131px" fill="#323232" font-weight="700" align="middle" lineHeight="125%" anchor="middle" family="微软雅黑" size="15px" weight="700" font-style="" opacity="1" y="177.625" transform="rotate(0)"><tspan id="SvgjsTspan1052" dy="18" x="75.5"><tspan id="SvgjsTspan1053" style="text-decoration:;">Page 1</tspan></tspan></text></g></g><g id="SvgjsG1054" transform="translate(717,73)"><path id="SvgjsPath1055" d="M 0 4Q 0 0 4 0L 147 0Q 151 0 151 4L 151 376Q 151 380 147 380L 4 380Q 0 380 0 376Z" stroke="rgba(50,50,50,1)" stroke-width="2" fill-opacity="1" fill="#9e9e9e"></path><g id="SvgjsG1056"><text id="SvgjsText1057" font-family="微软雅黑" text-anchor="middle" font-size="15px" width="131px" fill="#323232" font-weight="700" align="middle" lineHeight="125%" anchor="middle" family="微软雅黑" size="15px" weight="700" font-style="" opacity="1" y="177.625" transform="rotate(0)"><tspan id="SvgjsTspan1058" dy="18" x="75.5"><tspan id="SvgjsTspan1059" style="text-decoration:;">Page 63</tspan></tspan></text></g></g><g id="SvgjsG1060" transform="translate(597,249)"><path id="SvgjsPath1061" d="M 0 0L 120 0L 120 40L 0 40Z" stroke="none" fill="none"></path><g id="SvgjsG1062"><text id="SvgjsText1063" font-family="微软雅黑" text-anchor="middle" font-size="24px" width="120px" fill="#323232" font-weight="700" align="middle" lineHeight="125%" anchor="middle" family="微软雅黑" size="24px" weight="700" font-style="" opacity="1" y="-1" transform="rotate(0)"><tspan id="SvgjsTspan1064" dy="30" x="60"><tspan id="SvgjsTspan1065" style="text-decoration:;">......</tspan></tspan></text></g></g><g id="SvgjsG1066" transform="translate(37,289)"><path id="SvgjsPath1067" d="M 0 0L 120 0L 120 40L 0 40Z" stroke="none" fill="none"></path><g id="SvgjsG1068"><text id="SvgjsText1069" font-family="微软雅黑" text-anchor="middle" font-size="24px" width="120px" fill="#323232" font-weight="700" align="middle" lineHeight="125%" anchor="middle" family="微软雅黑" size="24px" weight="700" font-style="" opacity="1" y="-1" transform="rotate(0)"><tspan id="SvgjsTspan1070" dy="30" x="60"><tspan id="SvgjsTspan1071" style="text-decoration:;">......</tspan></tspan></text></g></g></svg>