<svg id="SvgjsSvg1006" width="864" height="492" xmlns="http://www.w3.org/2000/svg" version="1.1" xmlns:xlink="http://www.w3.org/1999/xlink" xmlns:svgjs="http://svgjs.com/svgjs"><defs id="SvgjsDefs1007"><marker id="SvgjsMarker1028" markerWidth="14" markerHeight="10" refX="10" refY="5" viewBox="0 0 14 10" orient="auto" markerUnits="userSpaceOnUse" stroke-dasharray="0,0"><path id="SvgjsPath1029" d="M0,0 L14,5 L0,10 L0,0" fill="#323232" stroke="#323232" stroke-width="1"></path></marker></defs><g id="SvgjsG1008" transform="translate(244,25)"><path id="SvgjsPath1009" d="M 0 0L 595 0L 595 442L 0 442Z" stroke-dasharray="10,6" stroke="rgba(50,50,50,1)" stroke-width="2" fill-opacity="1" fill="#ffffff"></path><g id="SvgjsG1010"><text id="SvgjsText1011" font-family="微软雅黑" text-anchor="middle" font-size="18px" width="575px" fill="#f44336" font-weight="700" align="top" lineHeight="125%" anchor="middle" family="微软雅黑" size="18px" weight="700" font-style="" opacity="1" y="-4.25" transform="rotate(0)"><tspan id="SvgjsTspan1012" dy="22" x="297.5"><tspan id="SvgjsTspan1013" style="text-decoration:;">EXTENT</tspan></tspan></text></g></g><g id="SvgjsG1014" transform="translate(25,80)"><path id="SvgjsPath1015" d="M 0 0L 100 0L 100 30L 0 30Z" stroke="rgba(50,50,50,1)" stroke-width="2" fill-opacity="1" fill="#ffffff"></path><g id="SvgjsG1016"><text id="SvgjsText1017" font-family="微软雅黑" text-anchor="middle" font-size="13px" width="80px" fill="#f44336" font-weight="400" align="middle" lineHeight="125%" anchor="middle" family="微软雅黑" size="13px" weight="400" font-style="" opacity="1" y="4.375" transform="rotate(0)"><tspan id="SvgjsTspan1018" dy="16" x="50"><tspan id="SvgjsTspan1019" style="text-decoration:;">xdes entry</tspan></tspan></text></g></g><g id="SvgjsG1020" transform="translate(254,73)"><path id="SvgjsPath1021" d="M 0 4Q 0 0 4 0L 147 0Q 151 0 151 4L 151 376Q 151 380 147 380L 4 380Q 0 380 0 376Z" stroke="rgba(50,50,50,1)" stroke-width="2" fill-opacity="1" fill="#9e9e9e"></path><g id="SvgjsG1022"><text id="SvgjsText1023" font-family="微软雅黑" text-anchor="middle" font-size="15px" width="131px" fill="#323232" font-weight="700" align="middle" lineHeight="125%" anchor="middle" family="微软雅黑" size="15px" weight="700" font-style="" opacity="1" y="177.625" transform="rotate(0)"><tspan id="SvgjsTspan1024" dy="18" x="75.5"><tspan id="SvgjsTspan1025" style="text-decoration:;">Page 0</tspan></tspan></text></g></g><g id="SvgjsG1026"><path id="SvgjsPath1027" d="M126 95L184.5 95L184.5 95L240.39999999999998 95" stroke="#323232" stroke-width="2" fill="none" marker-end="url(#SvgjsMarker1028)"></path></g><g id="SvgjsG1030" transform="translate(409,73)"><path id="SvgjsPath1031" d="M 0 4Q 0 0 4 0L 147 0Q 151 0 151 4L 151 376Q 151 380 147 380L 4 380Q 0 380 0 376Z" stroke="rgba(50,50,50,1)" stroke-width="2" fill-opacity="1" fill="#9e9e9e"></path><g id="SvgjsG1032"><text id="SvgjsText1033" font-family="微软雅黑" text-anchor="middle" font-size="15px" width="131px" fill="#323232" font-weight="700" align="middle" lineHeight="125%" anchor="middle" family="微软雅黑" size="15px" weight="700" font-style="" opacity="1" y="177.625" transform="rotate(0)"><tspan id="SvgjsTspan1034" dy="18" x="75.5"><tspan id="SvgjsTspan1035" style="text-decoration:;">Page 1</tspan></tspan></text></g></g><g id="SvgjsG1036" transform="translate(674,73)"><path id="SvgjsPath1037" d="M 0 4Q 0 0 4 0L 147 0Q 151 0 151 4L 151 376Q 151 380 147 380L 4 380Q 0 380 0 376Z" stroke="rgba(50,50,50,1)" stroke-width="2" fill-opacity="1" fill="#9e9e9e"></path><g id="SvgjsG1038"><text id="SvgjsText1039" font-family="微软雅黑" text-anchor="middle" font-size="15px" width="131px" fill="#323232" font-weight="700" align="middle" lineHeight="125%" anchor="middle" family="微软雅黑" size="15px" weight="700" font-style="" opacity="1" y="177.625" transform="rotate(0)"><tspan id="SvgjsTspan1040" dy="18" x="75.5"><tspan id="SvgjsTspan1041" style="text-decoration:;">Page 63</tspan></tspan></text></g></g><g id="SvgjsG1042" transform="translate(554,249)"><path id="SvgjsPath1043" d="M 0 0L 120 0L 120 40L 0 40Z" stroke="none" fill="none"></path><g id="SvgjsG1044"><text id="SvgjsText1045" font-family="微软雅黑" text-anchor="middle" font-size="24px" width="120px" fill="#323232" font-weight="700" align="middle" lineHeight="125%" anchor="middle" family="微软雅黑" size="24px" weight="700" font-style="" opacity="1" y="-1" transform="rotate(0)"><tspan id="SvgjsTspan1046" dy="30" x="60"><tspan id="SvgjsTspan1047" style="text-decoration:;">......</tspan></tspan></text></g></g></svg>